<svg width="100%" height="100%" viewBox="0 0 386 320" fill="none" xmlns="http://www.w3.org/2000/svg">
<g clip-path="url(#clip0_42_459)">
<path d="M148.969 175.113C148.99 174.395 147.862 174.307 147.832 175.045C147.778 176.693 147.375 178.31 146.651 179.792C146.573 179.708 146.476 179.643 146.368 179.604C146.26 179.564 146.144 179.55 146.03 179.564C144.039 180.064 142.265 181.189 140.971 182.773C140.146 183.792 139.069 184.581 137.845 185.062C136.621 185.543 135.292 185.7 133.988 185.517C131.439 185.146 128.841 185.295 126.352 185.956C123.953 186.86 121.908 188.786 119.305 189.047C116.4 189.352 113.585 187.879 110.653 188.161C107.976 188.653 105.425 189.672 103.151 191.158C98.9576 193.395 98.0996 192.676 93.7474 191.819C86.4349 190.352 84.8591 195.896 78.0603 194.918C75.5365 194.577 72.6519 194.023 70.6313 195.936C68.6161 193.702 69.0696 187.581 69.1011 185.493C69.1006 185.145 68.5375 185.002 68.4734 185.369C67.2826 191.007 68.0389 197.853 74.2418 200.117C79.7187 202.129 88.8084 200.757 94.9169 199.842C106.152 198.183 126.443 193.938 136.613 189.699C142.727 187.165 148.752 182.27 148.969 175.113ZM112.354 161.299C110.797 162.834 109.646 164.727 109.002 166.81C111.107 167.567 113.244 168.48 115.414 169.24C116.394 165.767 118.521 162.723 121.454 160.599L121.431 160.598C119.861 160.022 118.379 159.229 117.031 158.244C115.285 158.948 113.696 159.986 112.354 161.299Z" fill="#191919"/>
<path d="M72.9023 186.668C77.8684 188.138 82.0511 185.971 90.9385 186.259C97.3529 186.506 103.738 187.639 110.181 187.403C116.624 187.166 122.82 185.21 128.991 183.629C134.11 182.32 139.74 181.327 144.133 178.18C149.955 174.019 149.876 168.052 145.76 165.974C142.193 164.209 137.252 165.274 131.467 165.28C130.035 162.694 125.483 162.126 123.06 161.479C122.798 161.615 122.546 161.77 122.306 161.943C119.553 163.99 117.499 166.844 116.426 170.112C120.052 171.595 124.085 171.733 127.804 170.501C129.493 169.85 131.817 168.172 131.772 166.311C135.406 165.968 139.062 165.934 142.7 166.21C149.13 167.089 149.021 173.028 143.707 177.089C139.72 180.104 134.465 181.054 129.749 182.255C124.204 183.935 118.546 185.21 112.819 186.07C107.026 186.379 101.217 186.145 95.4685 185.371C90.0064 184.801 84.4923 184.979 79.0774 185.901C71.4728 186.661 68.3241 183.448 67.8755 178.731C67.7743 176.363 67.915 173.991 68.2953 171.653C68.5997 169.127 69.6205 166.023 72.8235 167.341C75.381 168.4 76.5973 171.255 79.1029 172.472C80.1111 172.958 81.2214 173.192 82.3393 173.154C83.4572 173.117 84.5496 172.808 85.5236 172.255C87.3624 170.883 88.9276 169.175 90.1372 167.221C91.6154 165.331 93.6785 163.99 96 163.41C97.3067 164.561 98.9889 165.188 100.726 165.173C101.406 162.343 102.826 159.746 104.839 157.652C106.852 155.558 109.386 154.043 112.177 153.263C110.846 151.152 108.778 149.617 106.378 148.959C104.853 148.706 103.29 148.839 101.829 149.347C100.368 149.855 99.0569 150.721 98.0141 151.868C96.8369 153.203 96.0405 154.833 95.7092 156.585C95.6057 156.666 95.5312 156.778 95.497 156.905C94.827 158.744 94.8085 160.759 95.4446 162.61C90.0941 163.875 89.111 167.548 86.4284 170.195C85.3297 171.328 83.8286 171.977 82.2546 171.999C80.6806 172.022 79.1622 171.416 78.0327 170.315C76.2163 168.654 74.8036 166.473 72.259 165.945C71.4929 165.726 70.6749 165.778 69.9423 166.093C69.2098 166.408 68.6071 166.966 68.2356 167.674C68.1051 167.385 67.909 167.131 67.6632 166.932C65.8249 165.345 62.8386 167.932 63.8373 170.576C64.1147 171.209 64.5474 171.76 65.0949 172.179C65.8046 172.838 66.378 173.632 66.7825 174.514C66.3525 177.275 66.7038 180.102 67.7963 182.671C68.3416 183.644 69.0738 184.498 69.9503 185.184C70.8268 185.871 71.8302 186.375 72.9023 186.668ZM65.5363 170.764C65.3296 170.517 65.1755 170.229 65.0832 169.92C64.9909 169.61 64.9625 169.285 64.9996 168.964C65.0594 168.665 65.2096 168.392 65.4295 168.182C65.6495 167.972 65.9286 167.835 66.2287 167.79C67.3046 167.765 67.2909 169.234 67.3539 169.834C67.1681 170.574 67.0356 171.328 66.9574 172.088C66.506 171.618 65.9385 171.184 65.544 170.765L65.5363 170.764Z" fill="#191919"/>
<path d="M101.72 165.034C103.881 165.42 106.012 165.965 108.093 166.665C108.723 164.504 109.875 162.53 111.449 160.917C112.803 159.529 114.399 158.397 116.158 157.577C114.985 156.568 113.937 155.422 113.037 154.165C110.345 154.796 107.874 156.138 105.882 158.051C103.891 159.963 102.453 162.375 101.72 165.034ZM255.718 163.655C255.59 162.922 254.471 163.163 254.605 163.895C254.888 165.526 254.819 167.199 254.401 168.8C254.297 168.738 254.181 168.698 254.061 168.683C253.941 168.668 253.819 168.679 253.703 168.714C251.806 169.653 250.264 171.178 249.306 173.061C248.689 174.211 247.784 175.182 246.678 175.878C245.572 176.574 244.303 176.971 242.997 177.031C240.442 177.174 237.945 177.846 235.666 179.007C233.377 180.471 231.693 182.917 228.926 183.565C226.113 184.232 223.166 183.442 220.377 184.416C217.918 185.49 215.685 187.018 213.795 188.919C210.465 191.748 209.109 191.336 205.09 191.321C199.56 191.312 197.475 194.448 194.656 196.187C193.239 197.057 191.616 197.536 189.952 197.576C187.414 197.71 184.545 197.832 182.959 200.078C182.916 200.054 182.898 200.009 182.855 199.985C180.311 197.288 179.982 193.515 179.327 190.075C179.308 190 179.263 189.935 179.201 189.89C179.138 189.846 179.062 189.824 178.985 189.83C178.909 189.836 178.836 189.869 178.782 189.923C178.727 189.977 178.693 190.049 178.687 190.125C178.666 196.048 180.915 202.633 187.575 203.535C193.261 204.313 201.596 201.257 207.539 199.081C218.076 195.244 237.134 187.049 246.417 180.72C251.991 176.863 256.984 170.837 255.718 163.655ZM207.082 163.091C209.281 163.038 211.481 163.146 213.664 163.415C213.855 161.115 214.614 158.899 215.873 156.964C216.915 155.404 218.208 154.027 219.702 152.889C218.347 152.13 217.086 151.215 215.947 150.162C213.446 151.331 211.305 153.147 209.746 155.421C208.187 157.694 207.267 160.342 207.082 163.091Z" fill="#191919"/>
<path d="M184.157 190.185C189.045 190.067 191.663 187.497 201.426 185.958C207.552 185.02 213.789 184.794 219.814 183.298C225.732 181.488 231.445 179.069 236.863 176.079C241.818 173.661 247.486 171.501 251.246 167.287C255.911 162.043 254.533 156.512 250.407 155.296C247.589 154.443 244.422 155.359 241.689 156.058C235.255 157.712 236.18 157.498 235.961 157.372C234.183 155.37 229.168 155.626 226.935 155.468C224.286 158.096 222.616 161.551 222.205 165.26C225.919 165.931 229.751 165.327 233.078 163.545C234.657 162.601 237.078 160.47 236.536 158.453C239.804 157.698 243 156.65 246.336 156.209C253.494 155.278 254.84 161.032 250.759 166.119C247.521 170.097 242.413 172.133 237.913 174.317C232.785 177.092 227.464 179.494 221.991 181.506C214.405 183.905 206.067 183.795 197.969 185.398C191.174 186.795 187.014 189.605 182.308 188.922C181.006 188.744 179.778 188.212 178.757 187.385C177.736 186.557 176.961 185.466 176.516 184.229C175.807 182.05 175.406 179.783 175.328 177.493C175.133 175.186 174.624 171.138 178.062 171.208C180.884 171.266 182.781 173.873 185.309 174.818C186.357 175.196 187.481 175.32 188.587 175.179C189.693 175.037 190.75 174.635 191.669 174.005C195.667 171.17 194.617 165.656 200.787 162.804C202.276 163.657 204.027 163.934 205.707 163.582L205.772 163.586C205.847 161.038 206.529 158.544 207.763 156.313C208.998 154.083 210.747 152.18 212.867 150.763C213.398 150.396 213.994 150.013 214.61 149.652C212.964 147.936 210.763 146.859 208.399 146.612C206.856 146.611 205.339 146.997 203.984 147.734C202.63 148.471 201.482 149.536 200.644 150.831C198.844 153.62 198.143 159.725 200.084 162.144C194.688 164.616 194.877 168.808 192.334 171.969C190.048 174.792 186.575 174.562 183.815 172.699C181.884 171.422 179.947 169.821 177.481 170.093C176.784 170.163 176.122 170.433 175.576 170.871C175.029 171.309 174.621 171.895 174.4 172.56C174.186 172.276 173.905 172.05 173.583 171.9C173.26 171.751 172.906 171.684 172.551 171.704C172.196 171.724 171.852 171.832 171.549 172.017C171.245 172.202 170.992 172.459 170.812 172.765C170.454 173.267 170.248 173.863 170.219 174.48C170.19 175.096 170.34 175.708 170.65 176.242C171.063 176.832 171.62 177.306 172.267 177.619C173.064 178.061 173.746 178.684 174.257 179.438C174.62 179.847 174.566 184.944 177.575 187.868C178.462 188.675 179.501 189.296 180.631 189.693C181.762 190.091 182.961 190.258 184.157 190.185ZM172.376 176.087C171.617 175.531 171.113 173.959 172.123 173.29C173.226 172.562 173.736 173.628 174.022 174.749C173.997 175.546 174.014 176.343 174.074 177.137C173.522 176.75 172.856 176.443 172.376 176.087Z" fill="#191919"/>
<path d="M215.438 163.944C217.67 164.27 219.959 164.764 222.258 165.076C222.514 161.434 223.985 157.982 226.438 155.273C224.765 155.022 223.136 154.535 221.6 153.826C219.881 154.946 218.435 156.436 217.369 158.187C216.303 159.938 215.643 161.905 215.438 163.944ZM95.5622 25.3173C94.9489 25.2383 93.0283 26.0037 92.8803 25.1347C92.765 24.4668 91.7597 24.6931 91.8519 25.3597C91.9265 25.7037 92.1138 26.0131 92.3841 26.2392C92.6545 26.4653 92.9926 26.5951 93.345 26.6082C93.8366 26.6117 94.3256 26.537 94.7936 26.387C95.1307 26.3209 95.4786 26.3345 95.8095 26.4267C96.1404 26.5188 96.4451 26.687 96.6993 26.9178C96.7703 26.9643 96.8548 26.9861 96.9395 26.98C97.0242 26.9738 97.1045 26.94 97.1681 26.8837C97.2316 26.8274 97.2747 26.7518 97.2909 26.6686C97.3071 26.5854 97.2953 26.4992 97.2575 26.4233C97.0855 26.1159 96.8414 25.8547 96.5461 25.6621C96.2509 25.4695 95.9132 25.3512 95.5622 25.3173ZM99.8114 31.4733C99.4332 31.7239 99 31.8798 98.5485 31.9279C98.4243 31.9526 98.3149 32.0255 98.2446 32.1306C98.1742 32.2357 98.1486 32.3644 98.1734 32.4884C98.1981 32.6124 98.2712 32.7215 98.3766 32.7918C98.482 32.862 98.611 32.8876 98.7352 32.863C99.6741 32.6772 101.411 32.0324 101.327 30.8366C101.123 30.0674 100.843 29.3203 100.491 28.6065C100.365 27.7609 100.179 26.9254 99.9321 26.1067C99.9018 26.0472 99.8543 25.9981 99.7959 25.9656C99.7375 25.9331 99.6706 25.9188 99.604 25.9243C99.5373 25.9299 99.4739 25.9552 99.4217 25.9969C99.3695 26.0387 99.331 26.095 99.3111 26.1587C99.1429 27.6548 99.4059 29.1678 100.069 30.5202C100.216 30.9909 100.294 31.1038 99.8114 31.4733ZM94.3174 32.1616C94.2707 32.0776 94.1985 32.0106 94.1112 31.9702C94.0238 31.9298 93.9259 31.9181 93.8315 31.9368C93.7371 31.9554 93.6512 32.0035 93.5859 32.0741C93.5207 32.1447 93.4797 32.2342 93.4687 32.3296C93.1823 34.1856 91.9756 38.1674 94.4351 39.1274C96.7072 40.0125 98.3671 36.8483 98.7985 35.1593C98.8116 34.9878 98.7634 34.8173 98.6624 34.6779C98.5615 34.5385 98.4143 34.4392 98.2471 34.3978C97.4614 34.3628 96.6952 34.1418 96.0119 33.753C95.3286 33.3641 94.7478 32.8186 94.3174 32.1616ZM97.8553 35.0588C97.5257 36.1219 96.912 37.0751 96.08 37.8161C95.9125 37.9324 95.7199 38.0079 95.5178 38.0366C95.3157 38.0654 95.1096 38.0464 94.9162 37.9814C94.7227 37.9163 94.5471 37.8069 94.4036 37.662C94.26 37.5171 94.1525 37.3407 94.0895 37.1468C93.9142 35.9092 93.9738 34.6498 94.2652 33.4343C94.7239 33.9315 95.2781 34.3315 95.8949 34.6106C96.5117 34.8897 97.1784 35.0421 97.8553 35.0588ZM149.537 66.2196C148.835 67.7492 148.485 69.416 148.511 71.0984C148.537 72.7808 148.94 74.4363 149.689 75.9439C149.733 76.0225 149.804 76.0831 149.888 76.1153C149.972 76.1475 150.066 76.1492 150.151 76.12C150.237 76.0909 150.309 76.0328 150.356 75.9558C150.403 75.8789 150.422 75.7879 150.409 75.6987C149.904 72.4077 148.916 71.827 150.314 66.5093C150.353 66.4065 150.349 66.2926 150.303 66.1928C150.257 66.0929 150.174 66.0152 150.071 65.9768C149.968 65.9384 149.854 65.9424 149.754 65.9879C149.654 66.0334 149.576 66.1167 149.537 66.2196ZM91.7304 162.494C86.8097 161.388 79.5841 162.335 74.6915 163.596C74.2194 142.16 74.7058 120.34 81.0975 99.878C81.9139 97.2841 82.9259 94.7231 83.6778 92.106C83.7894 91.6932 83.193 91.3291 82.9702 91.7546C79.4321 98.5302 76.6501 111.272 75.4475 118.841C73.3668 133.893 72.7374 149.109 73.568 164.281C73.5928 164.613 73.8809 164.982 74.2612 164.873C82.2359 162.533 87.2377 163.383 91.5443 163.411C92.0747 163.417 92.2963 162.621 91.7304 162.494ZM52.1242 130.953C50.4922 130.216 49.7834 128.744 48.6507 127.461C48.5675 127.369 48.4542 127.31 48.3313 127.295C48.2084 127.28 48.0842 127.31 47.9813 127.378C47.8784 127.447 47.8036 127.55 47.7706 127.669C47.7376 127.788 47.7486 127.915 47.8016 128.027C48.2228 129.037 48.8612 129.943 49.6718 130.68C50.4824 131.416 51.4452 131.967 52.4923 132.291C53.2899 132.536 54.1446 132.523 54.9338 132.253C55.7231 131.983 56.4064 131.471 56.8858 130.79C59.489 132.081 62.1626 133.225 64.8942 134.217C65.9948 134.637 67.4192 135.183 68.3831 134.183C68.5411 134.01 68.6612 133.806 68.7358 133.584C68.8105 133.362 68.838 133.127 68.8167 132.894C68.7954 132.66 68.7256 132.434 68.612 132.229C68.4983 132.024 68.3431 131.845 68.1564 131.703C66.2179 129.765 64.5143 129.877 56.1369 121.076C56.111 121.047 56.0796 121.024 56.0446 121.007C56.0096 120.99 55.9716 120.98 55.9328 120.978C55.894 120.976 55.8551 120.981 55.8184 120.994C55.7817 121.007 55.7479 121.027 55.7189 121.052C55.6899 121.078 55.6663 121.109 55.6494 121.144C55.6325 121.179 55.6226 121.217 55.6204 121.256C55.6182 121.295 55.6237 121.333 55.6365 121.37C55.6493 121.407 55.6692 121.441 55.6951 121.469C58.5226 125.259 61.9187 128.59 65.7638 131.346C65.9342 131.478 66.5568 131.825 67.0174 132.159C67.0942 132.215 67.1587 132.286 67.2068 132.368C67.2549 132.45 67.2856 132.541 67.2969 132.636C67.3082 132.73 67.3 132.825 67.2726 132.916C67.2453 133.007 67.1994 133.092 67.1379 133.164C66.5142 133.883 65.7464 133.371 65.009 133.13C55.4455 129.533 55.0341 128.205 52.1744 126.22C51.7498 125.932 51.319 126.5 51.6069 126.871C52.8416 128.343 54.3611 129.551 56.0746 130.423C55.5386 130.884 54.8799 131.179 54.1786 131.273C53.4772 131.368 52.7635 131.256 52.1242 130.953Z" fill="#191919"/>
<path d="M117.756 82.2822C116.214 70.6037 110.648 67.6873 99.2797 68.3178C86.6146 69.0155 74.3293 74.3893 64.024 82.097C62.8149 82.0676 61.6061 82.1562 60.4148 82.3615C53.6743 83.3633 45.0768 86.0668 40.2366 90.7809C39.6785 89.0138 39.0971 87.2696 38.4924 85.5485C43.6857 81.2863 45.2732 82.004 47.4583 80.3582C47.5174 80.3041 47.5594 80.2341 47.5793 80.1567C47.5991 80.0793 47.5959 79.9979 47.57 79.9222C47.5441 79.8466 47.4967 79.78 47.4335 79.7305C47.3703 79.681 47.294 79.6508 47.2138 79.6434C45.406 79.9219 43.6873 80.6096 42.1909 81.6534C40.7402 82.4675 39.3741 83.4218 38.1125 84.5024C36.7298 80.6266 35.2118 76.8094 33.5585 73.0508C33.2638 72.3984 32.2857 72.9097 32.5587 73.5685C36.9887 83.6304 40.4142 94.0984 42.786 104.822C43.0766 105.732 43.273 106.668 43.3722 107.617C43.3709 109.11 41.9305 109.573 40.8732 110.276C37.9595 112.254 35.3485 114.638 33.1209 117.356C26.6485 109.361 18.8952 97.9615 15.087 88.4125C12.7507 83.0783 12.0333 77.1848 13.0226 71.455C15.5875 59.6147 28.1972 54.8507 39.4807 48.7883C39.5734 48.7352 39.6421 48.6489 39.6728 48.547C39.7035 48.4452 39.6938 48.3355 39.6457 48.2405C39.5976 48.1455 39.5147 48.0722 39.414 48.0358C39.3134 47.9994 39.2025 48.0025 39.1042 48.0445C33.2788 50.4108 27.7157 53.368 22.5032 56.8689C17.8807 59.65 14.3374 63.8955 12.4441 68.9216C8.65073 80.3965 14.7799 92.1206 20.5907 101.76C24.1015 107.514 27.9935 113.031 32.2408 118.273C33.5213 119.639 34.5056 121.252 35.1327 123.01C36.4972 126.148 38.5651 132.491 41.955 133.7C42.3592 133.861 42.797 133.92 43.2295 133.873C43.6621 133.826 44.0761 133.673 44.4347 133.428C44.833 133.083 45.1403 132.646 45.33 132.156C46.1163 132.793 47.0964 133.148 48.111 133.163C49.1256 133.178 50.1151 132.852 50.9189 132.238C50.9859 132.18 51.0293 132.099 51.0408 132.011C51.0523 131.923 51.0312 131.834 50.9815 131.761C50.9318 131.687 50.8567 131.634 50.7705 131.611C50.6842 131.588 50.5925 131.598 50.5126 131.637C49.8245 131.982 49.0529 132.131 48.2842 132.066C47.5154 132.001 46.7799 131.725 46.1599 131.268C45.0263 130.398 44.0377 129.355 43.2303 128.18C42.9449 127.763 42.4422 128.395 42.5779 128.755C43.0243 129.863 43.7482 130.841 44.6811 131.594C44.7641 131.665 44.6542 131.785 44.5546 131.929C43.1432 133.994 40.8412 131.599 39.9229 130.317C37.5756 127.051 36.5696 122.018 33.9048 118.224C35.2392 116.521 36.7377 114.951 38.3791 113.536C40.1228 112.045 43.4324 110.033 43.5681 109.805C46.5471 114.022 55.154 111.519 57.7735 116.109C58.2632 116.983 58.4876 117.978 58.4195 118.975C58.36 119.98 57.7828 120.757 57.6601 121.714C57.6564 121.788 57.6722 121.862 57.7059 121.928C57.7395 121.994 57.79 122.051 57.8522 122.092C57.9144 122.133 57.9864 122.157 58.0609 122.163C58.1355 122.168 58.2101 122.154 58.2775 122.122C59.6967 121.265 59.8263 118.884 59.5243 117.44C59.334 116.51 58.9321 115.635 58.3493 114.882C57.7664 114.13 57.018 113.519 56.1613 113.097C54.3051 112.283 52.328 111.776 50.3078 111.594C48.0391 111.478 45.8854 110.564 44.2312 109.017C44.5629 108.027 44.5583 106.957 44.2181 105.969C43.201 101.152 41.9653 96.3832 40.5149 91.6766C42.1945 90.5471 43.7902 89.3281 45.5586 88.3366C50.8842 85.5268 56.7031 83.7544 62.7018 83.115C56.7463 87.7577 51.4667 93.1959 47.0128 99.275C46.7494 99.6307 47.295 100.104 47.6036 99.7699C53.6393 92.6088 60.5069 86.1813 68.0635 80.6212C75.9153 75.1164 84.9257 71.4546 94.4151 69.912C99.1694 68.9273 104.089 69.0401 108.795 70.2416C113.559 71.8406 115.532 76.1883 116.342 80.7746C118.22 91.1899 115.721 102.045 113.115 112.106C110.062 123.338 106.251 134.353 101.707 145.076C101.45 145.674 102.382 145.97 102.657 145.396C107.315 135.341 111.019 124.876 113.721 114.137C116.494 103.888 119.17 92.9797 117.756 82.2822ZM195.128 160.779C190.79 161.904 186.691 163.792 183.025 166.352C170.788 152.574 161.425 136.525 155.479 119.135C155.233 118.439 154.094 118.656 154.338 119.373C160.388 137.122 169.944 153.497 182.447 167.539C182.533 167.64 182.652 167.708 182.784 167.732C182.915 167.756 183.051 167.734 183.168 167.671C187.025 165.237 191.096 163.152 195.331 161.443C195.407 161.407 195.467 161.344 195.5 161.268C195.534 161.191 195.539 161.106 195.514 161.026C195.49 160.946 195.438 160.877 195.367 160.832C195.296 160.787 195.212 160.768 195.128 160.779ZM155.085 114.227C145.641 117.723 135.855 120.236 125.885 121.726C119.496 122.654 118.106 122.398 116.173 123.099C116.116 123.129 116.069 123.175 116.039 123.231C116.008 123.287 115.995 123.351 116 123.414C116.006 123.478 116.031 123.538 116.071 123.588C116.111 123.638 116.165 123.675 116.226 123.695C117.76 123.898 119.316 123.872 120.842 123.617C131.04 122.59 141.085 120.407 150.78 117.111C152.399 116.642 153.978 116.046 155.503 115.331C155.624 115.259 155.716 115.147 155.762 115.015C155.809 114.883 155.807 114.738 155.757 114.607C155.708 114.476 155.613 114.366 155.491 114.296C155.368 114.227 155.224 114.203 155.085 114.227Z" fill="#191919"/>
<path d="M69.4695 137.057C66.5697 137.147 65.2041 138.442 58.5136 138.044C54.7133 137.717 50.9915 136.852 47.5017 135.486C47.4079 135.463 47.308 135.468 47.2196 135.501C47.1311 135.534 47.0599 135.593 47.0183 135.667C46.9767 135.741 46.9675 135.826 46.9923 135.907C47.0171 135.987 47.0743 136.058 47.1538 136.107C53.2884 140.11 66.436 139.762 69.7828 137.772C69.8469 137.715 69.8907 137.644 69.9092 137.567C69.9277 137.49 69.9201 137.409 69.8874 137.335C69.8547 137.26 69.7982 137.195 69.7243 137.145C69.6503 137.096 69.5621 137.065 69.4695 137.057Z" fill="#191919"/>
<path d="M99.8538 24.4203C100.045 24.4317 100.235 24.3866 100.401 24.2909C100.566 24.1952 100.699 24.053 100.783 23.8825C100.866 23.7119 100.897 23.5206 100.87 23.3327C100.844 23.1447 100.762 22.9687 100.635 22.8268C100.507 22.6849 100.34 22.5834 100.155 22.5354C99.9695 22.4873 99.7739 22.4947 99.5928 22.5566C99.4118 22.6185 99.2534 22.7323 99.1378 22.8834C99.0222 23.0345 98.9545 23.2162 98.9432 23.4055C98.9312 23.6586 99.0198 23.9065 99.1899 24.0961C99.3601 24.2858 99.5983 24.4021 99.8538 24.4203ZM93.2554 172.202C94.1008 176.312 99.9684 178.007 103.489 178.722C105.71 179.22 107.999 179.348 110.261 179.101C111.867 178.913 115.305 178.395 115.938 176.659C115.97 176.563 115.979 176.461 115.965 176.362C115.952 176.262 115.915 176.166 115.858 176.082C115.801 175.999 115.726 175.929 115.637 175.879C115.549 175.828 115.45 175.799 115.348 175.792C114.494 175.632 113.796 176.203 113.027 176.509C108.18 177.917 102.975 177.482 98.4308 175.29C96.7397 174.44 95.2272 173.281 93.9739 171.872C93.9172 171.8 93.8378 171.75 93.7485 171.729C93.6592 171.707 93.5653 171.716 93.482 171.755C93.3988 171.793 93.3311 171.858 93.29 171.939C93.2488 172.02 93.2366 172.113 93.2554 172.202ZM199.387 173.978C201.42 177.778 207.667 177.623 211.315 177.293C213.522 177.122 215.684 176.592 217.714 175.725C219.123 175.086 222.354 173.57 222.372 171.798C222.375 171.698 222.356 171.598 222.315 171.506C222.275 171.414 222.214 171.333 222.137 171.267C222.06 171.202 221.969 171.154 221.872 171.128C221.774 171.102 221.671 171.098 221.572 171.116C220.749 171.177 220.264 171.892 219.637 172.381C216.044 175.241 210.294 176.052 205.734 175.516C203.684 175.234 201.715 174.535 199.95 173.464C199.628 173.293 199.166 173.615 199.387 173.978Z" fill="#EF233C"/>
<path d="M350.58 126.05C350.516 115.97 351.09 105.938 351.902 95.9265C351.908 95.7534 351.863 95.5824 351.772 95.4345C351.681 95.2865 351.55 95.168 351.392 95.0934C351.235 95.0189 351.06 94.9914 350.887 95.0146C350.715 95.0377 350.553 95.1103 350.422 95.2236C341.606 101.42 333.218 108.198 325.316 115.513C325.164 115.66 325.069 115.856 325.047 116.066C325.025 116.275 325.078 116.486 325.197 116.661C325.316 116.836 325.493 116.963 325.696 117.022C325.9 117.08 326.118 117.065 326.311 116.98C329.122 118.417 331.97 119.78 334.853 121.067C324.272 139.649 311.715 159.74 298.601 178.57C294.356 172.036 293.015 170.238 291.513 168.198C290.582 166.979 289.583 165.812 288.521 164.703C288.627 164.426 288.646 164.123 288.574 163.835C288.503 163.546 288.345 163.287 288.122 163.09C287.899 162.893 287.621 162.768 287.325 162.733C287.029 162.697 286.729 162.752 286.465 162.89C282.215 165.088 270.882 172.063 245.511 185.848C231.901 193.255 189.437 214.76 182.221 218.834C182.022 218.003 177.399 202.622 174.438 194.122C173.758 191.733 172.873 189.406 171.792 187.166C171.334 186.368 170.315 185.197 169.155 185.333C165.605 185.746 22.6993 219.883 21.2392 220.27C18.651 220.876 16.1158 221.687 13.6579 222.696C13.4845 222.789 13.3503 222.94 13.2797 223.123C13.2092 223.306 13.2068 223.508 13.2732 223.693C13.3396 223.878 13.4702 224.033 13.6414 224.13C13.8127 224.227 14.0132 224.26 14.2065 224.222C15.1494 224.064 15.4267 224.059 16.6752 223.908C19.0557 223.579 168.127 188.624 169.308 188.26C169.826 190.472 170.493 192.647 171.307 194.769C172.257 197.717 177.706 215.249 178.127 216.702C178.829 219.076 179.135 222.366 181.418 221.883C184.734 222.413 270.431 176.618 286.741 166.378C289.732 171.464 289.15 170.159 297.06 182.542C297.203 182.807 297.412 183.032 297.667 183.195C297.922 183.357 298.215 183.452 298.517 183.47C298.819 183.488 299.121 183.428 299.393 183.297C299.665 183.166 299.899 182.968 300.073 182.721C314.622 161.962 326.422 142.94 338.119 122.528C341.821 124.111 345.591 125.536 349.43 126.803C349.556 126.845 349.689 126.858 349.821 126.841C349.952 126.824 350.078 126.777 350.189 126.705C350.3 126.632 350.393 126.536 350.461 126.422C350.528 126.309 350.569 126.181 350.58 126.05Z" fill="#EF233C"/>
<path d="M283.013 132.785C281.888 132.184 280.625 131.883 279.348 131.91C279.531 130.693 279.864 129.53 280.114 128.315C280.209 127.84 279.551 127.362 279.254 127.893C278.571 129.124 278.138 130.476 277.977 131.872C276.722 131.802 275.467 132.02 274.311 132.509C274.23 132.553 274.166 132.621 274.127 132.705C274.089 132.788 274.078 132.881 274.098 132.971C274.117 133.061 274.165 133.142 274.234 133.203C274.304 133.263 274.391 133.3 274.484 133.307C275.597 133.366 276.714 133.36 277.827 133.289C277.597 134.689 277.74 136.126 278.244 137.455C278.299 137.558 278.387 137.641 278.493 137.691C278.6 137.741 278.72 137.755 278.835 137.733C278.95 137.71 279.055 137.651 279.134 137.565C279.213 137.478 279.262 137.369 279.274 137.253C279.36 135.953 279.348 134.648 279.239 133.35C280.436 133.581 281.651 133.705 282.87 133.719C283.272 133.655 283.334 132.999 283.013 132.785ZM264.905 71.3384C263.704 70.9014 262.386 70.9007 261.186 71.3366C260.594 69.8032 259.525 68.4958 258.133 67.604C258.036 67.5439 257.921 67.52 257.808 67.5365C257.695 67.5529 257.591 67.6087 257.516 67.6938C257.441 67.779 257.399 67.8878 257.398 68.001C257.396 68.1141 257.435 68.2241 257.508 68.3113C258.358 69.3808 259.104 70.5265 259.739 71.7335C258.64 72.0176 257.618 72.5404 256.749 73.264C256.677 73.3272 256.629 73.4119 256.611 73.505C256.593 73.5981 256.607 73.6944 256.65 73.7792C256.693 73.864 256.763 73.9325 256.849 73.9741C256.935 74.0158 257.032 74.0283 257.126 74.0097C258.182 73.7455 259.182 73.299 260.198 72.965C260.396 73.6294 260.518 74.3135 260.562 75.0047C260.534 75.6517 260.608 76.2993 260.781 76.9241C260.827 77.0117 260.896 77.0859 260.98 77.1395C261.064 77.1932 261.161 77.2245 261.261 77.2304C261.36 77.2364 261.46 77.2167 261.55 77.1734C261.64 77.1301 261.717 77.0645 261.773 76.9831C262.315 75.5684 262.273 73.9986 261.656 72.6131C262.755 72.5612 263.839 72.3299 264.862 71.9284C265.076 71.7872 265.141 71.441 264.905 71.3384ZM335.734 53.168C336.747 51.8758 337.321 50.2983 337.372 48.6619C337.376 48.551 337.34 48.4423 337.271 48.3551C337.201 48.2679 337.103 48.2078 336.993 48.1854C336.883 48.1629 336.769 48.1797 336.671 48.2326C336.572 48.2856 336.496 48.3713 336.455 48.4747C335.967 49.7484 335.361 50.9746 334.646 52.1376C333.837 51.3473 332.858 50.7496 331.782 50.3899C331.4 50.2787 330.983 50.758 331.321 51.0859C332.072 51.8538 332.988 52.4565 333.831 53.1588C332.233 54.8587 331.356 54.8238 330.716 55.6918C330.659 55.7756 330.625 55.8731 330.619 55.9741C330.613 56.0751 330.634 56.176 330.681 56.266C330.728 56.3561 330.798 56.4321 330.884 56.4862C330.971 56.5402 331.07 56.5702 331.172 56.5731C331.922 56.4452 332.637 56.1699 333.277 55.7636C333.917 55.3572 334.468 54.828 334.898 54.2071C335.505 55.1195 336.266 55.9216 337.148 56.5782C337.336 56.676 337.677 56.5866 337.65 56.3233C337.428 55.0731 336.745 53.9487 335.734 53.168ZM334.912 11.4243C331.889 7.0008 326.941 2.92849 321.289 3.07344C321.211 3.07056 321.133 3.09031 321.065 3.13033C320.998 3.17034 320.943 3.22889 320.909 3.29889C320.874 3.36889 320.861 3.44735 320.87 3.52476C320.88 3.60216 320.912 3.6752 320.963 3.73503C323.213 6.53026 324.351 10.045 324.162 13.6131C323.595 13.1535 322.94 12.8132 322.236 12.6133C321.532 12.4133 320.795 12.3579 320.069 12.4503C319.692 12.4932 319.706 12.975 319.939 13.1659C320.774 14.1421 321.35 15.3092 321.615 16.5612C321.88 17.8131 321.825 19.1104 321.456 20.3354C320.942 22.673 319.958 24.6959 320.456 27.1379C320.836 29.1394 321.939 30.9359 323.559 32.1904C325.18 33.4448 327.206 34.0711 329.257 33.9516C337.388 33.4385 341.694 21.3441 334.912 11.4243ZM330.473 27.7044C330.039 27.8759 329.568 27.9366 329.104 27.8809C328.64 27.8253 328.198 27.6552 327.817 27.3861C327.437 27.117 327.131 26.7577 326.927 26.341C326.722 25.9243 326.627 25.4637 326.65 25.0014C326.444 24.172 326.549 23.2975 326.943 22.5391C327.338 21.7808 327.997 21.19 328.798 20.8757C329.69 20.714 330.612 20.8971 331.374 21.3873C332.136 21.8775 332.679 22.6377 332.894 23.5119C333.108 24.3861 332.976 25.3079 332.526 26.0883C332.076 26.8686 331.341 27.4483 330.472 27.7083L330.473 27.7044ZM312.17 68.119C308.008 60.3941 300.772 52.8423 291.556 51.9001C291.487 51.8972 291.418 51.912 291.356 51.943C291.294 51.9741 291.241 52.0204 291.202 52.0775C291.163 52.1346 291.14 52.2006 291.134 52.2692C291.128 52.3379 291.14 52.4069 291.169 52.4696C294.541 58.0749 295.633 64.739 294.224 71.1074C293.401 70.0812 292.359 69.2487 291.172 68.6701C289.986 68.0916 288.684 67.7814 287.363 67.7621C287.284 67.76 287.207 67.7803 287.14 67.8205C287.073 67.8607 287.019 67.919 286.985 67.9887C286.95 68.0584 286.937 68.1365 286.946 68.2136C286.955 68.2907 286.986 68.3636 287.036 68.4237L287.098 68.4928C287.099 68.5466 287.111 68.5998 287.133 68.6488C288.267 70.4665 288.954 72.5221 289.139 74.6499C289.324 76.7777 289.002 78.9182 288.199 80.8989C286.88 84.8334 284.447 88.1784 284.612 92.5012C284.707 96.1071 286.178 99.5451 288.727 102.124C291.276 104.702 294.715 106.23 298.353 106.399C312.244 107.014 322.292 86.9134 312.17 68.119ZM299.52 98.0371C296.241 98.8425 293.288 97.3185 293.149 91.8064C293.049 87.7741 296.222 84.398 299.957 85.6704C301.185 86.1423 302.257 86.9453 303.049 87.9885C303.841 89.0318 304.323 90.2736 304.44 91.5734C304.512 93.0513 304.059 94.5065 303.16 95.6871C302.261 96.8676 300.974 97.699 299.52 98.0371ZM380.753 53.0585C380.205 45.9255 377.334 37.906 370.789 34.1196C370.721 34.0787 370.642 34.058 370.563 34.0602C370.483 34.0623 370.405 34.0872 370.34 34.1318C370.274 34.1764 370.223 34.2388 370.192 34.3117C370.161 34.3845 370.152 34.4646 370.166 34.5424C370.754 39.8439 369.3 45.1674 366.095 49.4478C365.807 48.4027 365.29 47.4327 364.582 46.6064C363.874 45.7802 362.992 45.1178 361.997 44.6662C361.945 44.6476 361.889 44.6404 361.834 44.6451C361.778 44.6498 361.725 44.6662 361.676 44.6932C361.628 44.7203 361.586 44.7573 361.553 44.8019C361.521 44.8464 361.498 44.8974 361.487 44.9513C361.399 45.3635 363.07 50.0663 357.528 55.4889C355.013 57.9479 352.274 59.7147 351.074 63.1503C350.077 65.9231 350.153 68.9649 351.288 71.688C352.422 74.4112 354.534 76.6227 357.216 77.8953C367.538 82.8179 382.139 70.9412 380.753 53.0585ZM367.038 70.1167C364.691 76.3601 354.256 72.7946 358.576 66.5242C359.09 65.358 360.024 64.4243 361.197 63.9058C362.37 63.3873 363.696 63.3215 364.916 63.7211C365.973 64.3701 366.765 65.3674 367.153 66.5372C367.541 67.7071 367.501 68.9746 367.038 70.1167Z" fill="#EF233C"/>
<path d="M109.468 12.1915C109.216 10.9614 108.628 9.82482 107.769 8.90734C106.91 7.98986 105.814 7.32721 104.603 6.99259C103.816 6.88013 103.161 7.12715 102.407 6.81764C101.714 6.43983 101.054 6.00306 100.435 5.51215C97.1505 3.48129 92.0789 3.15857 86.8976 6.25317C80.7481 9.94524 76.9042 16.3596 71.2868 20.7383C59.0956 30.2543 41.7391 33.4927 33.5327 43.5489C33.477 43.6329 33.4414 43.7285 33.4286 43.8284C33.4158 43.9282 33.4261 44.0297 33.4588 44.125C33.4915 44.2203 33.5456 44.3068 33.617 44.3779C33.6885 44.449 33.7753 44.5028 33.8709 44.5351C39.61 45.9332 43.3895 50.9786 45.4141 56.2522C47.914 62.777 48.0632 69.9504 50.0474 76.6224C50.0713 76.7168 50.1159 76.8046 50.178 76.8796C50.2402 76.9546 50.3182 77.0148 50.4066 77.056C50.4949 77.0971 50.5913 77.1181 50.6887 77.1174C50.7862 77.1168 50.8823 77.0944 50.97 77.0521C67.182 70.1112 80.525 58.3025 83.4029 41.0008C84.3279 35.4524 84.4194 29.0816 88.595 24.8394C92.4188 20.9492 98.0917 19.7464 102.12 16.1331C103.105 18.4719 104.644 20.5368 106.606 22.1499C106.416 23.8564 106.227 25.561 105.994 27.2436C105.292 27.2018 103.174 25.5688 101.474 27.6357C101.284 27.8659 101.615 28.2237 101.866 28.0763C103.847 26.9478 104.357 27.9655 105.846 28.2685C105.653 29.6558 105.417 31.0368 105.138 32.4096C104.524 35.3236 103.713 38.6006 101.03 40.3135C99.8053 41.0285 98.432 41.4519 97.0167 41.5507C95.6014 41.6495 94.1823 41.4212 92.8695 40.8834C89.764 39.7095 87.8729 37.3731 85.5806 35.1443C85.183 34.769 84.387 35.2066 84.7292 35.7332C85.9306 37.5653 87.503 39.1257 89.3452 40.3138C91.1873 41.5019 93.2583 42.2913 95.4244 42.6312C95.2749 43.1793 95.1902 43.743 95.172 44.3108C95.1047 44.6808 95.1113 45.0605 95.1915 45.428C95.2716 45.7955 95.4237 46.1437 95.6389 46.4523C95.6903 46.5075 95.755 46.5486 95.8269 46.5716C95.8987 46.5946 95.9752 46.5988 96.0492 46.5838C96.1231 46.5688 96.1919 46.5351 96.249 46.4859C96.3061 46.4367 96.3496 46.3737 96.3753 46.3029C96.5201 45.6724 96.5213 45.0174 96.3787 44.3863C96.3706 43.8062 96.4682 43.2691 96.502 42.6991C98.0513 42.7327 99.5832 42.3687 100.951 41.642C102.27 40.8103 103.394 39.7033 104.244 38.3971C105.094 37.0909 105.651 35.6163 105.877 34.0746C106.815 30.3665 107.301 26.5585 107.324 22.7336C107.366 22.7806 107.43 22.8056 107.472 22.8526C107.553 22.9035 107.644 22.9358 107.739 22.9471C107.834 22.9584 107.93 22.9485 108.02 22.918C108.111 22.8874 108.194 22.8371 108.262 22.7707C108.331 22.7043 108.384 22.6234 108.417 22.5339C109.989 19.3215 110.361 15.6544 109.468 12.1915ZM95.1929 7.15976C93.6942 7.30909 92.2211 7.65079 90.81 8.17641C89.3564 8.90345 88.64 10.1825 87.3957 11.0997C87.0729 11.3221 86.4887 11.156 86.5604 10.6984C87.0306 7.59816 92.4744 5.03891 95.2423 6.32605C95.3305 6.35825 95.406 6.41799 95.4575 6.49642C95.5091 6.57484 95.5339 6.66775 95.5283 6.76137C95.5228 6.85499 95.4871 6.94432 95.4267 7.01609C95.3663 7.08785 95.2843 7.13824 95.1929 7.15976ZM148.121 78.6921C147.944 78.7028 147.745 78.691 147.568 78.7037C139.252 79.0016 128.233 82.7848 120.62 86.129C120.223 86.2987 120.457 87.0217 120.885 86.8713C129.201 84.1736 140 79.6991 148.746 79.962C148.524 79.5456 148.315 79.122 148.121 78.6921ZM200.358 150.711C198.776 144.749 196.985 138.797 195.027 132.935C194.664 133.152 194.261 133.293 193.841 133.349C195.818 139.169 197.535 145.061 199.168 150.971C199.372 151.732 200.56 151.48 200.358 150.711ZM191.81 121.602C191.779 121.546 191.731 121.5 191.672 121.473C191.614 121.446 191.548 121.439 191.485 121.453C191.422 121.467 191.365 121.501 191.323 121.549C191.28 121.598 191.255 121.659 191.251 121.724C191.208 123.196 191.653 124.743 191.758 126.223C191.989 130.038 191.68 133.867 190.842 137.596C190.763 138.351 190.522 139.08 190.135 139.733C188.918 141.091 188.622 138.484 188.404 136.548C188.297 132.055 187.75 127.584 186.772 123.196C186.746 123.111 186.688 123.038 186.611 122.993C186.534 122.948 186.442 122.934 186.355 122.953C186.268 122.972 186.191 123.023 186.14 123.097C186.089 123.17 186.067 123.26 186.08 123.349C186.205 124.305 186.353 125.264 186.459 126.219C182.407 126.519 181.141 123.198 181.83 119.154C182.338 116.168 183.549 113.201 182.361 110.203C182.225 109.886 181.706 110.075 181.768 110.409C182.766 114.389 180.346 118.075 180.723 122.06C180.802 123.552 181.443 124.959 182.519 125.998C183.059 126.489 183.705 126.849 184.407 127.05C185.108 127.252 185.847 127.289 186.565 127.161C186.889 129.763 187.185 132.349 187.319 135.004C187.393 136.372 187.328 141.939 189.962 141.017C191.289 140.567 191.448 138.787 191.662 137.64C192.43 134.019 192.694 130.308 192.447 126.614C192.518 124.92 192.303 123.225 191.81 121.602Z" fill="#191919"/>
<path d="M195.636 119.431C195.581 119.382 195.513 119.348 195.439 119.332C195.365 119.316 195.287 119.32 195.215 119.342C195.144 119.365 195.081 119.405 195.033 119.459C194.985 119.512 194.955 119.577 194.946 119.646C195.038 120.562 195.235 121.467 195.532 122.347C195.724 123.367 195.811 124.4 195.791 125.434C195.821 126.405 195.511 127.357 194.906 128.149C194.302 128.942 193.434 129.535 192.43 129.84C192.365 129.873 192.313 129.923 192.282 129.985C192.25 130.046 192.241 130.116 192.255 130.183C192.27 130.25 192.306 130.311 192.361 130.358C192.415 130.405 192.484 130.436 192.558 130.445C193.597 130.344 194.568 129.934 195.322 129.278C196.077 128.622 196.573 127.756 196.736 126.811C196.956 125.52 196.955 124.204 196.735 122.908C196.712 121.684 196.333 120.483 195.636 119.431ZM199.128 117.911C199.081 117.861 199.019 117.826 198.949 117.808C198.88 117.791 198.807 117.793 198.74 117.815C198.673 117.836 198.614 117.875 198.572 117.927C198.529 117.98 198.505 118.042 198.502 118.108C198.388 119.037 199.27 120.135 199.633 122.633C199.883 124.312 199.69 127.157 197.32 127.422C196.945 127.464 197.007 128.001 197.378 128.023C199.491 128.171 200.436 126.007 200.599 124.418C200.685 123.276 200.581 122.126 200.288 121.008C200.221 119.9 199.82 118.828 199.128 117.911Z" fill="#191919"/>
<path d="M199.053 111.395C196.591 108.136 192.746 106.194 190.619 102.625C190.441 102.334 189.869 102.473 190.005 102.828C191.266 106.343 194.828 108.266 197.277 110.923C198.716 112.502 199.769 114.377 200.355 116.407C200.941 118.437 201.045 120.567 200.66 122.639C200.556 123.282 201.578 123.32 201.703 122.7C202.076 120.743 202.034 118.73 201.579 116.786C201.123 114.842 200.264 113.007 199.053 111.395Z" fill="#191919"/>
<path d="M191.393 101.454C184.396 86.1745 172.588 68.2789 160.436 57.9586C150.212 49.3686 137.846 43.6481 124.631 41.395C106.172 37.8714 104.465 44.2715 96.1127 46.6986C94.0287 47.3046 91.8155 47.3318 89.7152 46.7771C88.6957 46.6167 87.7189 46.2556 86.8426 45.7152C85.9663 45.1747 85.2083 44.466 84.6137 43.6309C84.55 43.52 84.4454 43.4376 84.3219 43.401C84.1983 43.3644 84.0653 43.3764 83.9506 43.4345C83.8359 43.4926 83.7484 43.5923 83.7064 43.7128C83.6643 43.8332 83.671 43.9652 83.725 44.081C85.0246 46.7843 88.5465 47.8901 91.3316 48.2303C98.2819 49.0754 103.483 43.4031 109.508 42.0163C116.271 40.4584 125.645 42.5264 132.267 44.329C140.793 46.6864 148.81 50.5738 155.919 55.7974C169.835 66.0306 182.763 85.4324 190.103 101.335C187.624 102.288 185.423 103.832 183.694 105.83C183.652 105.88 183.619 105.937 183.595 105.998C182.843 106.722 182.114 107.463 181.406 108.208C172.611 100.994 164.325 93.1934 156.606 84.8605C154.306 82.1248 152.207 79.23 150.325 76.1983C150.162 75.9698 149.73 76.1841 149.823 76.4526C152.629 84.793 174.358 103.614 181.215 109.27C181.301 109.331 181.406 109.362 181.513 109.356C181.619 109.351 181.72 109.31 181.799 109.239C182.558 108.386 183.356 107.604 184.157 106.798C184.216 106.755 184.27 106.707 184.319 106.654C184.343 106.634 184.367 106.591 184.392 106.572C185.916 104.825 187.84 103.462 190.003 102.596C190.003 102.601 190.005 102.607 190.008 102.611C190.012 102.615 190.017 102.618 190.023 102.618L191.313 102.106C191.381 102.012 191.423 101.904 191.437 101.79C191.451 101.676 191.436 101.56 191.393 101.454Z" fill="#191919"/>
<path d="M225.226 141.398C224.499 137.793 222.644 130.743 221.689 127.213C221.395 125.667 220.913 124.163 220.253 122.733C220.078 122.414 219.514 122.496 219.536 122.883C219.559 124.267 219.857 125.191 221.731 132.11C222.581 135.28 223.433 138.451 224.469 141.567C224.491 141.667 224.553 141.753 224.64 141.808C224.727 141.863 224.832 141.881 224.933 141.859C225.033 141.836 225.12 141.775 225.175 141.689C225.23 141.602 225.248 141.498 225.226 141.398ZM239.912 141.32C241.433 136.996 242.563 132.546 243.29 128.023C243.663 126.568 243.797 125.062 243.686 123.565C243.641 123.209 243.152 123.248 243.048 123.527C242.27 125.353 242.553 128.602 239.155 141.071C239.133 141.167 239.149 141.268 239.198 141.354C239.247 141.439 239.326 141.504 239.42 141.535C239.515 141.566 239.617 141.561 239.708 141.522C239.799 141.482 239.872 141.41 239.912 141.32ZM254.02 146.187C258.687 142.387 263.071 138.256 267.136 133.825C267.468 133.428 266.836 132.885 266.462 133.235C264.286 135.283 262.233 137.446 260.098 139.516C257.963 141.585 255.764 143.608 253.584 145.685C253.531 145.745 253.502 145.823 253.502 145.904C253.502 145.984 253.531 146.062 253.584 146.123C253.637 146.184 253.71 146.224 253.79 146.236C253.87 146.247 253.952 146.23 254.02 146.187ZM135.137 157.511C133.406 153.551 130.505 147.692 129.241 145.052C128.684 143.688 127.98 142.387 127.143 141.171C127.089 141.114 127.019 141.076 126.942 141.063C126.864 141.05 126.785 141.062 126.715 141.097C126.646 141.133 126.59 141.19 126.555 141.26C126.521 141.33 126.511 141.409 126.527 141.486C126.959 142.892 127.546 144.246 128.278 145.524C128.949 146.882 132.992 155.143 134.423 157.864C134.471 157.958 134.553 158.029 134.654 158.063C134.754 158.096 134.863 158.089 134.958 158.042C135.053 157.995 135.125 157.913 135.158 157.813C135.192 157.714 135.184 157.605 135.137 157.511ZM144.211 157.369C145.192 153.168 145.878 148.288 146.51 143.971C146.819 142.522 146.945 141.039 146.882 139.558C146.838 139.17 146.285 139.193 146.155 139.515C145.759 140.883 145.526 142.293 145.464 143.716C145.264 145.22 144.019 154.265 143.641 157.276C143.556 157.595 144.131 157.718 144.211 157.369ZM153.139 161.921C154.975 160.119 156.677 158.199 158.384 156.278C160.168 154.566 161.796 152.7 163.247 150.701C163.29 150.624 163.305 150.535 163.289 150.449C163.274 150.363 163.23 150.284 163.164 150.226C163.097 150.168 163.013 150.135 162.925 150.131C162.837 150.127 162.75 150.153 162.679 150.204C161.709 151.044 160.818 151.969 160.016 152.969C157.629 155.658 154.943 158.568 152.593 161.449C152.353 161.762 152.861 162.193 153.139 161.921Z" fill="#EF233C"/>
</g>
<path d="M79.6058 289L79.7018 287.592C80.4378 287.928 81.5898 288.232 82.8218 288.232C84.5498 288.232 85.4778 287.528 85.4778 286.312C85.4778 285.032 84.5658 284.52 83.0298 284.152C80.6618 283.592 79.6058 282.744 79.6058 280.888C79.6058 279.112 80.8058 277.752 83.3498 277.752C84.7418 277.752 85.4618 277.96 86.4058 278.328L86.3098 279.864C85.3338 279.544 84.5178 279.352 83.3818 279.352C81.8298 279.352 81.0938 280.072 81.0938 280.968C81.0938 281.848 81.6218 282.344 83.4458 282.808C85.6698 283.352 86.9818 284.12 86.9818 286.216C86.9818 288.136 85.8138 289.624 82.8858 289.624C81.3818 289.624 80.5178 289.352 79.6058 289ZM95.3296 289.176C94.5936 289.496 93.7456 289.624 92.8656 289.624C90.0336 289.624 88.3056 287.96 88.3056 285.256C88.3056 282.824 89.8256 280.984 92.2256 280.984C94.7696 280.984 95.9056 283.096 95.9056 285C95.9056 285.256 95.8896 285.56 95.8576 285.736H89.8256C90.0016 287.336 91.1536 288.408 93.0576 288.408C93.8576 288.408 94.5776 288.28 95.2016 288.008L95.3296 289.176ZM92.2096 282.376C90.9776 282.376 89.9696 283.176 89.7936 284.76H94.5616C94.4496 283.448 93.6016 282.376 92.2096 282.376ZM104.267 289.176C103.531 289.496 102.683 289.624 101.803 289.624C98.9711 289.624 97.2431 287.96 97.2431 285.256C97.2431 282.824 98.7631 280.984 101.163 280.984C103.707 280.984 104.843 283.096 104.843 285C104.843 285.256 104.827 285.56 104.795 285.736H98.7631C98.9391 287.336 100.091 288.408 101.995 288.408C102.795 288.408 103.515 288.28 104.139 288.008L104.267 289.176ZM101.147 282.376C99.9151 282.376 98.9071 283.176 98.7311 284.76H103.499C103.387 283.448 102.539 282.376 101.147 282.376ZM108.213 285.176V289.448H106.805V281.16H108.197V282.552H108.245C108.693 281.608 109.573 280.984 110.853 280.984C112.437 280.984 113.365 281.752 113.765 282.92C114.421 281.464 115.477 280.984 116.661 280.984C118.885 280.984 119.813 282.488 119.813 284.504V289.448H118.405V285.064C118.405 283.592 117.813 282.504 116.261 282.504C114.757 282.504 114.021 283.544 114.021 285.176V289.448H112.613V285.064C112.613 283.592 112.021 282.504 110.469 282.504C108.949 282.504 108.213 283.544 108.213 285.176ZM121.522 281.16C121.826 279.96 122.114 278.584 122.226 277.288H123.858C123.554 278.584 123.106 279.928 122.562 281.16H121.522ZM124.964 289.128L125.076 287.96C125.732 288.216 126.596 288.408 127.572 288.408C128.756 288.408 129.588 288.072 129.588 287.224C129.588 286.52 129.124 286.184 127.572 285.8C125.924 285.4 125.044 284.824 125.044 283.416C125.044 281.976 126.212 280.984 128.212 280.984C129.236 280.984 129.988 281.208 130.532 281.432L130.42 282.872C129.844 282.664 129.124 282.488 128.212 282.488C127.108 282.488 126.436 282.76 126.436 283.48C126.436 284.136 126.9 284.424 128.276 284.712C130.052 285.096 130.948 285.704 130.948 287.16C130.948 288.68 129.828 289.624 127.636 289.624C126.516 289.624 125.684 289.416 124.964 289.128ZM136.68 289.448V277.288H138.088V289.448H136.68ZM141.446 279.768C140.854 279.768 140.454 279.384 140.454 278.792C140.454 278.2 140.854 277.816 141.446 277.816C142.038 277.816 142.438 278.2 142.438 278.792C142.438 279.384 142.022 279.768 141.446 279.768ZM140.742 289.448V281.16H142.15V289.448H140.742ZM149.653 289.448L146.213 285.768V289.448H144.805V277.288H146.213V284.696L149.253 281.16H151.077L147.413 285.176L151.429 289.448H149.653ZM158.783 289.176C158.047 289.496 157.199 289.624 156.319 289.624C153.487 289.624 151.759 287.96 151.759 285.256C151.759 282.824 153.279 280.984 155.679 280.984C158.223 280.984 159.359 283.096 159.359 285C159.359 285.256 159.343 285.56 159.311 285.736H153.279C153.455 287.336 154.607 288.408 156.511 288.408C157.311 288.408 158.031 288.28 158.655 288.008L158.783 289.176ZM155.663 282.376C154.431 282.376 153.423 283.176 153.247 284.76H158.015C157.903 283.448 157.055 282.376 155.663 282.376ZM166.044 292.664C165.548 292.664 165.116 292.6 164.812 292.488L164.94 291.288C165.18 291.368 165.452 291.416 165.788 291.416C166.62 291.416 166.94 291.08 167.292 290.2L167.548 289.528L164.076 281.16H165.804L168.332 288.12L170.716 281.16H172.316L168.748 290.168C168.188 291.624 167.708 292.664 166.044 292.664ZM173.118 285.304C173.118 282.744 174.814 280.984 177.294 280.984C179.79 280.984 181.486 282.744 181.486 285.288C181.486 287.768 179.79 289.624 177.294 289.624C174.83 289.624 173.118 287.768 173.118 285.304ZM177.294 288.312C178.958 288.312 180.03 287.112 180.03 285.352C180.03 283.656 178.814 282.488 177.294 282.488C175.694 282.488 174.59 283.656 174.59 285.352C174.59 287.112 175.662 288.312 177.294 288.312ZM190.675 281.16V289.448H189.283V288.088H189.235C188.787 289.016 187.923 289.624 186.643 289.624C184.419 289.624 183.459 288.12 183.459 286.104V281.16H184.867V285.784C184.867 287.24 185.475 288.312 187.011 288.312C188.515 288.312 189.267 287.176 189.267 285.64V281.16H190.675ZM196.667 289.128L196.779 287.96C197.435 288.216 198.299 288.408 199.275 288.408C200.459 288.408 201.291 288.072 201.291 287.224C201.291 286.52 200.827 286.184 199.275 285.8C197.627 285.4 196.747 284.824 196.747 283.416C196.747 281.976 197.915 280.984 199.915 280.984C200.939 280.984 201.691 281.208 202.235 281.432L202.123 282.872C201.547 282.664 200.827 282.488 199.915 282.488C198.811 282.488 198.139 282.76 198.139 283.48C198.139 284.136 198.603 284.424 199.979 284.712C201.755 285.096 202.651 285.704 202.651 287.16C202.651 288.68 201.531 289.624 199.339 289.624C198.219 289.624 197.387 289.416 196.667 289.128ZM204.955 286.936V282.568H203.499V281.16H205.035L205.211 278.952H206.363V281.16H208.779V282.568H206.363V286.856C206.363 287.944 206.939 288.312 207.739 288.312C208.155 288.312 208.475 288.248 208.795 288.152L208.907 289.416C208.571 289.56 208.027 289.624 207.515 289.624C205.723 289.624 204.955 288.648 204.955 286.936ZM211.43 279.768C210.838 279.768 210.438 279.384 210.438 278.792C210.438 278.2 210.838 277.816 211.43 277.816C212.022 277.816 212.422 278.2 212.422 278.792C212.422 279.384 212.006 279.768 211.43 279.768ZM210.726 289.448V281.16H212.134V289.448H210.726ZM214.789 289.448V277.288H216.197V289.448H214.789ZM218.851 289.448V277.288H220.259V289.448H218.851ZM234.613 277.288V289.448H233.221V287.88H233.173C232.581 288.968 231.525 289.624 230.133 289.624C227.797 289.624 226.149 287.88 226.149 285.288C226.149 282.744 227.861 280.984 230.149 280.984C231.525 280.984 232.613 281.608 233.157 282.696H233.205V277.288H234.613ZM230.357 282.488C228.805 282.488 227.621 283.672 227.621 285.352C227.621 287.144 228.789 288.312 230.357 288.312C231.957 288.312 233.173 287.096 233.173 285.352C233.173 283.656 231.957 282.488 230.357 282.488ZM237.977 279.768C237.385 279.768 236.985 279.384 236.985 278.792C236.985 278.2 237.385 277.816 237.977 277.816C238.569 277.816 238.969 278.2 238.969 278.792C238.969 279.384 238.553 279.768 237.977 279.768ZM237.273 289.448V281.16H238.681V289.448H237.273ZM249.176 277.288V289.448H247.784V287.88H247.736C247.144 288.968 246.088 289.624 244.696 289.624C242.36 289.624 240.712 287.88 240.712 285.288C240.712 282.744 242.424 280.984 244.712 280.984C246.088 280.984 247.176 281.608 247.72 282.696H247.768V277.288H249.176ZM244.92 282.488C243.368 282.488 242.184 283.672 242.184 285.352C242.184 287.144 243.352 288.312 244.92 288.312C246.52 288.312 247.736 287.096 247.736 285.352C247.736 283.656 246.52 282.488 244.92 282.488ZM251.836 289.448V281.16H253.228V282.552H253.276C253.74 281.608 254.636 280.984 255.948 280.984C258.236 280.984 259.148 282.488 259.148 284.504V289.448H257.756V285.064C257.756 283.592 257.132 282.504 255.548 282.504C254.012 282.504 253.244 283.544 253.244 285.176V289.448H251.836ZM260.866 281.16C261.17 279.96 261.458 278.584 261.57 277.288H263.202C262.898 278.584 262.45 279.928 261.906 281.16H260.866ZM265.315 286.936V282.568H263.859V281.16H265.395L265.571 278.952H266.723V281.16H269.139V282.568H266.723V286.856C266.723 287.944 267.299 288.312 268.099 288.312C268.515 288.312 268.835 288.248 269.155 288.152L269.267 289.416C268.931 289.56 268.387 289.624 267.875 289.624C266.083 289.624 265.315 288.648 265.315 286.936ZM279.649 283.848C279.649 283.048 279.073 282.488 277.681 282.488C276.657 282.488 275.729 282.776 275.073 283.096L274.945 281.656C275.681 281.256 276.689 280.984 277.825 280.984C280.225 280.984 281.137 282.168 281.137 283.992V289.448H279.713V288.152C279.121 288.968 278.321 289.624 276.929 289.624C275.489 289.624 274.417 288.856 274.417 287.448C274.417 285.816 275.505 285.224 277.649 284.872C278.433 284.744 278.977 284.6 279.361 284.408C279.617 284.296 279.649 284.136 279.649 283.848ZM279.713 285.24C279.329 285.464 278.625 285.672 277.793 285.816C276.513 286.04 275.873 286.376 275.873 287.32C275.873 288.168 276.577 288.584 277.441 288.584C278.577 288.584 279.393 287.832 279.713 287.032V285.24ZM291.551 277.288V289.448H290.159V287.88H290.111C289.519 288.968 288.463 289.624 287.071 289.624C284.735 289.624 283.087 287.88 283.087 285.288C283.087 282.744 284.799 280.984 287.087 280.984C288.463 280.984 289.551 281.608 290.095 282.696H290.143V277.288H291.551ZM287.295 282.488C285.743 282.488 284.559 283.672 284.559 285.352C284.559 287.144 285.727 288.312 287.295 288.312C288.895 288.312 290.111 287.096 290.111 285.352C290.111 283.656 288.895 282.488 287.295 282.488ZM302.051 277.288V289.448H300.659V287.88H300.611C300.019 288.968 298.963 289.624 297.571 289.624C295.235 289.624 293.587 287.88 293.587 285.288C293.587 282.744 295.299 280.984 297.587 280.984C298.963 280.984 300.051 281.608 300.595 282.696H300.643V277.288H302.051ZM297.795 282.488C296.243 282.488 295.059 283.672 295.059 285.352C295.059 287.144 296.227 288.312 297.795 288.312C299.395 288.312 300.611 287.096 300.611 285.352C300.611 283.656 299.395 282.488 297.795 282.488ZM69.7039 307.848C69.7039 307.048 69.1279 306.488 67.7359 306.488C66.7119 306.488 65.7839 306.776 65.1279 307.096L64.9999 305.656C65.7359 305.256 66.7439 304.984 67.8799 304.984C70.2799 304.984 71.1919 306.168 71.1919 307.992V313.448H69.7679V312.152C69.1759 312.968 68.3759 313.624 66.9839 313.624C65.5439 313.624 64.4719 312.856 64.4719 311.448C64.4719 309.816 65.5599 309.224 67.7039 308.872C68.4879 308.744 69.0319 308.6 69.4159 308.408C69.6719 308.296 69.7039 308.136 69.7039 307.848ZM69.7679 309.24C69.3839 309.464 68.6799 309.672 67.8479 309.816C66.5679 310.04 65.9279 310.376 65.9279 311.32C65.9279 312.168 66.6319 312.584 67.4959 312.584C68.6319 312.584 69.4479 311.832 69.7679 311.032V309.24ZM73.4218 313.448V305.16H74.8138V306.552H74.8618C75.3258 305.608 76.2218 304.984 77.5338 304.984C79.8218 304.984 80.7338 306.488 80.7338 308.504V313.448H79.3418V309.064C79.3418 307.592 78.7178 306.504 77.1338 306.504C75.5978 306.504 74.8298 307.544 74.8298 309.176V313.448H73.4218ZM84.0045 316.664C83.5085 316.664 83.0765 316.6 82.7725 316.488L82.9005 315.288C83.1405 315.368 83.4125 315.416 83.7485 315.416C84.5805 315.416 84.9005 315.08 85.2525 314.2L85.5085 313.528L82.0365 305.16H83.7645L86.2925 312.12L88.6765 305.16H90.2765L86.7085 314.168C86.1485 315.624 85.6685 316.664 84.0045 316.664ZM95.703 313.448V305.16H97.095V306.552H97.143C97.607 305.608 98.503 304.984 99.815 304.984C102.103 304.984 103.015 306.488 103.015 308.504V313.448H101.623V309.064C101.623 307.592 100.999 306.504 99.415 306.504C97.879 306.504 97.111 307.544 97.111 309.176V313.448H95.703ZM111.994 313.176C111.258 313.496 110.41 313.624 109.53 313.624C106.698 313.624 104.97 311.96 104.97 309.256C104.97 306.824 106.49 304.984 108.89 304.984C111.434 304.984 112.57 307.096 112.57 309C112.57 309.256 112.554 309.56 112.522 309.736H106.49C106.666 311.336 107.818 312.408 109.722 312.408C110.522 312.408 111.242 312.28 111.866 312.008L111.994 313.176ZM108.874 306.376C107.642 306.376 106.634 307.176 106.458 308.76H111.226C111.114 307.448 110.266 306.376 108.874 306.376ZM122.339 313.448L119.955 306.888L117.779 313.448H116.163L113.427 305.16H115.059L117.123 311.976L119.235 305.16H120.787L123.107 312.008L124.995 305.16H126.547L123.971 313.448H122.339ZM131.425 313.128L131.537 311.96C132.193 312.216 133.057 312.408 134.033 312.408C135.217 312.408 136.049 312.072 136.049 311.224C136.049 310.52 135.585 310.184 134.033 309.8C132.385 309.4 131.505 308.824 131.505 307.416C131.505 305.976 132.673 304.984 134.673 304.984C135.697 304.984 136.449 305.208 136.993 305.432L136.881 306.872C136.305 306.664 135.585 306.488 134.673 306.488C133.569 306.488 132.897 306.76 132.897 307.48C132.897 308.136 133.361 308.424 134.737 308.712C136.513 309.096 137.409 309.704 137.409 311.16C137.409 312.68 136.289 313.624 134.097 313.624C132.977 313.624 132.145 313.416 131.425 313.128ZM139.281 313.448V305.16H140.673V306.552H140.721C141.185 305.608 142.081 304.984 143.393 304.984C145.681 304.984 146.593 306.488 146.593 308.504V313.448H145.201V309.064C145.201 307.592 144.577 306.504 142.993 306.504C141.457 306.504 140.689 307.544 140.689 309.176V313.448H139.281ZM155.572 313.176C154.836 313.496 153.988 313.624 153.108 313.624C150.276 313.624 148.548 311.96 148.548 309.256C148.548 306.824 150.068 304.984 152.468 304.984C155.012 304.984 156.148 307.096 156.148 309C156.148 309.256 156.132 309.56 156.1 309.736H150.068C150.244 311.336 151.396 312.408 153.3 312.408C154.1 312.408 154.82 312.28 155.444 312.008L155.572 313.176ZM152.452 306.376C151.22 306.376 150.212 307.176 150.036 308.76H154.804C154.692 307.448 153.844 306.376 152.452 306.376ZM162.688 307.848C162.688 307.048 162.112 306.488 160.72 306.488C159.696 306.488 158.768 306.776 158.112 307.096L157.984 305.656C158.72 305.256 159.728 304.984 160.864 304.984C163.264 304.984 164.176 306.168 164.176 307.992V313.448H162.752V312.152C162.16 312.968 161.36 313.624 159.968 313.624C158.528 313.624 157.456 312.856 157.456 311.448C157.456 309.816 158.544 309.224 160.688 308.872C161.472 308.744 162.016 308.6 162.4 308.408C162.656 308.296 162.688 308.136 162.688 307.848ZM162.752 309.24C162.368 309.464 161.664 309.672 160.832 309.816C159.552 310.04 158.912 310.376 158.912 311.32C158.912 312.168 159.616 312.584 160.48 312.584C161.616 312.584 162.432 311.832 162.752 311.032V309.24ZM171.598 313.448L168.158 309.768V313.448H166.75V301.288H168.158V308.696L171.198 305.16H173.022L169.358 309.176L173.374 313.448H171.598ZM180.728 313.176C179.992 313.496 179.144 313.624 178.264 313.624C175.432 313.624 173.704 311.96 173.704 309.256C173.704 306.824 175.224 304.984 177.624 304.984C180.168 304.984 181.304 307.096 181.304 309C181.304 309.256 181.288 309.56 181.256 309.736H175.224C175.4 311.336 176.552 312.408 178.456 312.408C179.256 312.408 179.976 312.28 180.6 312.008L180.728 313.176ZM177.608 306.376C176.376 306.376 175.368 307.176 175.192 308.76H179.96C179.848 307.448 179 306.376 177.608 306.376ZM183.266 313.448V305.16H184.642V306.552H184.69C185.138 305.544 186.114 304.984 187.538 304.984L187.474 306.616C185.442 306.584 184.674 307.608 184.674 309.432V313.448H183.266ZM193.651 310.936V306.568H192.195V305.16H193.731L193.907 302.952H195.059V305.16H197.475V306.568H195.059V310.856C195.059 311.944 195.635 312.312 196.435 312.312C196.851 312.312 197.171 312.248 197.491 312.152L197.603 313.416C197.267 313.56 196.723 313.624 196.211 313.624C194.419 313.624 193.651 312.648 193.651 310.936ZM198.579 309.304C198.579 306.744 200.275 304.984 202.755 304.984C205.251 304.984 206.947 306.744 206.947 309.288C206.947 311.768 205.251 313.624 202.755 313.624C200.291 313.624 198.579 311.768 198.579 309.304ZM202.755 312.312C204.419 312.312 205.491 311.112 205.491 309.352C205.491 307.656 204.275 306.488 202.755 306.488C201.155 306.488 200.051 307.656 200.051 309.352C200.051 311.112 201.123 312.312 202.755 312.312ZM213.723 316.664C213.227 316.664 212.795 316.6 212.491 316.488L212.619 315.288C212.859 315.368 213.131 315.416 213.467 315.416C214.299 315.416 214.619 315.08 214.971 314.2L215.227 313.528L211.755 305.16H213.483L216.011 312.12L218.395 305.16H219.995L216.427 314.168C215.867 315.624 215.387 316.664 213.723 316.664ZM220.798 309.304C220.798 306.744 222.494 304.984 224.974 304.984C227.47 304.984 229.166 306.744 229.166 309.288C229.166 311.768 227.47 313.624 224.974 313.624C222.51 313.624 220.798 311.768 220.798 309.304ZM224.974 312.312C226.638 312.312 227.71 311.112 227.71 309.352C227.71 307.656 226.494 306.488 224.974 306.488C223.374 306.488 222.27 307.656 222.27 309.352C222.27 311.112 223.342 312.312 224.974 312.312ZM238.355 305.16V313.448H236.963V312.088H236.915C236.467 313.016 235.603 313.624 234.323 313.624C232.099 313.624 231.139 312.12 231.139 310.104V305.16H232.547V309.784C232.547 311.24 233.155 312.312 234.691 312.312C236.195 312.312 236.947 311.176 236.947 309.64V305.16H238.355ZM241.016 313.448V305.16H242.392V306.552H242.44C242.888 305.544 243.864 304.984 245.288 304.984L245.224 306.616C243.192 306.584 242.424 307.608 242.424 309.432V313.448H241.016ZM256.873 311.864L256.985 313.128C256.393 313.432 255.609 313.624 254.761 313.624C252.121 313.624 250.345 311.928 250.345 309.256C250.345 306.776 251.945 304.984 254.649 304.984C255.609 304.984 256.345 305.192 256.937 305.48L256.809 306.92C256.281 306.648 255.577 306.488 254.777 306.488C252.969 306.488 251.817 307.688 251.817 309.32C251.817 311.144 253.033 312.312 254.841 312.312C255.577 312.312 256.281 312.152 256.873 311.864ZM258.173 309.304C258.173 306.744 259.869 304.984 262.349 304.984C264.845 304.984 266.541 306.744 266.541 309.288C266.541 311.768 264.845 313.624 262.349 313.624C259.885 313.624 258.173 311.768 258.173 309.304ZM262.349 312.312C264.013 312.312 265.085 311.112 265.085 309.352C265.085 307.656 263.869 306.488 262.349 306.488C260.749 306.488 259.645 307.656 259.645 309.352C259.645 311.112 260.717 312.312 262.349 312.312ZM268.594 313.448V301.288H270.002V313.448H268.594ZM272.656 313.448V301.288H274.064V313.448H272.656ZM283.119 313.176C282.383 313.496 281.535 313.624 280.655 313.624C277.823 313.624 276.095 311.96 276.095 309.256C276.095 306.824 277.615 304.984 280.015 304.984C282.559 304.984 283.695 307.096 283.695 309C283.695 309.256 283.679 309.56 283.647 309.736H277.615C277.791 311.336 278.943 312.408 280.847 312.408C281.647 312.408 282.367 312.28 282.991 312.008L283.119 313.176ZM279.999 306.376C278.767 306.376 277.759 307.176 277.583 308.76H282.351C282.239 307.448 281.391 306.376 279.999 306.376ZM291.56 311.864L291.672 313.128C291.08 313.432 290.296 313.624 289.448 313.624C286.808 313.624 285.032 311.928 285.032 309.256C285.032 306.776 286.632 304.984 289.336 304.984C290.296 304.984 291.032 305.192 291.624 305.48L291.496 306.92C290.968 306.648 290.264 306.488 289.464 306.488C287.656 306.488 286.504 307.688 286.504 309.32C286.504 311.144 287.72 312.312 289.528 312.312C290.264 312.312 290.968 312.152 291.56 311.864ZM294.135 310.936V306.568H292.679V305.16H294.215L294.391 302.952H295.543V305.16H297.959V306.568H295.543V310.856C295.543 311.944 296.119 312.312 296.919 312.312C297.335 312.312 297.655 312.248 297.975 312.152L298.087 313.416C297.751 313.56 297.207 313.624 296.695 313.624C294.903 313.624 294.135 312.648 294.135 310.936ZM300.61 303.768C300.018 303.768 299.618 303.384 299.618 302.792C299.618 302.2 300.018 301.816 300.61 301.816C301.202 301.816 301.602 302.2 301.602 302.792C301.602 303.384 301.186 303.768 300.61 303.768ZM299.906 313.448V305.16H301.314V313.448H299.906ZM303.345 309.304C303.345 306.744 305.041 304.984 307.521 304.984C310.017 304.984 311.713 306.744 311.713 309.288C311.713 311.768 310.017 313.624 307.521 313.624C305.057 313.624 303.345 311.768 303.345 309.304ZM307.521 312.312C309.185 312.312 310.257 311.112 310.257 309.352C310.257 307.656 309.041 306.488 307.521 306.488C305.921 306.488 304.817 307.656 304.817 309.352C304.817 311.112 305.889 312.312 307.521 312.312ZM313.766 313.448V305.16H315.158V306.552H315.206C315.67 305.608 316.566 304.984 317.878 304.984C320.166 304.984 321.078 306.488 321.078 308.504V313.448H319.686V309.064C319.686 307.592 319.062 306.504 317.478 306.504C315.942 306.504 315.174 307.544 315.174 309.176V313.448H313.766Z" fill="#191919"/>
<defs>
<clipPath id="clip0_42_459">
<rect width="386" height="223" fill="white" transform="translate(0 0.448242)"/>
</clipPath>
</defs>
</svg>
