<svg width="24" height="25" viewBox="0 0 24 25" fill="none" xmlns="http://www.w3.org/2000/svg">
<path fill-rule="evenodd" clip-rule="evenodd" d="M2 6.44824C2 5.89596 2.44772 5.44824 3 5.44824H21C21.5523 5.44824 22 5.89596 22 6.44824C22 7.00053 21.5523 7.44824 21 7.44824H3C2.44772 7.44824 2 7.00053 2 6.44824Z" fill="#191919"/>
<path fill-rule="evenodd" clip-rule="evenodd" d="M10 3.44824C9.73478 3.44824 9.48043 3.5536 9.29289 3.74114C9.10536 3.92867 9 4.18303 9 4.44824V6.44824C9 7.00053 8.55228 7.44824 8 7.44824C7.44772 7.44824 7 7.00053 7 6.44824V4.44824C7 3.65259 7.31607 2.88953 7.87868 2.32692C8.44129 1.76431 9.20435 1.44824 10 1.44824H14C14.7956 1.44824 15.5587 1.76431 16.1213 2.32692C16.6839 2.88953 17 3.65259 17 4.44824V6.44824C17 7.00053 16.5523 7.44824 16 7.44824C15.4477 7.44824 15 7.00053 15 6.44824V4.44824C15 4.18303 14.8946 3.92867 14.7071 3.74114C14.5196 3.5536 14.2652 3.44824 14 3.44824H10ZM5 5.44824C5.55228 5.44824 6 5.89596 6 6.44824V20.4482C6 20.7135 6.10536 20.9678 6.29289 21.1553C6.48043 21.3429 6.73478 21.4482 7 21.4482H17C17.2652 21.4482 17.5196 21.3429 17.7071 21.1553C17.8946 20.9678 18 20.7135 18 20.4482V6.44824C18 5.89596 18.4477 5.44824 19 5.44824C19.5523 5.44824 20 5.89596 20 6.44824V20.4482C20 21.2439 19.6839 22.007 19.1213 22.5696C18.5587 23.1322 17.7957 23.4482 17 23.4482H7C6.20435 23.4482 5.44129 23.1322 4.87868 22.5696C4.31607 22.007 4 21.2439 4 20.4482V6.44824C4 5.89596 4.44772 5.44824 5 5.44824Z" fill="#191919"/>
<path fill-rule="evenodd" clip-rule="evenodd" d="M10 10.4482C10.5523 10.4482 11 10.896 11 11.4482V17.4482C11 18.0005 10.5523 18.4482 10 18.4482C9.44772 18.4482 9 18.0005 9 17.4482V11.4482C9 10.896 9.44772 10.4482 10 10.4482Z" fill="#191919"/>
<path fill-rule="evenodd" clip-rule="evenodd" d="M14 10.4482C14.5523 10.4482 15 10.896 15 11.4482V17.4482C15 18.0005 14.5523 18.4482 14 18.4482C13.4477 18.4482 13 18.0005 13 17.4482V11.4482C13 10.896 13.4477 10.4482 14 10.4482Z" fill="#191919"/>
</svg>
