<svg width="100%" height="100%" viewBox="0 0 646 676" fill="none" xmlns="http://www.w3.org/2000/svg">
<path d="M308.344 114.659C313.263 107.354 325.005 110.087 332.499 103.545C333.624 102.578 334.527 101.38 335.147 100.032C335.41 99.0678 334.861 97.5379 333.837 97.8446C331.794 98.4545 332.352 100.23 328.784 102.41C322.081 106.472 313.294 105.095 307.476 110.867C302.611 115.699 302.794 123.048 299.196 128.282C298.957 128.667 298.738 129.065 298.542 129.474C298.049 130.391 299.07 131.563 300.027 130.96C304.623 128.071 304.888 119.794 308.344 114.659ZM359.776 89.8886C357.631 92.9381 354.294 100.236 346.77 104.216C345.197 105.026 343.531 105.641 341.81 106.049C341.455 106.152 341.149 106.38 340.947 106.69C340.746 107 340.662 107.372 340.712 107.738C340.761 108.105 340.94 108.441 341.217 108.687C341.494 108.932 341.849 109.07 342.219 109.075C350.287 108.349 359.769 98.4238 361.832 90.7506C361.893 90.4901 361.86 90.2164 361.738 89.9781C361.617 89.7397 361.415 89.5522 361.168 89.4489C360.922 89.3455 360.646 89.3329 360.391 89.4134C360.137 89.4939 359.918 89.6623 359.776 89.8886ZM351.748 122.391C351.999 122.529 352.285 122.591 352.571 122.569C352.857 122.547 353.131 122.443 353.358 122.267C353.585 122.092 353.756 121.855 353.851 121.584C353.945 121.313 353.959 121.02 353.889 120.741C353.018 117.832 347.955 115.532 344.925 114.813C338.517 113.663 331.91 114.521 326.006 117.269C325.875 117.306 325.752 117.367 325.645 117.451C325.538 117.535 325.448 117.639 325.381 117.758C325.313 117.876 325.27 118.007 325.253 118.142C325.237 118.277 325.247 118.414 325.283 118.545C325.319 118.677 325.381 118.8 325.464 118.907C325.548 119.015 325.652 119.105 325.771 119.172C325.889 119.239 326.019 119.282 326.154 119.299C326.29 119.316 326.427 119.306 326.558 119.27C327.579 119.116 328.601 119.011 329.584 118.837C330.568 118.663 331.566 118.39 332.557 118.2C346.682 115.464 349.712 121.355 351.748 122.391ZM353.409 127.311C347.622 122.254 340.564 123.024 331.91 124.118C331.746 124.109 331.583 124.134 331.429 124.191C331.276 124.247 331.135 124.335 331.016 124.447C330.898 124.56 330.803 124.696 330.738 124.846C330.674 124.997 330.641 125.159 330.641 125.323C330.641 125.486 330.674 125.648 330.738 125.799C330.803 125.949 330.898 126.085 331.016 126.198C331.135 126.311 331.276 126.398 331.429 126.454C331.583 126.511 331.746 126.536 331.91 126.527C342.753 126.99 346.76 124.646 352.626 132.02C354.751 134.687 358.673 131.917 353.409 127.311ZM404.174 94.4032C403.848 92.579 403.151 90.8414 402.126 89.298C401.101 87.7547 399.77 86.4388 398.216 85.4319C397.052 84.6993 395.932 86.3109 396.796 87.2718C400.78 91.7012 401.563 99.6811 401.331 105.48C401.246 107.562 400.65 110.547 402.57 110.591C406.557 110.659 405.096 98.0252 404.174 94.4032ZM413.305 97.6844C413.175 97.4807 412.984 97.3237 412.759 97.2364C412.534 97.1491 412.288 97.1361 412.055 97.1993C411.822 97.2625 411.616 97.3986 411.466 97.5876C411.316 97.7767 411.23 98.0088 411.221 98.25C411.182 99.7726 411.304 101.295 411.585 102.792C412.266 111.31 410.04 114.639 410.905 116.578C411.078 116.871 411.359 117.083 411.688 117.169C412.017 117.256 412.367 117.208 412.661 117.038C415.494 115.232 415.804 101.054 413.305 97.6844ZM175.932 280.318C176.46 283.582 176.16 284.407 176.644 285.173C177.546 286.611 178.901 286.536 179.521 285.551C181.087 283.078 177.641 266.488 169.668 258.222C168.782 257.374 167.834 256.594 166.832 255.888C165.977 255.237 164.789 256.501 165.368 257.353C170.955 265.643 174.318 270.372 175.932 280.318ZM187.164 273.289C188.771 280.051 189.58 286.979 189.574 293.93C189.618 295.903 189.479 296.005 190.561 297.31C190.736 297.485 190.973 297.583 191.22 297.583C191.467 297.583 191.704 297.485 191.879 297.31C193.023 296.1 193.04 295.852 192.938 291.398C192.434 270.021 184.086 249.983 175.575 240.575C174.768 239.683 173.467 240.817 173.978 241.809C178.881 251.346 183.647 258.47 187.164 273.289ZM391.213 347.639C394.668 348.385 638.234 391.508 641.924 391.623C643.562 391.675 641.403 391.467 642.064 391.623C642.617 391.698 643.175 391.726 643.732 391.709C644.259 391.804 644.801 391.753 645.302 391.562L644.525 391.664C646.187 391.974 646.456 390.012 645.274 389.777C645.101 389.743 644.808 389.545 645.659 390.196C642.745 388.811 639.651 387.847 636.467 387.33C630.679 385.967 394.699 346.051 391.815 345.455C390.392 345.152 389.78 347.332 391.213 347.639ZM437.02 456.038C438.825 456.205 621.674 493.494 623.342 492.547L622.546 492.656C622.801 492.751 623.083 492.74 623.331 492.627C623.578 492.514 623.77 492.306 623.865 492.051C623.96 491.796 623.949 491.513 623.836 491.266C623.723 491.018 623.516 490.826 623.261 490.731C614.559 487.876 438.593 454.556 437.034 454.474C435.996 454.423 436.04 455.949 437.02 456.038ZM396.047 419.171C397.681 412.622 397.668 406.476 400.245 391.037C400.468 390.306 400.488 389.527 400.303 388.785C399.561 386.887 397.021 386.928 396.609 389.698C395.101 399.801 394.396 406.636 393.991 412.149C393.66 414.385 393.669 416.658 394.018 418.892C394.113 419.999 395.748 420.374 396.047 419.171ZM414.867 423.383C416.13 422.084 417.465 420.851 418.697 419.529C433.613 403.556 433.531 404.298 434.399 403.038C434.589 402.694 434.662 402.297 434.607 401.907C434.553 401.518 434.373 401.157 434.095 400.879C433.817 400.601 433.456 400.421 433.067 400.366C432.678 400.311 432.281 400.384 431.938 400.574C425.047 407.16 418.803 414.392 413.291 422.17C412.641 423.093 414.084 424.166 414.867 423.383ZM425.469 440.3C426.381 440.328 427.292 440.201 428.162 439.925C430.708 439.162 433.305 438.585 435.934 438.197C452.082 435.165 452.518 435.53 452.909 433.966C453 433.597 452.969 433.208 452.822 432.858C452.675 432.508 452.419 432.214 452.092 432.02C451.386 431.721 450.595 431.698 449.873 431.955C438.158 434.204 434.328 434.818 430.126 436.078C425.251 437.547 425.615 438.071 424.628 438.852C424.492 438.987 424.405 439.163 424.38 439.353C424.355 439.542 424.393 439.735 424.49 439.901C424.586 440.066 424.734 440.195 424.911 440.268C425.089 440.34 425.285 440.351 425.469 440.3ZM580.2 298.738C579.002 290.536 568.738 284.703 564.496 275.834C559.048 264.437 564.884 256.753 562.01 247.417C561.428 245.523 558.442 246.33 559.031 248.238C561.952 257.728 552.886 268.842 566.783 285.037C571.053 290.012 576.779 294.809 577.055 300.077C577.021 302.444 576.446 304.771 575.375 306.882C574.303 308.992 572.763 310.829 570.872 312.251C564.598 317.573 555.113 318.548 545.645 323.018C537.133 327.032 529.524 333.093 521.265 337.863C506.711 346.273 481.279 353.646 466.684 348.63C453.539 344.112 450.288 330.572 460.426 321.713C461.301 322.108 473.112 325.665 485.562 330.66C485.868 330.74 486.191 330.728 486.491 330.626C486.79 330.523 487.053 330.334 487.246 330.083C487.439 329.832 487.553 329.529 487.575 329.213C487.598 328.897 487.526 328.582 487.37 328.306C484.506 322.453 480.864 317.014 476.543 312.138L477.432 311.658C485.31 313.127 493.023 315.372 500.46 318.36C500.743 318.437 501.041 318.438 501.324 318.362C501.608 318.287 501.866 318.138 502.073 317.93C502.281 317.723 502.429 317.464 502.505 317.181C502.58 316.897 502.58 316.599 502.503 316.316C500.333 310.724 497.051 305.631 492.854 301.348C496.096 298.622 490.927 301.007 514.827 304.121C515.125 304.119 515.417 304.039 515.675 303.889C515.932 303.739 516.145 303.524 516.294 303.265C516.442 303.006 516.52 302.713 516.519 302.415C516.519 302.117 516.44 301.824 516.291 301.566C513.624 296.186 509.643 291.568 504.716 288.141C512.468 276.192 510.65 268.137 514.436 263.268C522.048 253.452 540.94 277.435 553.247 263.486C555.096 261.448 556.299 258.908 556.703 256.185C557.108 253.463 556.697 250.682 555.521 248.194C554.84 246.889 552.518 247.816 553.101 249.216C554.117 251.843 554.134 254.753 553.147 257.391C552.16 260.03 550.239 262.214 547.749 263.527C536.589 269.2 520.618 248.988 511.426 261.605C507.14 267.486 509.383 274.553 501.846 286.352C500.633 285.664 499.352 285.104 498.022 284.683C497.661 284.596 497.28 284.64 496.948 284.808C496.616 284.975 496.354 285.256 496.209 285.599C496.065 285.941 496.046 286.325 496.158 286.68C496.269 287.035 496.503 287.339 496.817 287.538C497.839 288.086 498.86 288.611 499.881 289.173C497.895 291.825 495.677 294.293 493.253 296.55C490.934 296.148 488.562 296.165 486.25 296.601C485.939 296.698 485.663 296.882 485.454 297.131C485.245 297.38 485.111 297.684 485.069 298.006C485.027 298.329 485.078 298.656 485.216 298.951C485.354 299.245 485.573 299.494 485.848 299.668C487.21 300.69 487.4 300.888 487.748 301.177C484.187 303.83 480.446 306.23 476.55 308.36C474.909 308.128 473.265 307.924 471.627 307.706C471.325 307.711 471.03 307.804 470.78 307.975C470.53 308.145 470.335 308.385 470.219 308.665C470.103 308.945 470.072 309.252 470.129 309.55C470.185 309.847 470.327 310.122 470.538 310.339C470.8 310.609 471.055 310.881 471.311 311.15C467.056 313.176 463.081 315.744 459.483 318.789C448.589 328.732 449.301 340.961 459.201 348.433C468.887 355.758 484.67 353.963 496.586 351.189C509.31 348.15 521.326 342.672 531.969 335.059C553.451 320.854 554.098 324.289 566.239 318.851C577.208 313.938 581.167 305.358 580.2 298.738ZM497.754 313.771C492.519 311.84 487.143 310.319 481.674 309.222C484.636 307.469 487.493 305.542 490.23 303.453C493.279 306.462 495.821 309.946 497.754 313.771ZM502.751 290.942C506.342 293.419 509.388 296.605 511.702 300.305C506.799 299.693 501.951 298.701 497.202 297.337C499.203 295.339 501.057 293.2 502.751 290.935V290.942ZM473.622 313.668C476.761 317.242 479.569 321.092 482.014 325.171C482.985 326.79 483.526 326.108 473.908 323.127C470.103 321.95 466.239 320.97 462.333 320.19C465.922 317.728 469.697 315.547 473.622 313.668Z" fill="#191919"/>
<path d="M564.407 302.917C556.173 313.063 547.586 310.028 537.771 313.526C517.183 320.869 504.421 343.056 481.389 341.314C473.277 340.698 462.79 338.667 457.01 332.9C456.368 332.26 455.219 333.094 455.736 333.887C456.27 334.709 456.859 335.493 457.5 336.234C463.422 343.063 482.358 345.683 491.343 343.805C509.894 339.923 522.221 322.253 539.093 316.547C547.64 313.659 553.185 315.581 560.963 310.484C564.809 308.001 567.898 304.508 569.894 300.386C570.007 299.863 570.087 299.333 570.132 298.8C570.126 298.544 570.047 298.296 569.902 298.084C569.758 297.873 569.555 297.709 569.319 297.611C569.083 297.513 568.824 297.486 568.572 297.534C568.321 297.581 568.089 297.701 567.905 297.878C565.947 300.178 566.3 300.583 564.407 302.917ZM436.008 333.468C435.214 333.025 434.299 332.849 433.397 332.965C428.066 332.841 422.844 331.421 418.184 328.827C418.031 328.681 417.831 328.595 417.62 328.584C417.409 328.572 417.201 328.637 417.034 328.767C416.866 328.896 416.751 329.081 416.708 329.288C416.665 329.495 416.698 329.71 416.8 329.895C417.255 330.535 417.769 331.13 418.337 331.672C421.396 334.676 433.033 337.197 436.015 335.34C436.175 335.241 436.307 335.103 436.398 334.939C436.49 334.775 436.537 334.59 436.536 334.402C436.536 334.214 436.487 334.029 436.394 333.866C436.302 333.702 436.169 333.565 436.008 333.468Z" fill="#191919"/>
<path d="M443.795 320.792C437.213 315.651 441.827 319.128 432.241 312.266C434.104 310.812 435.906 309.286 437.648 307.687C443.392 307.851 449.124 308.323 454.818 309.099C456.153 309.252 456.775 307.595 456.255 306.598C454.025 302.868 450.885 299.766 447.128 297.586C448.419 295.998 449.658 294.361 450.846 292.673C457.405 292.458 463.971 292.699 470.496 293.394C470.787 293.391 471.072 293.312 471.323 293.164C471.574 293.017 471.782 292.807 471.927 292.554C472.071 292.302 472.148 292.016 472.148 291.725C472.149 291.433 472.074 291.147 471.93 290.894C468.979 285.418 464.776 280.72 459.663 277.183C462.824 270.039 463.282 266.569 465.029 263.466C466.078 261.571 467.744 260.095 469.751 259.284C471.757 258.474 473.98 258.378 476.049 259.013C483.901 260.751 489.382 268.624 496.862 266.467C497.987 266.138 499.03 265.574 499.92 264.81C500.786 264.072 499.661 262.636 498.71 263.238C497.765 263.756 496.724 264.078 495.652 264.184C494.579 264.29 493.496 264.178 492.468 263.854C486.501 262.285 480.419 254.399 470.778 255.937C461.498 257.417 461.009 266.365 456.826 275.795C454.964 275.063 452.979 274.696 450.978 274.713C450.754 274.703 450.53 274.739 450.32 274.818C450.109 274.897 449.917 275.017 449.755 275.173C449.593 275.328 449.463 275.515 449.375 275.721C449.287 275.928 449.241 276.151 449.241 276.375C449.241 276.6 449.287 276.823 449.375 277.029C449.463 277.236 449.593 277.423 449.755 277.578C449.917 277.733 450.109 277.854 450.32 277.933C450.53 278.012 450.754 278.047 450.978 278.037C452.494 278.003 454.002 278.263 455.419 278.803C453.637 282.467 451.608 286.005 449.347 289.394C446.53 289.294 443.718 289.702 441.046 290.598C439.286 291.411 437.355 293.466 438.569 295.504C439.051 296.314 439.812 296.749 442.388 298.433C440.516 300.566 438.538 302.603 436.462 304.536C434.378 304.664 432.32 305.073 430.345 305.751C428.802 306.252 427.364 307.031 426.101 308.051C425.746 308.429 425.524 308.913 425.469 309.428C425.414 309.944 425.528 310.464 425.795 310.909C426.14 311.404 426.582 311.824 427.093 312.144C423.226 314.541 419.609 317.322 416.298 320.445C407.201 330.005 410.426 341.82 419.845 344.093C425.146 345.376 425.316 341.712 423.07 341.439C423.206 341.439 421.772 341.191 421.476 341.147C420.325 340.997 419.217 340.613 418.22 340.018C417.223 339.423 416.358 338.629 415.68 337.687C415.001 336.744 414.522 335.672 414.273 334.537C414.024 333.402 414.01 332.227 414.232 331.087C415.846 322.752 422.581 319.407 429.465 314.355C430.437 313.641 429.757 314.695 442.646 322.258C443.55 322.769 444.651 321.459 443.795 320.792ZM414.779 336.067C414.806 336.132 414.837 336.227 414.779 336.067V336.067ZM451.43 305.397C447.889 305.003 443.754 304.564 440.991 304.462C442.364 303.069 443.696 301.631 444.987 300.148C447.368 301.589 449.537 303.356 451.43 305.397ZM458.28 280.191C461.953 282.677 465.024 285.952 467.272 289.778C462.571 289.388 457.855 289.23 453.139 289.305C455.026 286.373 456.743 283.334 458.28 280.204V280.191ZM442.31 293.707C443.78 293.118 445.354 292.829 446.938 292.857C446.177 293.887 445.384 294.901 444.559 295.898C441.477 293.867 441.515 294.126 442.296 293.707H442.31ZM431.997 308.473C431.208 309.119 430.409 309.744 429.598 310.347L428.809 309.783C429.804 309.206 430.872 308.766 431.983 308.473H431.997ZM379.912 636.486C379.912 636.792 380.033 637.085 380.249 637.302C380.465 637.518 380.758 637.639 381.064 637.639C381.369 637.639 381.662 637.518 381.878 637.302C382.094 637.085 382.216 636.792 382.216 636.486C383.194 628.423 381.811 584.699 381.37 581.64C381.296 581.386 381.133 581.167 380.911 581.022C380.69 580.878 380.424 580.818 380.162 580.854C379.899 580.889 379.659 581.018 379.483 581.216C379.308 581.414 379.209 581.668 379.205 581.933C379.052 584.093 379.681 634.261 379.912 636.486Z" fill="#191919"/>
<path d="M478.743 518.138C467.206 515.932 456.975 514.482 450.656 513.314C449.751 513.147 448.537 512.99 448.105 513.801C447.544 514.859 448.513 515.728 449.721 515.952C450.5 516.099 469.764 519.156 476.25 519.776C476.344 522.725 476.676 525.663 477.243 528.559C475.447 529.158 484.62 524.78 381.331 575.055C378.834 573.959 251.036 550.747 250.693 550.685C250.654 547.713 250.413 544.746 249.972 541.806C253.88 540.87 282.691 527.449 287.384 523.081C287.566 522.888 287.681 522.641 287.711 522.377C287.742 522.113 287.686 521.846 287.552 521.617C287.419 521.387 287.215 521.207 286.971 521.102C286.727 520.998 286.455 520.976 286.197 521.039C283.97 521.72 279.96 524.123 271.042 528.59C248.785 539.733 248.4 538.163 247.468 542.63C247.09 545.299 246.968 547.997 247.105 550.689C247.106 550.945 247.162 551.197 247.269 551.429C247.376 551.662 247.531 551.868 247.724 552.036C247.918 552.203 248.144 552.327 248.389 552.4C248.634 552.472 248.892 552.491 249.145 552.456C250.166 552.663 253.206 553.266 253.72 553.365C253.04 560.358 253.012 599.881 253.135 601.532C253.095 602.284 253.247 603.034 253.577 603.711C254.057 605.073 255.417 604.862 255.72 604.051C256.268 603.028 256.499 601.864 256.383 600.708C256.56 597.477 255.886 554.134 255.856 553.794C256.196 553.862 377.055 576.945 380.705 577.098C382.63 577.176 472.029 533.755 472.379 533.581C471.991 540.176 473.233 591.179 473.294 591.7C473.974 597.63 475.614 594.158 463.213 602.785C374.504 664.485 382.606 660.468 379.749 659.709C379.409 659.62 276.395 636.874 276.055 636.834C274.175 636.526 272.278 636.333 270.375 636.258C269.311 636.166 269.13 637.824 270.127 638.093C272.78 638.801 274.548 639.499 275.12 639.642C275.46 639.731 377.307 662.987 381.15 663.212C381.678 663.239 473.508 599.333 475.226 597.722C476.127 597.116 475.226 597.573 475.641 591.666C475.801 589.408 475.141 543.233 475.093 541.306C475.095 538.394 474.829 535.488 474.301 532.624C475.86 531.975 477.33 531.13 478.675 530.108C480.518 528.757 479.681 518.318 478.743 518.138Z" fill="#191919"/>
<path d="M328.004 554.891C368.065 562.167 375.179 564.244 380.145 564.326C380.291 564.326 422.813 544.847 424.669 543.656C425.954 542.836 426.535 542.599 426.892 541.573C426.947 541.354 426.917 541.123 426.807 540.927C426.696 540.731 426.515 540.586 426.3 540.522C425.433 540.359 424.536 540.507 423.765 540.941C423.425 541.071 381.429 560.533 380.087 561.47C379.747 561.381 328.153 551.794 327.368 551.894C326.982 551.961 326.599 552.051 326.223 552.162C325.244 552.399 324.714 554.29 328.004 554.891Z" fill="#191919"/>
<path d="M167.287 631.243C162.71 626.214 157.73 621.564 152.397 617.341C149.801 615.255 148.174 617.603 145.759 620.227C144.058 622.379 142.504 624.642 141.109 627.003C140.312 628.104 139.58 629.251 138.916 630.437C138.806 630.611 138.766 630.82 138.802 631.023C138.837 631.226 138.947 631.408 139.11 631.535C139.273 631.662 139.477 631.724 139.683 631.71C139.889 631.696 140.082 631.606 140.226 631.458C141.946 629.572 143.837 627.848 145.875 626.308C147.41 625.268 148.877 624.131 150.268 622.905C152.55 625.199 162.348 634.248 164.51 634.864C165.118 634.946 166.257 635.49 167.198 634.469C167.536 634.127 167.752 633.684 167.814 633.208C167.876 632.732 167.779 632.248 167.54 631.832C167.604 632.138 167.652 632.111 167.287 631.243ZM212.896 629.586C216.931 630.896 221.356 632.145 225.954 633.231C226.783 632.421 227.602 631.59 228.485 630.848C246.074 615.987 245.719 617.692 244.638 616.861C241.822 614.74 238.967 612.671 236.075 610.654C233.954 612.328 214.83 628.092 212.896 629.586ZM342.326 479.474C337.749 474.445 332.769 469.795 327.436 465.572C324.84 463.486 323.213 465.831 320.801 468.458C319.098 470.608 317.544 472.87 316.148 475.23C315.351 476.335 314.619 477.485 313.955 478.674C313.853 478.849 313.819 479.055 313.857 479.253C313.896 479.451 314.005 479.629 314.164 479.753C314.324 479.878 314.523 479.94 314.725 479.93C314.928 479.919 315.119 479.836 315.265 479.695C316.985 477.809 318.876 476.086 320.914 474.546C322.449 473.506 323.917 472.369 325.307 471.143C327.59 473.437 337.387 482.486 339.549 483.098C340.157 483.183 341.296 483.728 342.238 482.704C342.575 482.361 342.791 481.918 342.852 481.442C342.914 480.966 342.818 480.483 342.579 480.066C342.643 480.355 342.691 480.355 342.326 479.474ZM374.191 472.678C377.83 474.22 381.512 475.632 385.237 476.911C390.231 471.687 402.784 461.502 408.433 456.999C405.409 454.883 402.315 452.866 399.158 450.952C393.976 455.512 379.13 468.509 374.191 472.678ZM387.932 477.813C391.967 479.127 396.391 480.376 400.99 481.461C401.819 480.648 402.638 479.821 403.521 479.079C421.11 464.217 420.755 465.926 419.673 465.095C416.858 462.974 414.003 460.905 411.111 458.888C408.979 460.566 389.917 476.272 387.932 477.813Z" fill="#EF233C"/>
<path d="M97.4326 553.835C98.2498 555.365 99.051 556.902 99.8364 558.446C100.62 559.989 101.576 561.451 102.434 562.949C109.336 574.976 109.169 576.976 111.41 576.373C111.87 576.242 112.262 575.94 112.506 575.528C113.245 574.261 112.186 572.878 111.11 570.879C107.821 564.325 103.863 558.129 99.2985 552.39C98.5324 551.399 96.7278 552.527 97.4326 553.835ZM65.4472 576.703C66.9743 577.999 68.6499 579.11 70.4387 580.01C91.2085 591.687 91.2732 592.174 92.8054 591.251C93.8268 590.648 93.9494 589.03 91.1506 587.528C70.2447 576.288 67.9975 575.215 66.4585 574.973C66.2391 574.917 66.0075 574.934 65.7985 575.021C65.5896 575.108 65.4148 575.261 65.3005 575.457C65.1862 575.652 65.1387 575.879 65.1652 576.104C65.1917 576.329 65.2907 576.54 65.4472 576.703ZM57.7794 613.39C62.3054 613.871 66.8682 613.895 71.3989 613.462C73.8743 613.274 90.6841 611.643 92.2197 609.906C92.468 609.653 92.6377 609.333 92.7084 608.986C92.779 608.639 92.7477 608.278 92.6181 607.948C92.4884 607.618 92.2661 607.333 91.9779 607.127C91.6897 606.92 91.348 606.802 90.994 606.786C90.2517 606.687 84.6677 607.869 79.5808 608.615C74.4225 609.371 58.1301 611.023 57.7896 611.054C57.4799 611.052 57.1823 611.174 56.9623 611.392C56.7424 611.61 56.618 611.907 56.6167 612.217C56.6153 612.527 56.737 612.824 56.9551 613.044C57.1732 613.265 57.4697 613.389 57.7794 613.39ZM368.032 328.249C363.091 269.735 356.894 260.556 323.523 250.709C311.902 247.282 300.091 244.517 288.194 242.228C261.906 237.37 235.365 233.999 208.697 232.132C208.697 230.596 208.697 229.066 208.728 227.524C216.273 230.456 224.795 226.992 232.102 224.707C239.813 222.314 247.195 218.969 254.077 214.747C273.008 203.092 301.422 174.433 311.565 162.269C312.355 161.278 312.175 160.781 311.225 159.429C312.546 158.434 314.05 157.71 315.651 157.297C320.077 156.03 333.823 154.112 338.409 153.55C343.227 152.944 348.478 152.147 351.862 148.277C357.562 141.768 353.159 133.907 345.185 132.047C342.322 131.46 339.375 131.416 336.496 131.918C336.221 131.918 335.957 132.027 335.763 132.221C335.568 132.416 335.459 132.68 335.459 132.955C335.459 133.23 335.568 133.494 335.763 133.688C335.957 133.883 336.221 133.992 336.496 133.992C341.729 134.51 346.537 134.711 349.615 138.389C350.161 139.129 350.532 139.983 350.703 140.887C350.873 141.791 350.836 142.722 350.597 143.61C350.357 144.498 349.92 145.32 349.319 146.016C348.717 146.711 347.966 147.262 347.122 147.627C343.084 150.079 338.859 149.524 322.049 152.395C317.506 152.741 313.108 154.153 309.212 156.517C305.675 150.753 302.812 144.602 300.68 138.185C297.65 129.826 297.735 128.835 296.536 127.19C294.108 123.862 289.447 126.195 286.298 127.095C260.452 134.507 235.409 144.477 211.54 156.857C208.381 147.844 204.737 139.008 200.624 130.388C192.616 113.647 183.416 97.649 165.479 92.4513C151.577 88.4184 136.977 91.6815 124.202 98.6197C122.499 99.5394 120.838 100.517 119.152 101.467C118.631 98.6061 118.832 99.5019 118.682 98.5652C138.924 96.1469 137.28 74.4977 133.926 54.463C137.205 53.0167 140.351 51.2878 143.33 49.296C149.725 44.6296 157.011 38.451 151.648 32.4085C148.611 29.0024 143.712 29.2783 139.353 30.0243C131.818 3.8995 97.848 -9.14586 78.4572 9.92829C65.9239 22.2754 65.0148 41.5437 72.7302 56.5442C73.0511 57.2729 73.4605 57.9593 73.9492 58.5878C73.9718 58.847 74.0625 59.0956 74.212 59.3085C74.3614 59.5214 74.5644 59.6911 74.8004 59.8004C67.405 66.0676 70.4762 77.8527 78.8624 79.2152C84.0174 80.0667 82.2332 77.5802 82.5363 81.1532C83.0931 87.7087 82.7321 94.3099 81.4637 100.766C78.2019 99.3588 74.8242 97.9249 71.4636 96.7157C57.7352 91.7973 43.2031 91.1944 32.9272 101.484C21.9533 112.486 14.1085 138.549 10.2099 153.557C3.13797 180.758 -4.28807 212.036 5.13663 238.709C13.8769 263.437 35.6613 280.233 58.5625 292.866C70.629 299.678 83.5212 304.908 96.9219 308.429C98.4268 326.263 101.008 344.026 103.231 361.785C112.71 437.544 119.346 511.282 140.858 578.989C141.488 580.968 143.436 580.419 144.852 580.181C144.662 581.608 144.556 588.911 144.577 590.348C144.597 590.825 144.801 591.276 145.146 591.607C145.491 591.937 145.95 592.121 146.427 592.121C146.905 592.121 147.364 591.937 147.708 591.607C148.053 591.276 148.257 590.825 148.278 590.348C148.278 589.326 148.223 581.152 147.92 579.677C171.485 575.801 168.087 576.465 169.371 576.165C170.488 581.154 172.109 586.017 174.209 590.678C174.433 590.996 174.759 591.227 175.132 591.334C175.506 591.44 175.904 591.416 176.262 591.265C176.62 591.114 176.915 590.845 177.099 590.503C177.283 590.161 177.345 589.766 177.274 589.384C175.316 584.748 173.626 580.003 172.21 575.174C173.448 574.459 174.509 573.476 175.317 572.298C176.125 571.119 176.659 569.774 176.879 568.362C178.318 561.987 179.209 555.501 179.545 548.974C187.805 434.751 182.558 390.781 182.217 368.274C181.959 351.093 183.338 330.766 191.128 315.275C194.281 309.001 198.295 310.796 206.143 311.933L295.954 325.044C298.213 354.125 303.92 382.834 312.954 410.567C315.641 418.858 318.744 427.008 322.253 434.986C322.521 435.632 322.939 436.206 323.471 436.661C324.004 437.115 324.637 437.436 325.318 437.598C325.069 438.262 325.192 437.707 324.756 440.647C324.32 443.586 327.183 443.838 327.82 442.026C328.106 440.719 328.205 439.379 328.116 438.044C331.266 438.208 348.205 436.443 350.837 436.001C350.068 441.832 354.32 440.595 354.187 438.657C354.133 437.911 353.588 436.631 353.507 435.456C356.397 434.638 357.252 432.806 358.015 429.928C367.933 392.791 372.584 382.079 368.032 328.249ZM181.53 141.019C193.511 157.102 205.439 185.366 209.392 215.677C209.561 217.077 209.515 218.494 209.256 219.88C209.248 220.15 209.144 220.409 208.964 220.61C208.783 220.811 208.537 220.942 208.269 220.978C208.001 221.014 207.729 220.954 207.501 220.809C207.274 220.663 207.105 220.442 207.025 220.183C206.801 219.448 206.46 218.766 206.266 218.024C204.022 201.965 199.908 186.225 194.008 171.122C189.834 161.156 185.13 151.421 179.916 141.959C179.854 141.853 179.814 141.736 179.797 141.614C179.781 141.493 179.789 141.369 179.82 141.25C179.851 141.132 179.905 141.021 179.98 140.923C180.054 140.825 180.147 140.743 180.253 140.682C180.359 140.62 180.476 140.58 180.597 140.563C180.719 140.547 180.842 140.554 180.961 140.586C181.08 140.617 181.191 140.671 181.288 140.746C181.386 140.82 181.468 140.913 181.53 141.019ZM118.938 89.1746C115.41 91.4567 112.829 90.7141 111.372 88.4593C110.96 87.8722 110.69 87.1973 110.584 86.4879C110.478 85.7786 110.538 85.0542 110.759 84.372C110.791 84.2623 110.855 84.1643 110.942 84.0899C111.028 84.0156 111.135 83.9681 111.248 83.9533C111.362 83.9385 111.477 83.957 111.58 84.0066C111.683 84.0561 111.769 84.1346 111.828 84.2323C112.057 84.7705 112.339 85.2746 112.564 85.8128C113.02 86.9198 113.585 88.2788 115.128 88.2311C117.171 88.1664 119.615 85.6799 120.089 85.2712C121.342 84.1676 123.255 86.4088 118.938 89.1746ZM116.527 102.867C104.865 108.923 97.0717 106.883 84.6235 102.278C84.8849 101.335 85.0817 100.376 85.2125 99.4065C85.7028 96.5318 83.3364 101.014 116.146 98.8002C116.231 100.36 116.357 101.529 116.527 102.867ZM77.32 16.0627C93.2446 -5.43321 126.878 3.95059 135.979 30.7396C125.022 33.352 79.8975 53.993 78.859 55.1511C77.589 55.7505 77.1293 55.9174 75.7367 56.6804C69.5603 43.0594 68.4197 28.3144 77.32 16.0627ZM78.8624 75.9623C77.3065 75.5156 75.9606 74.529 75.066 73.1796C74.3615 72.0645 73.9189 70.8041 73.7715 69.4933C73.624 68.1824 73.7756 66.8552 74.2147 65.6114C74.6539 64.3676 75.3692 63.2396 76.3069 62.3121C77.2446 61.3847 78.3802 60.682 79.6285 60.2568C82.7213 61.2301 85.3262 63.3474 86.9115 66.1766C87.1326 66.5362 87.4753 66.8046 87.8773 66.933C88.2793 67.0614 88.7141 67.0414 89.1026 66.8765C89.4911 66.7117 89.8076 66.4129 89.9948 66.0345C90.1819 65.6561 90.2271 65.2231 90.1223 64.8142C89.0516 61.5737 88.6485 58.1498 88.9374 54.7492C88.9919 53.867 85.9207 55.6177 117.467 41.3257C123.466 38.6008 140.62 30.6238 147.311 33.4338C150.184 34.6395 151.012 37.1158 148.615 40.2017C144.046 44.7115 138.975 48.6818 133.5 52.0345C132.917 48.8341 132.23 45.6534 131.441 42.4974C131.322 41.5656 130.98 40.6763 130.443 39.9054C130.337 39.7383 130.181 39.6096 129.997 39.538C129.813 39.4663 129.611 39.4557 129.421 39.5075C129.23 39.5594 129.061 39.671 128.939 39.826C128.816 39.981 128.747 40.1712 128.74 40.3686C129.142 44.3054 129.773 48.2155 130.63 52.0788C129.789 51.5251 128.828 51.1793 127.828 51.07C126.827 50.9606 125.814 51.0907 124.873 51.4497C123.933 51.8086 123.091 52.386 122.417 53.1344C121.743 53.8828 121.257 54.7806 120.998 55.754C119.86 55.6682 118.717 55.7232 117.593 55.9174C116.478 53.7698 115.096 51.7717 113.48 49.9704C112.925 49.4016 111.736 49.9704 112.063 50.7981C112.899 52.7891 113.898 54.7076 115.049 56.5339C113.238 57.147 111.569 58.1202 110.143 59.3951C109.614 58.5113 108.863 57.7819 107.964 57.2799C102.383 54.1871 96.5473 60.921 99.0023 66.163C101.089 70.6182 111.389 72.3382 111.096 62.6036C111.059 61.4387 110.851 61.9224 111.273 61.5613C112.753 60.346 114.502 59.5027 116.374 59.1021C118.62 63.2535 120.555 67.5661 122.162 72.0044C120.366 72.0225 118.577 71.7734 116.854 71.2653C116.493 71.166 116.107 71.2142 115.781 71.3994C115.456 71.5847 115.217 71.8918 115.118 72.2531C115.018 72.6144 115.066 73.0005 115.252 73.3262C115.437 73.652 115.744 73.8908 116.105 73.9902C118.428 74.6133 120.839 74.8435 123.238 74.6714C123.546 74.6141 123.837 74.4921 124.094 74.3136C124.351 74.1351 124.567 73.9042 124.728 73.636C124.889 73.3678 124.991 73.0686 125.027 72.7579C125.064 72.4473 125.035 72.1325 124.941 71.8341C123.325 67.3729 121.39 63.0336 119.152 58.8501C119.548 58.8273 119.946 58.8479 120.337 58.9114C121.165 58.9727 120.361 58.7888 121.209 60.594C121.722 61.5012 122.434 62.28 123.291 62.8718C124.149 63.4636 125.129 63.8529 126.159 64.0103C127.189 64.1677 128.241 64.0892 129.236 63.7806C130.231 63.4721 131.143 62.9415 131.904 62.2289C132.333 66.398 132.738 71.3641 132.724 75.5536C130.477 74.8383 117.961 82.0252 89.5026 75.4616C88.6899 75.1956 87.8313 75.0982 86.9796 75.1755C85.8696 72.9616 83.2922 77.1306 78.8624 75.9623ZM58.3038 231.451C58.806 230.075 58.7439 228.556 58.1309 227.225C57.5179 225.895 56.4038 224.861 55.0317 224.349C54.6008 224.218 54.2365 223.927 54.0141 223.535C53.7917 223.143 53.7282 222.681 53.8366 222.244C55.665 209.945 60.6463 181.677 61.838 178.741C62.4611 177.205 62.6075 175.918 63.8265 176.064C66.7036 176.405 63.2783 182.628 57.3572 221.628C59.0815 222.593 60.4477 224.089 61.2521 225.895C62.0565 227.7 62.2561 229.717 61.821 231.645C82.9823 234.789 101.692 245.951 118.618 259.02C120.746 260.661 118.339 263.141 116.864 262.007C70.5852 226.233 54.0817 239.704 58.3038 231.451ZM364.368 387.31C362.887 397.028 360.112 406.282 354.885 426.627C353.915 430.432 354.17 431.559 351.705 432.046C344.266 433.256 336.763 434.029 329.233 434.362C328.032 434.516 326.813 434.314 325.726 433.78C325.631 433.708 325.61 433.695 325.6 433.582C311.384 398.374 302.688 361.18 299.818 323.317C299.813 322.878 299.667 322.453 299.401 322.104C299.136 321.755 298.765 321.501 298.344 321.379L206.12 307.959C200.049 307.076 193.692 305.2 189.5 310.435C187.862 312.746 186.567 315.283 185.656 317.966C173.225 348.621 180.154 383.519 180.304 430.677C180.389 455.858 177.58 543.759 173.855 563.477C173.75 566.19 172.849 568.812 171.264 571.015C169.902 572.245 169.97 571.972 144.263 576.151C134.213 543.013 126.72 509.153 121.849 474.868C119.156 457.37 99.942 310.513 99.7173 309.12C107.218 310.985 114.928 311.871 122.656 311.756C120.229 315.808 117.312 319.544 113.97 322.881C112.52 324.311 111.624 324.843 111.747 325.912C111.759 326.278 111.885 326.631 112.108 326.921C112.331 327.211 112.639 327.424 112.989 327.53C114.3 327.816 114.981 327.009 116.238 325.776C120.955 321.154 124.766 315.69 127.474 309.665C133.388 303.432 136.245 281.8 123.272 266.68C128.437 257.123 138.523 250.331 148.09 245.831C173.412 233.941 205.633 236.352 207.917 234.68C222 237.405 266.481 239.683 310.608 251.029C343.803 259.544 355.001 263.594 360.452 297.921C364.283 322.029 367.756 365.069 364.368 387.3V387.31ZM636.544 411.589C635.73 411.623 635.917 412.11 636.367 410.758C637.119 408.49 636.85 406.62 636.574 395.931C636.563 395.587 636.459 395.252 636.275 394.961C632.655 394.514 631.508 394.249 605.73 389.759C605.501 390.4 605.094 390.961 604.556 391.376C604.018 391.792 603.373 392.044 602.696 392.103C600.139 392.443 597.588 390.219 595.842 388.656C594.429 387.399 596.778 388.336 579.778 385.25C566.233 391.432 556.934 422.765 542.457 438.726C536.883 444.877 531.493 449.686 533.328 459.411C534.932 467.902 541.667 472.187 550.084 473.635C567.85 476.7 583.959 467.643 597.953 456.464C605.443 450.47 626.258 432.411 628.995 429.716C633.595 425.19 637.984 419.89 638.328 413.367C638.324 412.895 638.135 412.444 637.801 412.111C637.467 411.779 637.015 411.591 636.544 411.589ZM573.894 400.69C575.414 400.379 576.978 400.352 578.508 400.611C581.598 401.086 584.531 402.288 587.067 404.116C589.594 405.945 589.968 406.538 590.343 407.767C590.615 408.653 589.631 409.198 588.906 408.871C588.171 408.584 587.521 408.115 587.016 407.509C583.417 404.354 578.874 402.483 574.098 402.188C573.298 402.124 572.992 400.802 573.901 400.673L573.894 400.69ZM565.426 415.404C572.348 412.982 583.785 418.936 582.11 421.14V421.099C580.969 423.207 578.94 419.525 573.128 417.877C571.09 417.345 568.996 417.057 566.89 417.018C566.294 416.984 565.314 417.1 564.888 416.596C564.513 416.136 564.81 415.281 565.433 415.38L565.426 415.404ZM557.843 428.926C560.184 428.024 562.713 427.723 565.2 428.05C567.686 428.378 570.051 429.323 572.079 430.799C573.479 431.596 574.78 432.557 575.954 433.661C576.147 433.866 576.261 434.133 576.274 434.415C576.288 434.697 576.201 434.974 576.029 435.197C575.856 435.42 575.61 435.575 575.335 435.633C575.059 435.691 574.771 435.648 574.524 435.514C569.297 432.649 567.299 429.662 558.18 430.207C558.022 430.217 557.865 430.171 557.736 430.078C557.608 429.985 557.516 429.849 557.477 429.695C557.438 429.541 557.454 429.378 557.522 429.235C557.59 429.091 557.706 428.976 557.85 428.909L557.843 428.926ZM537.567 451.321C537.785 448.256 541.575 444.686 544.847 441.055C547.5 440.158 550.313 439.834 553.1 440.107C555.888 440.381 558.585 441.243 561.013 442.639C564.349 443.94 567.149 446.329 568.958 449.42C570.768 452.511 571.481 456.123 570.983 459.67C561.378 464.476 536.733 463.171 537.574 451.304L537.567 451.321ZM569.13 460.572C569.093 460.583 569.057 460.596 569.022 460.613C568.797 460.702 569.018 460.61 569.137 460.555L569.13 460.572ZM634.698 414.185C634.698 414.263 634.698 414.362 634.698 414.185V414.185ZM634.698 414.086C633.837 420.973 626.227 427.618 620.912 432.206C598.62 451.458 585.161 464.564 568.017 469.186C555.623 472.517 539.004 471.23 536.587 458.358C542.137 465.756 555.531 466.257 564.895 464.878C569.079 464.261 569.689 464.431 577.956 459.608C587.414 454.159 596.468 448.038 605.049 441.29C605.416 440.984 622.71 426.419 629.288 419.743C635.41 413.537 634.77 413.156 634.698 414.086Z" fill="#191919"/>
<path d="M519.937 375.315C509.577 385.906 502.763 404.763 493.985 417.948C488.531 426.164 480.411 433.648 479.834 444.086C479.447 448.533 480.851 452.951 483.738 456.368C487.361 460.281 492.966 460.925 497.987 461.543C508.214 462.804 521.675 462.014 528.619 454.513C528.872 454.249 529.021 453.903 529.04 453.539C529.059 453.174 528.947 452.815 528.723 452.526C528.499 452.237 528.179 452.037 527.82 451.963C527.461 451.888 527.087 451.943 526.765 452.119C521.558 456.237 515.124 458.516 508.473 458.599C503.22 458.857 491.067 458.358 487.017 454.408C485.444 452.834 484.383 450.825 483.973 448.643C493.201 455.134 504.795 454.503 515.591 450.888C552.71 438.46 537.408 423.56 576.951 384.851C515.216 374.03 520.397 374.844 519.937 375.315ZM520.223 445.435C512.599 449.166 504.073 450.683 495.621 449.813C491.269 449.233 487.145 447.534 483.656 444.882C483.779 438.579 487.426 433.312 491.432 428.019C493.622 426.932 495.985 426.23 498.416 425.944C501.166 425.651 503.946 425.937 506.577 426.783C509.208 427.629 511.63 429.017 513.687 430.855C515.743 432.693 517.388 434.941 518.514 437.453C519.64 439.965 520.223 442.685 520.223 445.435ZM508.2 427.215C508.272 427.246 508.371 427.28 508.2 427.215V427.215ZM521.918 418.86C519.282 419.053 517.356 414.112 504.668 414.906C504.007 414.946 503.683 413.888 504.328 413.617C507.463 412.191 511.014 411.95 514.316 412.939C522.177 414.702 523.748 418.724 521.914 418.86H521.918ZM529.158 407.764C527.641 407.886 527.304 405.699 520.452 404.034C517.212 403.434 513.935 403.049 510.644 402.881C510.525 402.839 510.42 402.766 510.341 402.668C510.262 402.571 510.211 402.453 510.195 402.329C510.179 402.204 510.197 402.078 510.249 401.964C510.301 401.849 510.383 401.751 510.487 401.681C514.524 399.812 522.248 401.365 526.629 403.315C530.77 405.157 530.488 407.656 529.155 407.764H529.158ZM532.737 393.112C531.353 393.325 530.723 392.911 528.773 392.142C525.287 390.393 521.302 389.894 517.489 390.728C517.315 390.726 517.148 390.663 517.017 390.548C516.887 390.434 516.802 390.276 516.779 390.105C516.756 389.933 516.795 389.759 516.891 389.614C516.986 389.47 517.131 389.364 517.298 389.317C519.198 388.44 521.277 388.015 523.371 388.074C525.464 388.132 527.515 388.674 529.363 389.656C530.772 389.968 532.076 390.642 533.143 391.609C533.501 392.067 533.487 393 532.744 393.112H532.737Z" fill="#191919"/>
<path d="M445.959 508.246C443.848 504.782 440.611 502.149 436.79 500.785C434.907 500.383 435.111 500.819 435.2 500.267C436.586 491.857 433.347 481.013 426.267 478.058C425.497 477.718 425.586 478.058 425.674 477.674C426.035 475.915 425.92 474.093 425.342 472.394C424.763 470.695 423.743 469.181 422.384 468.007C422.044 468.286 405.632 481.414 403.912 482.571C410.318 483.974 417.804 485.584 422.984 481.55C424.802 480.134 423.842 480.117 424.782 480.665C429.349 483.334 433.439 491.806 431.355 500.894C423.559 502.429 425.565 504.638 395.677 504.549C356.695 504.44 356.729 497.326 340.306 496.285C326.534 495.414 310.857 500.458 298.903 492.541C299.484 486.105 301.232 479.828 304.063 474.018C309.342 460.584 307.469 458.143 309.246 451.009C309.531 448.9 310.437 446.923 311.848 445.328C313.259 443.734 315.112 442.594 317.171 442.054C325.89 441.312 330.706 453.15 341.972 451.506C349.512 450.407 352.601 442.571 358.183 443.552C359.389 443.763 358.697 443.361 356 445.992C350.731 451.132 352.642 458.133 357.172 462.925C357.761 462.374 376.979 444.811 377.33 444.498C377.919 445.394 378.627 446.205 379.435 446.911C378.839 447.435 359.43 464.528 359.137 464.78C362.731 467.592 366.68 469.917 370.883 471.697C373.689 469.27 361.865 479.525 395.929 449.573C393.851 448.407 391.727 447.325 389.563 446.329C393.228 442.861 397.397 438.061 397.356 433.014C397.311 428.848 394.263 426.091 391.065 427.084C389.799 427.659 388.667 428.492 387.741 429.529C386.816 430.565 386.116 431.784 385.688 433.106C385.511 431.503 385.243 429.913 384.887 428.34C382.892 419.726 374.766 420.512 373.042 426.72C372.392 431.755 373.265 436.869 375.549 441.404C373.835 441.009 372.079 440.834 370.321 440.883C367.673 440.28 364.9 440.557 362.423 441.673C355.305 437.285 350.915 442.432 346.192 445.829C337.524 452.061 331.373 443.715 325.011 440.335C323.459 439.308 321.69 438.653 319.843 438.42C317.996 438.188 316.12 438.385 314.361 438.996C312.603 439.607 311.009 440.616 309.704 441.943C308.399 443.27 307.419 444.881 306.838 446.649C305.268 451.433 304.32 456.399 304.019 461.424C302.462 470.931 296.594 479.586 295.361 489.478C294.05 489.307 282.998 496.023 281.163 508.879C280.686 512.228 281.04 514.416 284.109 516.091C289.129 518.831 297.592 519.393 303.245 519.74C321.456 520.856 332.497 522.752 339.166 516.438C343.341 521.673 350.81 522.48 357.114 522.79C376.563 523.742 396.055 523.39 415.457 521.738C429.301 520.591 453.482 519.137 445.959 508.246ZM385.872 442.861C386.481 439.675 389.236 430.808 392.179 430.168L392.56 430.148C393.052 430.372 393.462 430.742 393.736 431.207C394.01 431.672 394.135 432.21 394.093 432.748C394.175 437.251 389.666 441.894 386.311 444.906C385.487 444.573 385.698 445.056 385.872 442.861ZM378.43 425.236C378.957 425.191 379.48 425.356 379.884 425.696C383.018 427.782 382.888 440.485 382.333 444.321L381.505 445.073C377.289 440.604 372.988 426.911 378.43 425.236ZM431.743 498.848C431.743 498.712 431.743 498.773 431.743 498.848V498.848ZM199.313 624.883C202.946 626.422 206.622 627.832 210.341 629.114C215.327 623.889 227.86 613.702 233.5 609.202C230.479 607.084 227.39 605.065 224.236 603.151C218.971 607.793 204.245 620.714 199.313 624.883Z" fill="#EF233C"/>
<path d="M270.354 660.066C268.244 656.601 265.011 653.965 261.196 652.597C259.314 652.195 259.518 652.634 259.607 652.083C260.985 643.701 257.776 632.815 250.683 629.847C249.914 629.524 250.002 629.847 250.087 629.466C250.449 627.706 250.336 625.882 249.759 624.181C249.182 622.48 248.162 620.964 246.804 619.789C246.464 620.065 230.069 633.207 228.351 634.369C234.736 635.766 242.221 637.387 247.403 633.346C249.22 631.926 248.26 631.909 249.199 632.461C253.816 635.162 257.834 643.67 255.766 652.706C247.978 654.243 249.982 656.454 220.121 656.365C181.182 656.256 181.216 649.135 164.81 648.096C151.052 647.22 135.391 652.27 123.45 644.348C124.028 637.905 125.773 631.62 128.601 625.803C133.877 612.355 132.003 609.915 133.779 602.774C134.063 600.662 134.968 598.682 136.377 597.086C137.787 595.489 139.638 594.348 141.696 593.806C150.405 593.063 155.216 604.914 166.474 603.268C174.003 602.167 177.093 594.327 182.665 595.305C183.873 595.517 183.183 595.118 180.488 597.748C175.225 602.893 177.14 609.909 181.655 614.702C182.247 614.15 201.446 596.566 201.796 596.253C202.385 597.149 203.091 597.963 203.895 598.672C203.303 599.196 183.914 616.304 183.621 616.556C187.212 619.371 191.157 621.7 195.356 623.483C198.169 621.036 186.326 631.346 220.372 601.336C218.256 600.15 216.188 599.087 214.014 598.089C217.678 594.617 221.856 589.816 221.801 584.764C221.733 578.488 214.684 574.811 210.142 584.856C209.967 583.251 209.7 581.659 209.342 580.085C207.352 571.459 199.234 572.249 197.513 578.464C196.861 583.503 197.733 588.622 200.017 593.159C198.305 592.765 196.55 592.59 194.794 592.638C192.149 592.035 189.379 592.313 186.905 593.428C175.187 586.195 172.782 603.425 160.408 599.019C157.275 597.902 153.192 594.041 149.521 592.089C147.97 591.061 146.203 590.405 144.358 590.172C142.512 589.94 140.638 590.137 138.882 590.749C137.125 591.36 135.533 592.37 134.229 593.699C132.926 595.027 131.946 596.639 131.367 598.409C129.796 603.199 128.849 608.171 128.55 613.203C126.995 622.716 121.133 631.381 119.901 641.282C118.591 641.115 107.551 647.837 105.717 660.703C105.241 664.052 105.595 666.246 108.66 667.923C113.672 670.648 122.13 671.227 127.774 671.572C145.969 672.693 156.999 674.59 163.657 668.27C167.828 673.507 175.293 674.314 181.59 674.624C201.02 675.578 220.491 675.226 239.874 673.572C253.714 672.41 277.87 670.969 270.354 660.066ZM210.332 594.617C210.962 591.326 213.673 582.191 217.011 581.888C217.284 581.97 217.533 582.116 217.739 582.313C217.944 582.51 218.101 582.753 218.195 583.022C220.063 587.482 214.357 593.431 210.768 596.651C209.958 596.334 210.145 596.798 210.332 594.617ZM202.895 576.971C203.421 576.928 203.943 577.095 204.348 577.435C207.485 579.527 207.335 592.324 206.791 596.075L205.967 596.828C201.755 592.368 197.472 578.651 202.895 576.971ZM256.154 650.658C256.154 650.587 256.171 650.525 256.154 650.658V650.658Z" fill="#EF233C"/>
</svg>
