<svg width="422" height="472" viewBox="0 0 422 472" fill="none" xmlns="http://www.w3.org/2000/svg">
<path d="M420.86 330.067C420.306 327.724 416.749 328.718 417.321 331.056C418.545 336.266 418.64 341.677 417.601 346.927C417.254 346.746 416.874 346.64 416.484 346.615C416.094 346.591 415.703 346.648 415.337 346.784C409.407 350.179 404.732 355.397 402.008 361.661C400.242 365.492 397.51 368.798 394.081 371.257C390.652 373.715 386.644 375.242 382.447 375.687C374.246 376.637 366.334 379.288 359.217 383.47C352.127 388.636 347.17 396.855 338.381 399.479C329.45 402.17 319.809 400.187 311.015 403.868C303.301 407.807 296.401 413.166 290.677 419.665C280.495 429.438 276.048 428.368 263.105 429.09C245.292 430.122 239.178 440.647 230.433 446.801C226.036 449.881 220.9 451.739 215.55 452.185C207.402 453.105 198.184 454.05 193.507 461.604C193.364 461.535 193.296 461.392 193.153 461.324C184.445 453.105 182.666 440.989 179.899 430.01C179.824 429.773 179.667 429.571 179.457 429.439C179.247 429.306 178.997 429.253 178.752 429.287C178.506 429.321 178.28 429.441 178.115 429.626C177.949 429.81 177.854 430.048 177.846 430.296C178.91 449.419 187.412 470.245 209.031 471.88C227.491 473.298 253.751 461.834 272.472 453.671C305.672 439.26 365.48 409.152 394.165 386.939C411.381 373.417 426.308 353.008 420.86 330.067ZM264.125 337.577C271.196 336.983 278.302 336.911 285.384 337.36C285.559 329.899 287.58 322.599 291.267 316.11C294.323 310.875 298.226 306.182 302.817 302.222C298.309 300.033 294.076 297.32 290.204 294.14C282.374 298.395 275.827 304.667 271.241 312.305C266.655 319.944 264.198 328.669 264.125 337.577Z" fill="#191919"/>
<path d="M196.419 427.402C212.092 426.09 220.01 417.343 251.064 410.541C270.557 406.364 290.54 404.449 309.604 398.499C328.26 391.561 346.146 382.706 362.974 372.078C378.424 363.374 396.212 355.36 407.482 341.118C421.464 323.4 415.984 305.911 402.506 302.797C393.295 300.596 383.3 304.14 374.655 306.906C354.31 313.44 357.24 312.576 356.512 312.215C350.423 306.129 334.37 307.907 327.168 307.826C319.161 316.764 314.46 328.173 313.845 340.154C325.9 341.599 338.088 338.928 348.433 332.576C353.321 329.243 360.692 321.945 358.564 315.573C368.914 312.526 378.977 308.554 389.607 306.502C412.414 302.15 417.831 320.359 405.697 337.462C396.056 350.847 380.041 358.357 366.009 366.221C350.071 376.105 333.443 384.832 316.252 392.332C292.35 401.477 265.556 402.714 239.857 409.404C218.306 415.185 205.481 424.996 190.243 423.702C186.028 423.378 181.983 421.905 178.547 419.445C175.11 416.984 172.414 413.63 170.75 409.746C168.056 402.889 166.339 395.688 165.65 388.353C164.587 380.986 162.18 368.093 173.232 367.664C182.306 367.309 188.893 375.317 197.19 377.866C200.63 378.88 204.262 379.062 207.786 378.398C211.31 377.733 214.626 376.24 217.46 374.042C229.756 364.182 225.334 346.688 244.602 336.355C249.547 338.811 255.222 339.366 260.549 337.916H260.761C260.513 329.723 262.23 321.59 265.769 314.196C269.307 306.802 274.563 300.361 281.099 295.411C282.735 294.13 284.576 292.788 286.485 291.513C280.873 286.32 273.601 283.282 265.96 282.94C261.009 283.233 256.209 284.761 252 287.384C247.791 290.008 244.307 293.644 241.866 297.96C236.616 307.254 235.528 326.98 242.22 334.372C225.365 343.337 226.77 356.753 219.207 367.384C212.403 376.877 201.208 376.802 191.99 371.35C185.547 367.62 179.022 362.852 171.154 364.195C168.931 364.553 166.858 365.547 165.186 367.056C163.514 368.565 162.315 370.525 161.732 372.699C160.99 371.83 160.046 371.157 158.982 370.739C157.918 370.322 156.767 370.172 155.632 370.305C154.497 370.438 153.412 370.849 152.473 371.5C151.535 372.152 150.771 373.025 150.25 374.042C149.195 375.724 148.647 377.674 148.673 379.658C148.698 381.643 149.295 383.579 150.393 385.233C151.831 387.046 153.708 388.46 155.848 389.342C158.49 390.609 160.797 392.479 162.584 394.8C163.828 396.044 164.624 412.413 174.843 421.222C177.843 423.642 181.298 425.436 185.004 426.497C188.71 427.559 192.592 427.866 196.419 427.402ZM155.904 384.406C153.36 382.764 151.444 377.816 154.56 375.478C157.963 372.929 159.804 376.255 160.936 379.799C161.007 382.359 161.215 384.914 161.558 387.452C159.71 386.314 157.515 385.456 155.904 384.406Z" fill="#191919"/>
<path d="M288.91 337.646C296.137 338.267 303.582 339.418 311.021 339.983C311.149 328.219 315.218 316.837 322.577 307.656C317.156 307.169 311.833 305.913 306.767 303.926C301.461 307.857 297.103 312.927 294.013 318.762C290.923 324.597 289.179 331.049 288.91 337.646Z" fill="#191919"/>
<path d="M240.926 374.271C248.159 386.176 268.143 384.472 279.768 382.701C286.802 381.724 293.628 379.594 299.969 376.397C304.36 374.059 314.423 368.532 314.144 362.794C314.135 362.469 314.055 362.151 313.907 361.861C313.759 361.572 313.548 361.32 313.289 361.123C313.031 360.926 312.731 360.789 312.413 360.724C312.095 360.658 311.766 360.664 311.45 360.743C308.826 361.097 307.408 363.503 305.492 365.206C294.527 375.153 276.26 378.883 261.55 378.025C254.93 377.507 248.488 375.625 242.63 372.499C241.567 372.008 240.149 373.139 240.926 374.271Z" fill="#EF233C"/>
<path d="M95.8271 426.673C92.1098 424.947 88.0081 424.215 83.9227 424.547C84.2773 420.581 85.1232 416.757 85.6954 412.785C85.9068 411.231 83.7113 409.813 82.8593 411.585C80.9077 415.696 79.7753 420.147 79.5255 424.69C75.4917 424.703 71.5156 425.648 67.9072 427.45C67.6556 427.608 67.4617 427.843 67.3541 428.119C67.2465 428.396 67.231 428.7 67.3099 428.986C67.3888 429.272 67.5579 429.525 67.7921 429.708C68.0263 429.89 68.3132 429.993 68.6101 429.999C72.1887 429.974 75.7627 429.739 79.314 429.297C78.843 433.868 79.5762 438.482 81.4411 442.682C81.6386 443.003 81.9343 443.253 82.2846 443.394C82.6349 443.535 83.0213 443.559 83.3866 443.464C83.7519 443.368 84.0768 443.158 84.3134 442.864C84.5499 442.57 84.6855 442.207 84.7002 441.83C84.7298 437.612 84.4451 433.398 83.8482 429.222C87.7248 429.741 91.6405 429.908 95.5473 429.72C96.8223 429.434 96.8969 427.301 95.8271 426.673ZM26.161 231.576C22.2322 230.394 18.0112 230.645 14.2504 232.284C12.0634 227.442 8.39045 223.423 3.7641 220.808C3.44237 220.632 3.06873 220.577 2.71 220.652C2.35126 220.727 2.03085 220.927 1.80632 221.217C1.58179 221.506 1.46776 221.866 1.4846 222.232C1.50143 222.598 1.64802 222.946 1.89819 223.214C4.82173 226.507 7.43085 230.066 9.69143 233.845C6.22498 234.974 3.05316 236.86 0.405536 239.365C0.189451 239.583 0.051005 239.866 0.0115894 240.17C-0.0278263 240.475 0.033918 240.783 0.187352 241.049C0.340785 241.315 0.577397 241.523 0.860696 241.641C1.144 241.759 1.45829 241.781 1.75517 241.703C5.08889 240.646 8.20495 239.011 11.3956 237.736C12.1561 239.845 12.6777 242.033 12.9505 244.258C12.9829 246.354 13.3418 248.433 14.0141 250.419C14.1804 250.693 14.4146 250.919 14.694 251.077C14.9735 251.234 15.2888 251.317 15.6095 251.317C15.9301 251.317 16.2454 251.234 16.5248 251.077C16.8042 250.919 17.0385 250.693 17.2048 250.419C18.6713 245.743 18.2379 240.678 15.9982 236.319C19.5102 235.94 22.9355 234.984 26.1361 233.49C26.7954 232.993 26.9384 231.861 26.161 231.576ZM249.552 159.248C252.551 154.878 254.088 149.67 253.943 144.371C253.933 144.012 253.797 143.668 253.558 143.4C253.319 143.131 252.993 142.956 252.637 142.904C252.281 142.853 251.919 142.929 251.614 143.119C251.309 143.309 251.08 143.601 250.97 143.943C249.649 148.153 247.942 152.232 245.87 156.128C243.13 153.729 239.88 151.986 236.366 151.03C235.122 150.744 233.878 152.373 235.023 153.367C237.573 155.705 240.62 157.477 243.456 159.584C238.661 165.385 235.844 165.44 233.959 168.369C233.792 168.65 233.703 168.972 233.703 169.299C233.702 169.627 233.79 169.949 233.956 170.231C234.123 170.513 234.362 170.745 234.649 170.903C234.937 171.061 235.261 171.139 235.589 171.129C237.964 170.572 240.203 169.545 242.175 168.108C244.147 166.672 245.811 164.856 247.07 162.767C249.187 165.599 251.778 168.045 254.726 169.997C255.348 170.277 256.424 169.923 256.287 169.077C255.339 165.08 252.938 161.577 249.552 159.248ZM238.991 24.5041C228.467 10.7896 211.848 -1.4203 193.774 0.133918C193.521 0.139688 193.276 0.218485 193.068 0.360756C192.859 0.503028 192.696 0.702683 192.599 0.935548C192.501 1.16841 192.474 1.42452 192.519 1.67284C192.564 1.92116 192.68 2.15104 192.853 2.33469C200.592 10.9356 204.905 22.0754 204.975 33.6429C203.073 32.2663 200.91 31.2927 198.618 30.7817C196.326 30.2707 193.954 30.2331 191.647 30.6712C190.446 30.8826 190.583 32.4368 191.367 33.0087C194.227 36.0032 196.294 39.6641 197.38 43.6592C198.466 47.6544 198.537 51.8573 197.587 55.8868C196.386 63.5398 193.618 70.2664 195.677 78.0624C197.272 84.4577 201.148 90.0514 206.575 93.7942C212.003 97.537 218.611 99.1717 225.158 98.3915C251.1 95.1712 262.594 55.2589 238.991 24.5041ZM227.864 77.9691C226.507 78.6065 225.012 78.893 223.515 78.8024C222.019 78.7117 220.57 78.2469 219.3 77.4504C218.03 76.654 216.981 75.5514 216.248 74.2441C215.516 72.9367 215.123 71.4664 215.107 69.968C214.292 67.3274 214.46 64.481 215.58 61.9545C216.7 59.428 218.698 57.392 221.203 56.2225C224.031 55.5286 227.018 55.9431 229.551 57.381C232.083 58.819 233.969 61.1713 234.822 63.9552C235.674 66.7391 235.428 69.7435 234.134 72.3518C232.84 74.9601 230.597 76.9745 227.864 77.9816V77.9691ZM176.925 212.092C162.128 187.927 137.517 164.912 107.825 163.638C107.602 163.641 107.383 163.703 107.191 163.815C106.998 163.927 106.837 164.087 106.723 164.279C106.61 164.471 106.548 164.689 106.542 164.912C106.537 165.135 106.589 165.355 106.693 165.552C118.556 183.019 123.319 204.346 120.015 225.197C117.186 222.039 113.69 219.548 109.78 217.907C105.87 216.265 101.644 215.512 97.4069 215.704C97.1557 215.712 96.9122 215.793 96.7053 215.935C96.4984 216.078 96.3369 216.277 96.24 216.509C96.143 216.741 96.1147 216.995 96.1583 217.243C96.202 217.49 96.3159 217.72 96.4864 217.905L96.6979 218.116C96.7101 218.29 96.7588 218.459 96.8409 218.613C100.816 224.27 103.407 230.781 104.404 237.622C105.401 244.463 104.777 251.442 102.582 257.997C99.1049 270.966 91.9461 282.243 93.2958 296.181C94.2868 307.816 99.6487 318.644 108.303 326.487C116.957 334.33 128.262 338.606 139.943 338.456C184.55 337.772 212.912 270.885 176.925 212.092ZM142.095 311.207C131.745 314.44 121.999 310.082 120.507 292.296C119.418 279.284 128.94 267.764 141.143 271.158C145.168 272.447 148.751 274.837 151.487 278.056C154.223 281.275 156.002 285.196 156.624 289.374C157.133 294.136 155.958 298.926 153.305 302.914C150.651 306.901 146.686 309.835 142.095 311.207ZM393.71 150.246C390.6 127.3 379.884 101.935 358.202 90.9562C357.976 90.8368 357.72 90.7852 357.465 90.8075C357.21 90.8298 356.967 90.925 356.765 91.0818C356.563 91.2385 356.411 91.4502 356.326 91.6915C356.241 91.9327 356.227 92.1933 356.287 92.442C359.178 109.462 355.532 126.945 346.08 141.394C344.958 138.071 343.12 135.036 340.696 132.502C338.271 129.968 335.319 127.997 332.049 126.728C331.878 126.678 331.698 126.666 331.521 126.691C331.345 126.717 331.176 126.78 331.026 126.877C330.876 126.974 330.749 127.102 330.653 127.252C330.557 127.402 330.494 127.571 330.469 127.748C330.264 129.097 336.508 143.974 319.79 162.562C312.202 170.992 303.768 177.228 300.577 188.561C297.911 197.713 298.732 207.529 302.883 216.111C307.033 224.694 314.217 231.435 323.049 235.032C357.039 248.958 401.547 207.771 393.71 150.246ZM353.028 208.007C346.696 228.635 312.6 219.117 325.245 198.023C326.667 194.156 329.483 190.959 333.14 189.058C336.797 187.157 341.033 186.69 345.017 187.747C348.524 189.641 351.251 192.712 352.716 196.418C354.181 200.124 354.292 204.228 353.028 208.007Z" fill="#EF233C"/>
</svg>
