<svg width="24" height="25" viewBox="0 0 24 25" fill="none" xmlns="http://www.w3.org/2000/svg">
<path fill-rule="evenodd" clip-rule="evenodd" d="M11 4.44824C7.13401 4.44824 4 7.58225 4 11.4482C4 15.3142 7.13401 18.4482 11 18.4482C14.866 18.4482 18 15.3142 18 11.4482C18 7.58225 14.866 4.44824 11 4.44824ZM2 11.4482C2 6.47768 6.02944 2.44824 11 2.44824C15.9706 2.44824 20 6.47768 20 11.4482C20 16.4188 15.9706 20.4482 11 20.4482C6.02944 20.4482 2 16.4188 2 11.4482Z" fill="#CCCCCC"/>
<path fill-rule="evenodd" clip-rule="evenodd" d="M15.9429 16.3911C16.3334 16.0006 16.9666 16.0006 17.3571 16.3911L21.7071 20.7411C22.0976 21.1317 22.0976 21.7648 21.7071 22.1553C21.3166 22.5459 20.6834 22.5459 20.2929 22.1553L15.9429 17.8053C15.5524 17.4148 15.5524 16.7817 15.9429 16.3911Z" fill="#CCCCCC"/>
</svg>
