<svg width="16" height="16" viewBox="0 0 16 16" fill="none" xmlns="http://www.w3.org/2000/svg">
<g clip-path="url(#clip0_2024_754)">
<path fill-rule="evenodd" clip-rule="evenodd" d="M8.75 0.666504C8.75 0.25229 8.41421 -0.0834961 8 -0.0834961C7.58579 -0.0834961 7.25 0.25229 7.25 0.666504V2.5835H6.33333C5.51558 2.5835 4.73132 2.90835 4.15309 3.48658C3.57485 4.06482 3.25 4.84908 3.25 5.66683C3.25 6.48458 3.57485 7.26884 4.15309 7.84708C4.73132 8.42531 5.51558 8.75016 6.33333 8.75016H7.25V11.9168H4C3.58579 11.9168 3.25 12.2526 3.25 12.6668C3.25 13.081 3.58579 13.4168 4 13.4168H7.25V15.3332C7.25 15.7474 7.58579 16.0832 8 16.0832C8.41421 16.0832 8.75 15.7474 8.75 15.3332V13.4168H9.66667C10.4844 13.4168 11.2687 13.092 11.8469 12.5137C12.4252 11.9355 12.75 11.1512 12.75 10.3335C12.75 9.51575 12.4252 8.73149 11.8469 8.15325C11.2687 7.57501 10.4844 7.25016 9.66667 7.25016H8.75V4.0835H11.3333C11.7475 4.0835 12.0833 3.74771 12.0833 3.3335C12.0833 2.91928 11.7475 2.5835 11.3333 2.5835H8.75V0.666504ZM7.25 4.0835H6.33333C5.91341 4.0835 5.51068 4.25031 5.21375 4.54724C4.91682 4.84418 4.75 5.2469 4.75 5.66683C4.75 6.08676 4.91682 6.48948 5.21375 6.78642C5.51068 7.08335 5.91341 7.25016 6.33333 7.25016H7.25V4.0835ZM8.75 8.75016V11.9168H9.66667C10.0866 11.9168 10.4893 11.75 10.7863 11.4531C11.0832 11.1562 11.25 10.7534 11.25 10.3335C11.25 9.91357 11.0832 9.51084 10.7863 9.21391C10.4893 8.91698 10.0866 8.75016 9.66667 8.75016H8.75Z" fill="#191919"/>
</g>
<defs>
<clipPath id="clip0_2024_754">
<rect width="16" height="16" fill="white"/>
</clipPath>
</defs>
</svg>
