<svg width="868" height="499" viewBox="0 0 868 499" fill="none" xmlns="http://www.w3.org/2000/svg">
<g clip-path="url(#clip0_6_1225)">
<path d="M335.67 392.123C335.719 390.512 333.166 390.314 333.097 391.971C332.975 395.669 332.065 399.299 330.426 402.626C330.25 402.436 330.03 402.291 329.786 402.202C329.541 402.113 329.279 402.083 329.02 402.114C324.516 403.236 320.501 405.762 317.573 409.316C315.707 411.604 313.27 413.375 310.5 414.455C307.731 415.535 304.723 415.887 301.773 415.476C296.005 414.643 290.127 414.979 284.498 416.463C279.068 418.491 274.442 422.815 268.551 423.4C261.979 424.086 255.61 420.779 248.976 421.414C242.918 422.518 237.147 424.804 232.001 428.14C222.513 433.161 220.572 431.549 210.725 429.626C194.18 426.333 190.614 438.777 175.231 436.583C169.521 435.818 162.994 434.575 158.422 438.868C153.863 433.857 154.89 420.118 154.962 415.431C154.961 414.649 153.687 414.33 153.541 415.154C150.846 427.807 152.557 443.171 166.591 448.251C178.983 452.767 199.549 449.686 213.37 447.633C238.791 443.906 284.701 434.378 307.712 424.861C321.546 419.173 335.179 408.185 335.67 392.123ZM252.829 361.125C249.305 364.57 246.7 368.819 245.243 373.495C250.005 375.192 254.842 377.241 259.752 378.947C261.968 371.151 266.782 364.32 273.418 359.553L273.366 359.549C269.813 358.257 266.462 356.479 263.41 354.267C259.461 355.848 255.866 358.178 252.829 361.125Z" fill="#191919"/>
<path d="M162.762 416.487C173.921 419.759 183.32 414.938 203.291 415.578C217.705 416.129 232.054 418.651 246.532 418.125C261.01 417.6 274.932 413.249 288.799 409.732C300.303 406.82 312.954 404.61 322.826 397.61C335.908 388.353 335.73 375.075 326.48 370.452C318.464 366.524 307.362 368.894 294.361 368.906C291.144 363.152 280.915 361.888 275.469 360.449C274.88 360.751 274.314 361.096 273.775 361.481C267.589 366.035 262.973 372.385 260.563 379.655C268.711 382.956 277.775 383.263 286.131 380.522C289.926 379.073 295.148 375.342 295.048 371.201C303.213 370.438 311.428 370.363 319.605 370.976C334.052 372.933 333.808 386.147 321.869 395.181C312.908 401.89 301.101 404.003 290.502 406.675C278.043 410.411 265.328 413.247 252.459 415.161C239.442 415.847 226.39 415.326 213.471 413.603C201.197 412.335 188.806 412.731 176.638 414.782C159.55 416.471 152.474 409.323 151.465 398.826C151.238 393.559 151.553 388.282 152.408 383.079C153.091 377.459 155.385 370.553 162.583 373.487C168.33 375.843 171.063 382.194 176.694 384.902C178.959 385.984 181.454 386.505 183.966 386.421C186.478 386.338 188.933 385.652 191.122 384.421C195.254 381.369 198.771 377.569 201.489 373.221C204.81 369.015 209.446 366.032 214.663 364.743C217.599 367.302 221.379 368.698 225.284 368.665C226.81 362.368 230 356.591 234.524 351.933C239.048 347.274 244.741 343.903 251.013 342.168C248.023 337.47 243.375 334.054 237.982 332.591C234.556 332.026 231.042 332.322 227.76 333.453C224.477 334.583 221.531 336.511 219.187 339.062C216.542 342.033 214.753 345.659 214.008 349.557C213.776 349.736 213.608 349.986 213.532 350.268C212.026 354.361 211.985 358.844 213.414 362.963C201.392 365.775 199.183 373.949 193.155 379.836C190.686 382.358 187.313 383.801 183.776 383.852C180.239 383.902 176.827 382.554 174.289 380.103C170.207 376.407 167.032 371.554 161.314 370.379C159.592 369.891 157.754 370.008 156.108 370.708C154.462 371.409 153.108 372.651 152.273 374.227C151.98 373.584 151.539 373.018 150.987 372.575C146.856 369.044 140.145 374.8 142.39 380.683C143.013 382.09 143.986 383.318 145.216 384.249C146.811 385.717 148.099 387.482 149.009 389.445C148.043 395.588 148.832 401.878 151.288 407.595C152.513 409.759 154.158 411.659 156.128 413.186C158.098 414.713 160.353 415.835 162.762 416.487ZM146.208 381.102C145.743 380.551 145.397 379.911 145.189 379.222C144.982 378.533 144.918 377.81 145.002 377.095C145.136 376.43 145.473 375.823 145.968 375.355C146.462 374.888 147.089 374.584 147.763 374.484C150.181 374.428 150.15 377.697 150.292 379.031C149.875 380.68 149.577 382.356 149.401 384.046C148.387 383.002 147.112 382.037 146.225 381.103L146.208 381.102Z" fill="#191919"/>
<path d="M228.111 369.272C232.982 370.135 237.782 371.354 242.472 372.918C243.891 368.085 246.488 363.671 250.034 360.064C253.086 356.958 256.682 354.427 260.648 352.592C258.004 350.336 255.643 347.775 253.615 344.964C247.549 346.376 241.98 349.378 237.492 353.655C233.004 357.932 229.764 363.327 228.111 369.272ZM575.12 366.16C574.831 364.519 572.309 365.06 572.612 366.697C573.25 370.344 573.093 374.084 572.151 377.665C571.917 377.526 571.656 377.437 571.385 377.404C571.114 377.371 570.84 377.394 570.579 377.473C566.303 379.573 562.828 382.983 560.67 387.196C559.281 389.768 557.239 391.938 554.747 393.494C552.255 395.051 549.397 395.94 546.452 396.074C540.695 396.393 535.069 397.899 529.933 400.493C524.776 403.768 520.98 409.238 514.744 410.688C508.406 412.18 501.766 410.415 495.482 412.594C489.94 414.997 484.908 418.413 480.648 422.664C473.145 428.992 470.089 428.071 461.034 428.038C448.572 428.018 443.874 435.033 437.522 438.922C434.329 440.868 430.671 441.939 426.922 442.028C421.203 442.328 414.737 442.602 411.164 447.624C411.067 447.571 411.025 447.47 410.928 447.416C405.197 441.385 404.457 432.948 402.981 425.255C402.938 425.089 402.838 424.943 402.697 424.843C402.556 424.743 402.384 424.696 402.211 424.709C402.038 424.723 401.876 424.796 401.753 424.917C401.629 425.038 401.553 425.197 401.538 425.368C401.489 438.613 406.557 453.339 421.564 455.356C434.376 457.093 453.159 450.257 466.55 445.391C490.294 436.807 533.239 418.479 554.158 404.323C566.72 395.696 577.971 382.22 575.12 366.16ZM465.526 364.907C470.481 364.787 475.439 365.029 480.358 365.63C480.788 360.487 482.5 355.53 485.338 351.203C487.685 347.714 490.6 344.634 493.965 342.089C490.913 340.393 488.073 338.347 485.505 335.992C479.87 338.608 475.045 342.669 471.532 347.753C468.019 352.838 465.945 358.761 465.526 364.907Z" fill="#191919"/>
<path d="M414.24 423.632C425.195 423.369 431.062 417.658 452.941 414.237C466.669 412.153 480.647 411.651 494.15 408.326C507.412 404.303 520.217 398.926 532.359 392.282C543.463 386.909 556.165 382.109 564.591 372.743C575.047 361.091 571.958 348.8 562.713 346.098C556.398 344.203 549.301 346.238 543.174 347.793C528.755 351.468 530.828 350.992 530.337 350.713C526.354 346.264 515.116 346.833 510.11 346.483C504.173 352.321 500.432 360.001 499.51 368.243C507.833 369.733 516.421 368.39 523.877 364.43C527.415 362.332 532.842 357.597 531.626 353.114C538.949 351.436 546.112 349.107 553.589 348.127C569.631 346.058 572.646 358.844 563.501 370.148C556.243 378.988 544.795 383.514 534.712 388.366C523.219 394.533 511.294 399.872 499.029 404.343C482.028 409.674 463.342 409.43 445.193 412.993C429.966 416.1 420.642 422.343 410.098 420.827C407.18 420.43 404.427 419.249 402.139 417.41C399.851 415.572 398.114 413.147 397.118 410.398C395.527 405.557 394.631 400.518 394.454 395.429C394.019 390.302 392.877 381.307 400.582 381.464C406.907 381.591 411.157 387.386 416.822 389.485C419.173 390.326 421.691 390.6 424.17 390.286C426.648 389.971 429.016 389.077 431.077 387.677C440.036 381.377 437.683 369.125 451.51 362.785C454.848 364.682 458.772 365.298 462.537 364.515L462.684 364.524C462.85 358.861 464.38 353.32 467.146 348.363C469.912 343.406 473.834 339.177 478.584 336.029C479.774 335.213 481.11 334.362 482.491 333.56C478.802 329.747 473.87 327.353 468.57 326.804C465.115 326.803 461.714 327.661 458.678 329.299C455.642 330.937 453.069 333.303 451.193 336.181C447.158 342.379 445.587 355.945 449.936 361.319C437.843 366.815 438.267 376.129 432.568 383.154C427.443 389.426 419.66 388.916 413.475 384.776C409.148 381.938 404.807 378.381 399.28 378.985C397.719 379.142 396.236 379.742 395.011 380.715C393.786 381.688 392.871 382.991 392.376 384.468C391.896 383.837 391.267 383.334 390.544 383.002C389.822 382.671 389.028 382.521 388.233 382.566C387.438 382.611 386.666 382.85 385.986 383.261C385.306 383.672 384.739 384.243 384.335 384.924C383.532 386.041 383.07 387.364 383.006 388.734C382.942 390.105 383.277 391.465 383.973 392.651C384.897 393.961 386.145 395.014 387.596 395.71C389.382 396.692 390.909 398.077 392.056 399.752C392.869 400.661 392.747 411.988 399.49 418.485C401.476 420.277 403.805 421.656 406.339 422.541C408.873 423.425 411.559 423.796 414.24 423.632ZM387.839 392.306C386.138 391.069 385.01 387.576 387.274 386.091C389.745 384.472 390.888 386.842 391.529 389.334C391.473 391.103 391.512 392.874 391.645 394.639C390.408 393.779 388.916 393.097 387.839 392.306Z" fill="#191919"/>
<path d="M482.327 366.064C487.336 366.789 492.475 367.888 497.633 368.584C498.208 360.472 501.513 352.786 507.019 346.753C503.263 346.194 499.606 345.109 496.159 343.53C492.3 346.025 489.055 349.344 486.662 353.244C484.268 357.143 482.787 361.523 482.327 366.064ZM213.287 57.3816C211.91 57.2058 207.599 58.9105 207.267 56.9754C207.009 55.488 204.752 55.9922 204.959 57.4765C205.126 58.2425 205.547 58.9316 206.154 59.435C206.76 59.9384 207.519 60.2275 208.31 60.2566C209.414 60.2644 210.511 60.098 211.562 59.7637C212.318 59.6165 213.099 59.6467 213.842 59.8519C214.585 60.0571 215.269 60.4316 215.839 60.9454C215.998 61.0489 216.188 61.0975 216.378 61.0838C216.568 61.0701 216.749 60.9947 216.891 60.8694C217.034 60.7441 217.131 60.5757 217.167 60.3904C217.203 60.2051 217.177 60.0131 217.092 59.8441C216.706 59.1597 216.158 58.5781 215.495 58.1492C214.833 57.7204 214.075 57.4569 213.287 57.3816ZM222.823 71.0894C221.974 71.6474 221.002 71.9947 219.989 72.102C219.71 72.1569 219.464 72.3192 219.306 72.5533C219.149 72.7874 219.091 73.0741 219.147 73.3502C219.202 73.6263 219.366 73.8693 219.603 74.0257C219.839 74.1821 220.129 74.2391 220.408 74.1842C222.515 73.7703 226.414 72.334 226.226 69.6713C225.769 67.9583 225.14 66.2947 224.349 64.7052C224.068 62.8222 223.649 60.9618 223.095 59.1387C223.027 59.0062 222.921 58.8968 222.79 58.8245C222.658 58.7522 222.508 58.7202 222.359 58.7326C222.209 58.745 222.067 58.8014 221.95 58.8943C221.832 58.9873 221.746 59.1127 221.701 59.2546C221.323 62.5862 221.914 65.9555 223.403 68.967C223.731 70.0151 223.907 70.2665 222.823 71.0894ZM210.492 72.6231C210.387 72.4361 210.225 72.2869 210.029 72.1969C209.833 72.1069 209.613 72.0809 209.401 72.1225C209.189 72.1641 208.996 72.2712 208.85 72.4285C208.704 72.5857 208.611 72.7849 208.587 72.9973C207.944 77.1306 205.234 85.9977 210.755 88.1351C215.854 90.1056 219.581 83.0589 220.549 79.2978C220.579 78.916 220.47 78.5362 220.244 78.2257C220.017 77.9153 219.687 77.6944 219.312 77.6021C217.548 77.5244 215.828 77.0324 214.295 76.1666C212.761 75.3008 211.458 74.0862 210.492 72.6231ZM218.432 79.0741C217.692 81.4416 216.314 83.5644 214.447 85.2145C214.071 85.4736 213.639 85.6419 213.185 85.7058C212.731 85.7698 212.269 85.7277 211.835 85.5828C211.4 85.438 211.006 85.1945 210.684 84.8718C210.362 84.5491 210.121 84.1562 209.979 83.7246C209.586 80.9685 209.72 78.164 210.374 75.4572C211.404 76.5643 212.648 77.4551 214.032 78.0765C215.416 78.6979 216.913 79.0371 218.432 79.0741ZM334.428 148.456C332.853 151.862 332.065 155.574 332.124 159.32C332.182 163.067 333.085 166.753 334.767 170.111C334.866 170.286 335.024 170.421 335.214 170.492C335.403 170.564 335.612 170.568 335.804 170.503C335.996 170.438 336.159 170.308 336.264 170.137C336.37 169.966 336.412 169.763 336.382 169.564C335.251 162.236 333.033 160.943 336.172 149.101C336.259 148.872 336.249 148.618 336.147 148.396C336.045 148.174 335.857 148.001 335.626 147.915C335.394 147.829 335.138 147.838 334.914 147.94C334.689 148.041 334.514 148.227 334.428 148.456ZM204.662 362.857C193.618 360.394 177.399 362.504 166.417 365.314C165.362 317.578 166.457 268.988 180.807 223.421C182.64 217.644 184.912 211.941 186.6 206.113C186.851 205.194 185.512 204.383 185.012 205.331C177.069 220.42 170.823 248.794 168.122 265.651C163.449 299.168 162.034 333.053 163.896 366.84C163.951 367.579 164.598 368.4 165.451 368.158C183.351 362.945 194.578 364.837 204.244 364.898C205.435 364.912 205.932 363.138 204.662 362.857ZM115.77 292.626C112.107 290.986 110.517 287.707 107.975 284.85C107.788 284.646 107.534 284.515 107.258 284.481C106.982 284.448 106.703 284.513 106.472 284.666C106.241 284.819 106.073 285.049 105.999 285.314C105.925 285.579 105.95 285.862 106.069 286.11C107.014 288.36 108.447 290.376 110.266 292.017C112.085 293.658 114.246 294.884 116.596 295.607C118.386 296.151 120.305 296.121 122.076 295.52C123.848 294.92 125.382 293.779 126.458 292.262C132.301 295.136 138.302 297.684 144.432 299.893C146.903 300.826 150.1 302.044 152.263 299.816C152.618 299.431 152.888 298.976 153.055 298.482C153.223 297.988 153.285 297.464 153.237 296.945C153.189 296.425 153.032 295.921 152.777 295.465C152.522 295.009 152.174 294.61 151.755 294.294C147.404 289.978 143.581 290.227 124.779 270.631C124.721 270.567 124.65 270.514 124.572 270.477C124.493 270.439 124.408 270.417 124.321 270.412C124.234 270.407 124.146 270.419 124.064 270.448C123.982 270.476 123.906 270.52 123.84 270.578C123.775 270.635 123.722 270.705 123.684 270.783C123.647 270.861 123.624 270.945 123.619 271.031C123.615 271.118 123.627 271.204 123.656 271.286C123.684 271.367 123.729 271.442 123.787 271.507C130.133 279.944 137.755 287.363 146.385 293.5C146.767 293.793 148.165 294.564 149.198 295.31C149.371 295.434 149.516 295.593 149.624 295.775C149.731 295.958 149.8 296.16 149.826 296.37C149.851 296.58 149.832 296.793 149.771 296.995C149.71 297.198 149.607 297.386 149.469 297.547C148.068 299.147 146.345 298.009 144.69 297.472C123.225 289.463 122.302 286.507 115.884 282.087C114.931 281.445 113.964 282.71 114.61 283.536C117.381 286.813 120.791 289.503 124.637 291.444C123.434 292.471 121.956 293.129 120.381 293.339C118.807 293.549 117.205 293.301 115.77 292.626Z" fill="#191919"/>
<path d="M264.98 184.253C261.535 158.059 249.051 151.524 223.545 152.952C195.129 154.532 167.56 166.601 144.431 183.903C141.718 183.838 139.006 184.038 136.333 184.5C121.209 186.755 101.918 192.83 91.0526 203.41C89.8027 199.447 88.5004 195.535 87.1458 191.675C98.8023 182.108 102.363 183.716 107.267 180.022C107.4 179.901 107.494 179.744 107.539 179.57C107.584 179.396 107.576 179.214 107.518 179.044C107.46 178.874 107.354 178.725 107.212 178.614C107.071 178.503 106.9 178.435 106.72 178.419C102.663 179.046 98.8067 180.591 95.4482 182.934C92.1925 184.761 89.1266 186.904 86.2948 189.329C83.1973 180.637 79.7962 172.076 76.0915 163.648C75.4312 162.185 73.2361 163.333 73.8478 164.81C83.7746 187.374 91.4472 210.851 96.7553 234.902C97.4063 236.943 97.8458 239.043 98.0672 241.172C98.0624 244.521 94.8303 245.56 92.4573 247.138C85.9179 251.578 80.0574 256.93 75.0563 263.029C60.5449 245.103 43.164 219.542 34.6317 198.128C29.3966 186.165 27.794 172.946 30.0206 160.093C35.7894 133.531 64.0853 122.829 89.4074 109.217C89.6155 109.098 89.7698 108.904 89.8387 108.676C89.9077 108.447 89.886 108.201 89.7782 107.988C89.6704 107.775 89.4846 107.611 89.2588 107.529C89.033 107.448 88.7843 107.455 88.5636 107.549C75.4913 112.864 63.0067 119.504 51.3081 127.363C40.934 133.607 32.9795 143.134 28.7258 154.411C20.2014 180.154 33.9381 206.446 46.9633 228.06C54.833 240.963 63.558 253.333 73.0807 265.088C75.9519 268.15 78.1583 271.766 79.5631 275.71C82.6205 282.747 87.2523 296.971 94.8563 299.68C95.7628 300.041 96.7449 300.173 97.7155 300.066C98.686 299.959 99.6149 299.616 100.42 299.067C101.314 298.292 102.004 297.312 102.43 296.212C104.193 297.641 106.392 298.436 108.668 298.468C110.944 298.5 113.165 297.768 114.969 296.39C115.119 296.259 115.216 296.078 115.242 295.881C115.268 295.684 115.221 295.484 115.11 295.319C114.998 295.154 114.83 295.035 114.636 294.984C114.443 294.933 114.237 294.953 114.058 295.041C112.514 295.818 110.782 296.152 109.058 296.007C107.333 295.862 105.683 295.243 104.293 294.22C101.751 292.269 99.5339 289.932 97.7239 287.296C97.0842 286.36 95.9557 287.778 96.2596 288.586C97.2597 291.072 98.8827 293.263 100.975 294.953C101.161 295.11 100.914 295.381 100.691 295.704C97.5216 300.338 92.3598 294.968 90.3012 292.093C85.0388 284.771 82.788 273.483 76.8139 264.975C79.8099 261.153 83.1737 257.63 86.8578 254.455C90.7716 251.108 98.1994 246.591 98.504 246.079C105.182 255.534 124.495 249.909 130.367 260.202C131.464 262.161 131.966 264.394 131.813 266.631C131.678 268.884 130.382 270.629 130.106 272.775C130.097 272.941 130.132 273.106 130.208 273.255C130.283 273.403 130.396 273.53 130.536 273.622C130.676 273.714 130.837 273.769 131.004 273.781C131.171 273.792 131.339 273.761 131.49 273.689C134.675 271.766 134.969 266.424 134.293 263.187C133.867 261.1 132.967 259.138 131.66 257.45C130.353 255.762 128.675 254.393 126.753 253.447C122.59 251.625 118.155 250.489 113.623 250.085C108.533 249.825 103.702 247.779 99.9926 244.311C100.738 242.09 100.729 239.688 99.967 237.474C97.6908 226.67 94.9243 215.974 91.6759 205.419C95.4455 202.883 99.0271 200.147 102.996 197.921C114.947 191.612 128.004 187.629 141.463 186.187C128.096 196.609 116.245 208.813 106.245 222.455C105.654 223.253 106.877 224.313 107.57 223.564C121.12 207.494 136.535 193.068 153.495 180.587C171.118 168.23 191.337 160.005 212.629 156.534C223.296 154.319 234.334 154.566 244.89 157.256C255.577 160.837 259.998 170.587 261.808 180.873C266.011 204.234 260.392 228.586 254.532 251.156C247.67 276.355 239.106 301.068 228.897 325.125C228.321 326.468 230.412 327.131 231.028 325.842C241.49 303.281 249.813 279.803 255.889 255.711C262.123 232.719 268.14 208.247 264.98 184.253ZM438.472 360.237C428.738 362.765 419.539 367.004 411.311 372.752C383.874 341.861 362.888 305.872 349.567 266.873C349.017 265.313 346.461 265.801 347.009 267.408C360.559 307.213 381.979 343.933 410.013 375.416C410.207 375.642 410.474 375.795 410.769 375.848C411.063 375.902 411.367 375.853 411.63 375.71C420.288 370.245 429.423 365.565 438.927 361.726C439.096 361.644 439.231 361.505 439.306 361.333C439.382 361.161 439.393 360.969 439.338 360.789C439.284 360.61 439.167 360.456 439.008 360.355C438.849 360.254 438.659 360.212 438.472 360.237ZM348.691 255.864C327.497 263.717 305.539 269.365 283.17 272.719C268.835 274.809 265.717 274.237 261.378 275.811C261.251 275.878 261.146 275.981 261.078 276.107C261.009 276.233 260.979 276.376 260.992 276.519C261.005 276.661 261.059 276.797 261.15 276.909C261.24 277.021 261.361 277.104 261.498 277.147C264.94 277.602 268.431 277.542 271.854 276.968C294.735 274.652 317.273 269.743 339.029 262.338C342.661 261.283 346.204 259.947 349.626 258.34C349.898 258.179 350.104 257.928 350.208 257.631C350.313 257.334 350.309 257.01 350.198 256.716C350.087 256.421 349.875 256.175 349.6 256.019C349.325 255.864 349.003 255.809 348.691 255.864Z" fill="#191919"/>
<path d="M154.818 305.664C148.38 305.986 145.314 309.474 130.478 308.599C122.053 307.832 113.818 305.631 106.112 302.088C105.905 302.028 105.683 302.044 105.486 302.135C105.289 302.226 105.129 302.384 105.034 302.583C104.94 302.782 104.917 303.008 104.97 303.222C105.023 303.436 105.148 303.624 105.323 303.752C118.825 314.249 148.01 312.958 155.493 307.56C155.637 307.409 155.736 307.219 155.779 307.012C155.822 306.806 155.808 306.592 155.737 306.394C155.667 306.196 155.543 306.022 155.38 305.893C155.218 305.764 155.023 305.685 154.818 305.664Z" fill="#191919"/>
<path d="M224.912 54.4231C225.341 54.4483 225.768 54.3471 226.139 54.1321C226.51 53.9171 226.808 53.5981 226.996 53.2153C227.183 52.8325 227.252 52.4033 227.193 51.9817C227.135 51.5602 226.951 51.1653 226.666 50.8471C226.38 50.5289 226.006 50.3016 225.59 50.194C225.174 50.0863 224.735 50.1031 224.329 50.2423C223.923 50.3815 223.568 50.6369 223.308 50.976C223.049 51.3151 222.897 51.7229 222.871 52.1476C222.844 52.7156 223.042 53.2715 223.424 53.6967C223.805 54.1219 224.339 54.3826 224.912 54.4231ZM209.924 385.971C211.815 395.19 224.971 398.986 232.864 400.585C237.845 401.698 242.978 401.983 248.052 401.428C251.652 401.002 259.363 399.835 260.785 395.94C260.857 395.726 260.878 395.498 260.848 395.273C260.817 395.049 260.734 394.835 260.607 394.647C260.479 394.46 260.31 394.303 260.112 394.19C259.914 394.078 259.693 394.011 259.465 393.996C257.549 393.638 255.983 394.92 254.257 395.608C243.387 398.774 231.714 397.805 221.526 392.891C217.735 390.988 214.344 388.388 211.536 385.229C211.409 385.069 211.231 384.956 211.03 384.908C210.83 384.861 210.62 384.881 210.433 384.967C210.246 385.053 210.094 385.199 210.002 385.381C209.909 385.563 209.882 385.771 209.924 385.971ZM447.93 389.82C452.484 398.342 466.494 397.986 474.676 397.24C479.623 396.854 484.472 395.663 489.028 393.714C492.188 392.28 499.436 388.874 499.478 384.898C499.486 384.674 499.443 384.45 499.351 384.244C499.26 384.038 499.124 383.855 498.951 383.708C498.779 383.562 498.576 383.455 498.357 383.397C498.137 383.338 497.908 383.329 497.684 383.37C495.839 383.507 494.75 385.111 493.343 386.21C485.283 392.632 472.387 394.458 462.162 393.261C457.565 392.631 453.149 391.066 449.192 388.665C448.471 388.282 447.435 389.006 447.93 389.82Z" fill="#EF233C"/>
<path d="M787.573 279.881C787.434 257.356 788.728 234.936 790.559 212.561C790.571 212.174 790.47 211.792 790.267 211.462C790.064 211.131 789.768 210.866 789.415 210.7C789.062 210.533 788.669 210.472 788.281 210.524C787.894 210.575 787.531 210.738 787.236 210.991C767.442 224.843 748.609 239.997 730.865 256.35C730.524 256.678 730.31 257.115 730.261 257.584C730.212 258.053 730.332 258.524 730.598 258.915C730.864 259.305 731.261 259.591 731.718 259.721C732.175 259.851 732.664 259.817 733.099 259.626C739.407 262.837 745.799 265.881 752.27 268.755C728.506 310.288 700.305 355.195 670.856 397.285C661.33 382.684 658.323 378.669 654.952 374.111C652.861 371.387 650.619 368.779 648.237 366.301C648.475 365.682 648.517 365.005 648.357 364.361C648.198 363.717 647.844 363.136 647.343 362.696C646.842 362.257 646.217 361.978 645.553 361.899C644.888 361.819 644.215 361.942 643.623 362.252C634.081 367.165 608.635 382.76 551.674 413.583C521.117 430.144 425.78 478.23 409.578 487.339C409.133 485.482 398.764 451.111 392.123 432.118C390.597 426.778 388.612 421.578 386.188 416.574C385.16 414.791 382.873 412.175 380.268 412.478C372.3 413.404 51.4804 489.781 48.2025 490.647C42.3921 492.003 36.7006 493.817 31.1823 496.072C30.793 496.28 30.4917 496.619 30.3332 497.028C30.1746 497.437 30.1693 497.889 30.3182 498.302C30.467 498.714 30.7602 499.06 31.1445 499.277C31.5289 499.494 31.9789 499.567 32.4129 499.483C34.5297 499.13 35.1521 499.119 37.9549 498.78C43.2989 498.044 377.958 419.833 380.611 419.02C381.771 423.963 383.268 428.823 385.093 433.565C387.225 440.152 399.445 479.329 400.389 482.576C401.963 487.882 402.649 495.233 407.775 494.152C415.217 495.335 607.621 392.94 644.239 370.046C650.95 381.41 649.646 378.494 667.394 406.162C667.715 406.756 668.184 407.258 668.756 407.621C669.329 407.984 669.985 408.195 670.664 408.235C671.342 408.275 672.019 408.142 672.631 407.849C673.242 407.556 673.768 407.112 674.157 406.56C706.83 360.159 733.331 317.641 759.601 272.017C767.911 275.554 776.374 278.736 784.99 281.564C785.272 281.658 785.572 281.687 785.867 281.649C786.163 281.611 786.445 281.507 786.694 281.345C786.943 281.183 787.151 280.967 787.304 280.713C787.456 280.46 787.548 280.175 787.573 279.881Z" fill="#EF233C"/>
<path d="M636.016 297.737C633.501 296.392 630.678 295.717 627.822 295.78C628.233 293.054 628.98 290.447 629.542 287.725C629.754 286.66 628.285 285.591 627.619 286.78C626.091 289.54 625.119 292.57 624.758 295.698C621.951 295.542 619.146 296.032 616.561 297.13C616.379 297.228 616.235 297.382 616.148 297.569C616.062 297.756 616.039 297.965 616.082 298.166C616.125 298.367 616.232 298.549 616.387 298.685C616.543 298.821 616.738 298.903 616.944 298.92C619.435 299.048 621.931 299.033 624.42 298.873C623.903 302.012 624.222 305.23 625.346 308.208C625.47 308.439 625.665 308.623 625.903 308.735C626.141 308.847 626.409 308.879 626.667 308.828C626.925 308.777 627.16 308.645 627.337 308.452C627.513 308.258 627.623 308.013 627.648 307.753C627.844 304.84 627.82 301.917 627.577 299.007C630.253 299.524 632.97 299.8 635.695 299.83C636.594 299.685 636.734 298.214 636.016 297.737ZM595.621 160.079C592.937 159.102 589.99 159.102 587.306 160.081C585.985 156.646 583.596 153.718 580.486 151.722C580.269 151.587 580.011 151.534 579.759 151.571C579.506 151.608 579.275 151.733 579.107 151.924C578.938 152.115 578.844 152.359 578.841 152.612C578.837 152.866 578.925 153.112 579.088 153.308C580.986 155.703 582.653 158.269 584.07 160.972C581.612 161.611 579.327 162.784 577.382 164.406C577.222 164.548 577.114 164.738 577.074 164.946C577.034 165.155 577.064 165.371 577.16 165.561C577.256 165.751 577.412 165.904 577.604 165.997C577.796 166.091 578.014 166.118 578.224 166.077C580.587 165.483 582.822 164.481 585.094 163.731C585.536 165.22 585.809 166.752 585.906 168.301C585.842 169.751 586.006 171.202 586.391 172.601C586.496 172.798 586.649 172.964 586.837 173.084C587.025 173.204 587.241 173.274 587.464 173.287C587.687 173.3 587.91 173.256 588.111 173.159C588.312 173.062 588.484 172.915 588.611 172.732C589.825 169.561 589.733 166.044 588.355 162.94C590.814 162.822 593.236 162.302 595.525 161.401C596.004 161.085 596.15 160.309 595.621 160.079ZM754.019 119.257C756.286 116.36 757.571 112.825 757.689 109.158C757.697 108.909 757.617 108.666 757.461 108.471C757.306 108.275 757.087 108.141 756.841 108.091C756.596 108.041 756.341 108.078 756.12 108.197C755.9 108.316 755.73 108.508 755.638 108.74C754.545 111.595 753.189 114.343 751.586 116.95C749.78 115.181 747.591 113.843 745.186 113.038C744.332 112.79 743.4 113.864 744.155 114.599C745.832 116.318 747.879 117.667 749.765 119.24C746.189 123.051 744.226 122.974 742.794 124.92C742.666 125.108 742.591 125.326 742.577 125.553C742.563 125.779 742.611 126.005 742.715 126.207C742.82 126.409 742.976 126.579 743.17 126.7C743.363 126.821 743.585 126.888 743.814 126.894C745.489 126.606 747.09 125.988 748.521 125.077C749.952 124.166 751.185 122.979 752.147 121.587C753.503 123.63 755.203 125.427 757.174 126.896C757.595 127.115 758.358 126.914 758.298 126.325C757.803 123.524 756.278 121.005 754.019 119.257ZM752.245 25.7229C745.491 15.8157 734.435 6.69833 721.797 7.0317C721.621 7.02534 721.447 7.06973 721.296 7.15949C721.145 7.24925 721.024 7.38053 720.946 7.53743C720.869 7.69434 720.839 7.87016 720.86 8.04359C720.881 8.21702 720.953 8.38062 721.066 8.51461C726.094 14.7745 728.633 22.6483 728.204 30.6437C726.937 29.6146 725.473 28.8533 723.899 28.4063C722.326 27.9593 720.677 27.8361 719.054 28.0443C718.211 28.1412 718.241 29.2207 718.763 29.648C720.629 31.8342 721.915 34.4484 722.505 37.2533C723.096 40.0582 722.971 42.9652 722.144 45.7104C720.992 50.9491 718.788 55.4835 719.898 60.9545C720.743 65.4387 723.208 69.4624 726.829 72.2709C730.45 75.0794 734.979 76.4795 739.566 76.2088C757.747 75.0466 767.393 47.94 752.245 25.7229ZM742.293 62.2087C741.323 62.5935 740.271 62.7303 739.234 62.6063C738.196 62.4824 737.207 62.1018 736.357 61.4994C735.506 60.8971 734.822 60.0923 734.366 59.159C733.911 58.2257 733.699 57.1937 733.75 56.1577C733.292 54.2998 733.526 52.3399 734.41 50.6402C735.294 48.9404 736.767 47.6154 738.559 46.91C740.555 46.5464 742.616 46.9552 744.318 48.0525C746.021 49.1498 747.235 50.8524 747.713 52.8108C748.191 54.7693 747.895 56.8351 746.887 58.5843C745.879 60.3335 744.235 61.6334 742.293 62.2173L742.293 62.2087ZM701.309 152.794C692.015 135.491 675.846 118.58 655.242 116.483C655.087 116.477 654.932 116.51 654.794 116.58C654.655 116.649 654.536 116.753 654.449 116.881C654.363 117.009 654.31 117.157 654.297 117.311C654.284 117.465 654.311 117.619 654.375 117.76C661.906 130.315 664.338 145.245 661.177 159.517C659.339 157.219 657.01 155.355 654.358 154.061C651.706 152.766 648.796 152.073 645.841 152.032C645.666 152.027 645.493 152.073 645.343 152.163C645.194 152.253 645.073 152.384 644.996 152.54C644.919 152.696 644.889 152.871 644.909 153.044C644.929 153.217 644.999 153.38 645.11 153.515L645.248 153.669C645.249 153.79 645.276 153.909 645.327 154.019C647.859 158.09 649.392 162.695 649.802 167.463C650.213 172.23 649.49 177.027 647.692 181.466C644.737 190.284 639.29 197.783 639.652 207.469C639.861 215.549 643.143 223.25 648.839 229.024C654.535 234.798 662.223 238.216 670.355 238.59C701.415 239.945 723.912 194.891 701.309 152.794ZM672.979 219.851C665.646 221.661 659.046 218.25 658.743 205.899C658.524 196.864 665.625 189.295 673.974 192.14C676.72 193.195 679.114 194.993 680.884 197.33C682.654 199.666 683.73 202.448 683.99 205.36C684.146 208.672 683.131 211.933 681.121 214.58C679.11 217.226 676.229 219.091 672.979 219.851ZM854.678 118.944C853.464 102.961 847.058 84.9966 832.429 76.5223C832.276 76.4306 832.1 76.3844 831.922 76.3894C831.744 76.3943 831.571 76.4502 831.424 76.5502C831.277 76.6502 831.162 76.7902 831.093 76.9534C831.024 77.1167 831.003 77.2962 831.034 77.4704C832.341 89.3487 829.082 101.279 821.909 110.875C821.266 108.534 820.113 106.361 818.531 104.511C816.949 102.661 814.977 101.178 812.755 100.167C812.638 100.126 812.513 100.11 812.389 100.12C812.265 100.131 812.145 100.168 812.037 100.228C811.929 100.289 811.835 100.372 811.762 100.472C811.689 100.572 811.638 100.686 811.614 100.807C811.415 101.731 815.144 112.266 802.744 124.425C797.117 129.939 790.992 133.901 788.304 141.602C786.07 147.816 786.235 154.632 788.768 160.732C791.3 166.832 796.019 171.784 802.014 174.631C825.084 185.646 857.75 159.012 854.678 118.944ZM823.987 157.187C818.729 171.18 795.403 163.207 805.072 149.15C806.222 146.536 808.313 144.443 810.936 143.279C813.559 142.116 816.524 141.966 819.252 142.86C821.614 144.312 823.384 146.546 824.25 149.166C825.116 151.787 825.023 154.627 823.987 157.187Z" fill="#EF233C"/>
<path d="M245.203 26.1553C244.635 23.416 243.313 20.8849 241.382 18.8418C239.451 16.7986 236.987 15.3229 234.262 14.5777C232.493 14.3272 231.02 14.8772 229.325 14.1879C227.765 13.3466 226.282 12.3739 224.891 11.2806C217.505 6.75797 206.101 6.039 194.45 12.93C180.622 21.1514 171.979 35.4353 159.348 45.1858C131.935 66.376 92.9071 73.5865 74.4547 95.9799C74.3295 96.1669 74.2495 96.3798 74.2207 96.6022C74.1919 96.8246 74.2151 97.0507 74.2886 97.2629C74.362 97.475 74.4838 97.6677 74.6444 97.8261C74.8051 97.9844 75.0004 98.1041 75.2152 98.1761C88.1205 101.29 96.6195 112.526 101.172 124.269C106.794 138.799 107.13 154.774 111.592 169.632C111.646 169.842 111.746 170.037 111.886 170.204C112.026 170.371 112.201 170.506 112.4 170.597C112.598 170.689 112.815 170.736 113.034 170.734C113.253 170.733 113.469 170.683 113.667 170.589C150.121 155.133 180.124 128.837 186.594 90.3085C188.674 77.953 188.879 63.766 198.268 54.3194C206.866 45.6566 219.622 42.9785 228.679 34.9323C230.895 40.1407 234.357 44.739 238.767 48.3314C238.34 52.1314 237.917 55.9273 237.392 59.6743C235.814 59.5813 231.05 55.9446 227.229 60.5472C226.802 61.0599 227.546 61.8567 228.11 61.5285C232.563 59.0155 233.711 61.2818 237.06 61.9567C236.625 65.046 236.094 68.1214 235.468 71.1784C234.087 77.6674 232.263 84.965 226.23 88.7791C223.477 90.3713 220.389 91.314 217.206 91.534C214.024 91.754 210.833 91.2454 207.881 90.0477C200.898 87.4334 196.645 82.2305 191.49 77.267C190.596 76.4312 188.806 77.4058 189.576 78.5784C192.277 82.6583 195.813 86.1332 199.956 88.7791C204.098 91.425 208.755 93.1831 213.626 93.9401C213.29 95.1606 213.099 96.4158 213.058 97.6802C212.907 98.5043 212.922 99.3498 213.102 100.168C213.282 100.987 213.624 101.762 214.108 102.449C214.224 102.572 214.37 102.664 214.531 102.715C214.693 102.766 214.865 102.775 215.031 102.742C215.197 102.709 215.352 102.634 215.48 102.524C215.609 102.415 215.707 102.274 215.764 102.117C216.09 100.712 216.092 99.254 215.772 97.8486C215.753 96.5567 215.973 95.3606 216.049 94.0914C219.533 94.1663 222.977 93.3558 226.053 91.7375C229.02 89.8855 231.545 87.4205 233.457 84.5118C235.369 81.603 236.622 78.3194 237.13 74.8863C239.239 66.6287 240.331 58.1488 240.382 49.6313C240.476 49.7358 240.62 49.7916 240.714 49.8961C240.896 50.0096 241.101 50.0815 241.315 50.1067C241.528 50.1319 241.745 50.1097 241.948 50.0418C242.152 49.9738 242.338 49.8618 242.492 49.7139C242.647 49.5659 242.766 49.3858 242.841 49.1866C246.374 42.033 247.212 33.8668 245.203 26.1553ZM213.103 14.9494C209.733 15.2818 206.421 16.0426 203.248 17.213C199.979 18.832 198.368 21.6802 195.57 23.7228C194.844 24.2179 193.531 23.8479 193.692 22.829C194.749 15.9251 206.99 10.2263 213.214 13.0928C213.412 13.1645 213.582 13.2975 213.698 13.4722C213.814 13.6468 213.87 13.8537 213.857 14.0622C213.845 14.2707 213.765 14.4696 213.629 14.6294C213.493 14.7892 213.308 14.9014 213.103 14.9494ZM332.122 174.247C331.725 174.271 331.278 174.244 330.88 174.272C312.18 174.935 287.402 183.359 270.284 190.806C269.391 191.184 269.917 192.794 270.881 192.459C289.579 186.452 313.862 176.489 333.528 177.075C333.028 176.147 332.559 175.204 332.122 174.247ZM449.588 334.627C446.032 321.35 442.005 308.097 437.6 295.041C436.784 295.525 435.877 295.839 434.934 295.964C439.379 308.924 443.241 322.046 446.912 335.205C447.372 336.902 450.042 336.341 449.588 334.627ZM430.365 269.805C430.296 269.679 430.188 269.578 430.056 269.518C429.924 269.458 429.776 269.442 429.634 269.473C429.492 269.503 429.364 269.579 429.27 269.687C429.175 269.796 429.119 269.932 429.109 270.076C429.013 273.353 430.012 276.798 430.25 280.095C430.768 288.591 430.074 297.116 428.19 305.42C428.014 307.102 427.471 308.726 426.6 310.18C423.865 313.203 423.198 307.398 422.708 303.088C422.466 293.083 421.236 283.124 419.036 273.355C418.978 273.164 418.849 273.003 418.675 272.902C418.502 272.802 418.296 272.77 418.1 272.812C417.903 272.855 417.73 272.97 417.615 273.133C417.501 273.296 417.452 273.497 417.48 273.694C417.762 275.823 418.095 277.959 418.333 280.086C409.222 280.754 406.375 273.358 407.924 264.353C409.066 257.704 411.789 251.096 409.117 244.42C408.811 243.713 407.646 244.135 407.784 244.879C410.029 253.742 404.587 261.949 405.435 270.824C405.612 274.147 407.055 277.28 409.474 279.594C410.689 280.686 412.141 281.488 413.719 281.936C415.297 282.385 416.958 282.469 418.573 282.183C419.301 287.978 419.966 293.736 420.269 299.649C420.434 302.696 420.288 315.092 426.211 313.04C429.195 312.037 429.554 308.074 430.033 305.52C431.76 297.455 432.354 289.192 431.799 280.965C431.958 277.192 431.473 273.42 430.365 269.805Z" fill="#191919"/>
<path d="M438.579 267.542C438.464 267.43 438.319 267.351 438.162 267.316C438.004 267.281 437.84 267.29 437.687 267.343C437.534 267.395 437.399 267.489 437.297 267.613C437.195 267.738 437.13 267.888 437.11 268.048C437.295 270.158 437.702 272.243 438.324 274.27C438.72 276.621 438.892 279.004 438.837 281.388C438.889 283.629 438.218 285.828 436.923 287.664C435.629 289.5 433.778 290.877 431.64 291.594C431.501 291.67 431.39 291.787 431.322 291.929C431.255 292.072 431.234 292.232 431.264 292.386C431.293 292.541 431.371 292.682 431.486 292.79C431.601 292.898 431.747 292.967 431.904 292.987C434.114 292.742 436.183 291.785 437.794 290.262C439.406 288.74 440.472 286.735 440.83 284.555C441.312 281.574 441.327 278.537 440.873 275.552C440.84 272.726 440.048 269.961 438.579 267.542ZM446.021 263.994C445.921 263.88 445.79 263.799 445.643 263.76C445.496 263.721 445.341 263.727 445.198 263.777C445.054 263.826 444.929 263.917 444.839 264.038C444.748 264.159 444.696 264.305 444.689 264.455C444.435 266.6 446.296 269.124 447.038 274.882C447.55 278.752 447.105 285.317 442.063 285.958C441.266 286.058 441.392 287.296 442.18 287.343C446.669 287.659 448.703 282.656 449.071 278.989C449.267 276.352 449.058 273.7 448.45 271.126C448.322 268.57 447.48 266.101 446.021 263.994Z" fill="#191919"/>
<path d="M447.177 249.107C441.692 241.78 433.116 237.42 428.38 229.397C427.983 228.741 426.708 229.055 427.009 229.855C429.816 237.76 437.757 242.078 443.214 248.049C446.422 251.599 448.766 255.815 450.069 260.38C451.371 264.945 451.599 269.738 450.735 274.399C450.5 275.847 452.781 275.93 453.061 274.536C453.899 270.131 453.81 265.603 452.798 261.23C451.786 256.857 449.873 252.732 447.177 249.107Z" fill="#191919"/>
<path d="M429.837 227.362C414.162 193.054 387.698 152.877 360.45 129.715C337.524 110.436 309.79 97.6046 280.147 92.5622C238.741 84.6737 234.902 99.0508 216.162 104.514C211.486 105.878 206.521 105.942 201.81 104.699C199.523 104.34 197.332 103.53 195.367 102.318C193.402 101.105 191.702 99.5142 190.37 97.6395C190.227 97.3904 189.992 97.2055 189.715 97.1235C189.438 97.0414 189.14 97.0685 188.882 97.1992C188.625 97.3298 188.428 97.5538 188.334 97.8245C188.239 98.0952 188.254 98.3915 188.375 98.6516C191.287 104.721 199.187 107.2 205.434 107.96C221.025 109.849 232.702 97.1017 246.219 93.9787C261.393 90.4703 282.42 95.102 297.273 99.1414C316.398 104.424 334.379 113.145 350.319 124.867C381.524 147.831 410.499 191.39 426.944 227.097C421.382 229.24 416.441 232.711 412.56 237.201C412.466 237.315 412.391 237.443 412.337 237.58C410.65 239.205 409.013 240.872 407.424 242.546C387.702 226.356 369.124 208.847 351.82 190.142C346.665 184 341.96 177.502 337.742 170.695C337.376 170.182 336.407 170.664 336.615 171.267C342.897 189.995 391.618 232.238 406.993 244.931C407.187 245.069 407.423 245.138 407.661 245.125C407.899 245.112 408.126 245.02 408.304 244.862C410.008 242.944 411.799 241.187 413.597 239.375C413.729 239.279 413.851 239.171 413.961 239.051C414.015 239.007 414.069 238.911 414.124 238.867C417.547 234.941 421.863 231.878 426.718 229.929C426.717 229.942 426.722 229.954 426.73 229.963C426.738 229.973 426.75 229.978 426.763 229.979L429.658 228.826C429.809 228.616 429.904 228.372 429.936 228.117C429.967 227.861 429.933 227.602 429.837 227.362Z" fill="#191919"/>
<path d="M504.066 314.543C502.435 306.514 498.278 290.812 496.137 282.951C495.478 279.509 494.397 276.159 492.917 272.974C492.525 272.264 491.26 272.447 491.309 273.309C491.359 276.391 492.028 278.449 496.229 293.857C498.135 300.918 500.045 307.98 502.367 314.919C502.418 315.142 502.556 315.335 502.752 315.457C502.947 315.579 503.183 315.619 503.408 315.569C503.633 315.519 503.829 315.383 503.952 315.19C504.076 314.998 504.116 314.765 504.066 314.543ZM537.007 314.366C540.419 304.736 542.955 294.824 544.585 284.749C545.423 281.509 545.723 278.156 545.475 274.821C545.375 274.029 544.277 274.114 544.044 274.736C542.299 278.804 542.932 286.039 535.308 313.811C535.259 314.025 535.294 314.25 535.404 314.441C535.514 314.632 535.692 314.776 535.903 314.845C536.115 314.915 536.345 314.904 536.549 314.815C536.752 314.727 536.916 314.566 537.007 314.366ZM568.649 325.202C579.118 316.738 588.95 307.535 598.069 297.666C598.814 296.782 597.398 295.574 596.559 296.353C591.677 300.914 587.071 305.732 582.282 310.342C577.492 314.951 572.561 319.458 567.671 324.083C567.552 324.219 567.486 324.392 567.486 324.571C567.486 324.75 567.551 324.924 567.67 325.06C567.788 325.195 567.953 325.285 568.132 325.311C568.312 325.337 568.495 325.298 568.649 325.202ZM301.998 350.452C298.116 341.634 291.611 328.585 288.777 322.707C287.527 319.667 285.95 316.77 284.072 314.063C283.952 313.936 283.793 313.852 283.62 313.822C283.447 313.792 283.269 313.819 283.112 313.898C282.956 313.977 282.83 314.105 282.754 314.261C282.677 314.417 282.655 314.593 282.689 314.763C283.658 317.895 284.975 320.911 286.617 323.756C288.12 326.782 297.186 345.178 300.397 351.238C300.503 351.448 300.688 351.607 300.913 351.682C301.138 351.756 301.384 351.74 301.596 351.635C301.808 351.531 301.97 351.348 302.045 351.126C302.121 350.904 302.103 350.662 301.998 350.452ZM322.351 350.135C324.552 340.778 326.09 329.908 327.51 320.294C328.204 317.066 328.485 313.764 328.346 310.465C328.246 309.601 327.007 309.652 326.716 310.369C325.825 313.417 325.304 316.558 325.163 319.726C324.715 323.076 321.92 343.221 321.071 349.927C320.88 350.637 322.17 350.91 322.351 350.135ZM342.375 360.269C346.493 356.256 350.309 351.98 354.139 347.7C358.142 343.888 361.794 339.731 365.049 335.278C365.145 335.107 365.178 334.909 365.144 334.717C365.109 334.525 365.01 334.35 364.861 334.221C364.713 334.092 364.524 334.017 364.327 334.008C364.129 334 363.935 334.057 363.775 334.172C361.599 336.043 359.599 338.104 357.801 340.331C352.446 346.321 346.421 352.803 341.15 359.218C340.612 359.916 341.751 360.877 342.375 360.269Z" fill="#EF233C"/>
</g>
<defs>
<clipPath id="clip0_6_1225">
<rect width="868" height="499" fill="white"/>
</clipPath>
</defs>
</svg>
