<svg width="16" height="16" viewBox="0 0 16 16" fill="none" xmlns="http://www.w3.org/2000/svg">
<path fill-rule="evenodd" clip-rule="evenodd" d="M10.1365 3.46967C10.4294 3.17678 10.9043 3.17678 11.1972 3.46967L15.1972 7.46967C15.4901 7.76256 15.4901 8.23744 15.1972 8.53033L11.1972 12.5303C10.9043 12.8232 10.4294 12.8232 10.1365 12.5303C9.84361 12.2374 9.84361 11.7626 10.1365 11.4697L13.6062 8L10.1365 4.53033C9.84361 4.23744 9.84361 3.76256 10.1365 3.46967Z" fill="#191919"/>
<path fill-rule="evenodd" clip-rule="evenodd" d="M5.86383 3.46967C6.15672 3.76256 6.15672 4.23744 5.86383 4.53033L2.39416 8L5.86383 11.4697C6.15672 11.7626 6.15672 12.2374 5.86383 12.5303C5.57093 12.8232 5.09606 12.8232 4.80317 12.5303L0.803166 8.53033C0.510273 8.23744 0.510273 7.76256 0.803166 7.46967L4.80317 3.46967C5.09606 3.17678 5.57093 3.17678 5.86383 3.46967Z" fill="#191919"/>
</svg>
