<svg width="295" height="330" viewBox="0 0 295 330" fill="none" xmlns="http://www.w3.org/2000/svg">
<path d="M294.203 230.767C293.816 229.129 291.329 229.824 291.729 231.458C292.585 235.101 292.651 238.885 291.925 242.555C291.683 242.428 291.417 242.354 291.144 242.337C290.871 242.32 290.598 242.36 290.342 242.455C286.197 244.828 282.929 248.477 281.025 252.856C279.79 255.535 277.88 257.846 275.483 259.565C273.086 261.284 270.284 262.351 267.351 262.662C261.618 263.327 256.087 265.18 251.111 268.104C246.155 271.716 242.69 277.462 236.546 279.296C230.303 281.178 223.563 279.792 217.416 282.365C212.023 285.119 207.199 288.866 203.198 293.41C196.081 300.242 192.972 299.495 183.924 299.999C171.472 300.721 167.198 308.079 161.085 312.382C158.011 314.535 154.421 315.834 150.68 316.146C144.985 316.79 138.541 317.45 135.272 322.731C135.172 322.684 135.124 322.584 135.024 322.536C128.937 316.79 127.693 308.318 125.759 300.642C125.706 300.477 125.597 300.336 125.45 300.243C125.303 300.151 125.129 300.113 124.957 300.137C124.785 300.161 124.627 300.245 124.511 300.374C124.395 300.503 124.329 300.669 124.324 300.842C125.067 314.212 131.011 328.773 146.124 329.916C159.028 330.907 177.385 322.892 190.472 317.185C213.681 307.11 255.49 286.06 275.542 270.529C287.577 261.076 298.012 246.806 294.203 230.767ZM184.637 236.018C189.58 235.603 194.547 235.552 199.498 235.866C199.621 230.65 201.034 225.546 203.611 221.009C205.747 217.349 208.475 214.068 211.685 211.299C208.534 209.769 205.574 207.872 202.868 205.649C197.394 208.624 192.817 213.009 189.612 218.349C186.406 223.689 184.688 229.79 184.637 236.018Z" fill="#191919"/>
<path d="M137.307 298.819C148.263 297.902 153.798 291.786 175.507 287.031C189.133 284.11 203.103 282.771 216.429 278.612C229.471 273.761 241.974 267.57 253.738 260.139C264.538 254.054 276.973 248.451 284.851 238.493C294.625 226.106 290.795 213.879 281.373 211.701C274.934 210.162 267.947 212.64 261.903 214.574C247.681 219.142 249.729 218.538 249.22 218.286C244.964 214.031 233.742 215.274 228.707 215.218C223.11 221.466 219.824 229.443 219.394 237.82C227.821 238.83 236.341 236.962 243.573 232.521C246.99 230.191 252.142 225.089 250.655 220.633C257.89 218.504 264.925 215.726 272.355 214.292C288.299 211.249 292.086 223.98 283.603 235.937C276.864 245.296 265.668 250.546 255.86 256.045C244.718 262.955 233.094 269.056 221.077 274.3C204.368 280.694 185.638 281.559 167.672 286.236C152.607 290.278 143.642 297.137 132.989 296.233C130.043 296.006 127.216 294.976 124.813 293.256C122.411 291.536 120.526 289.19 119.363 286.475C117.48 281.681 116.28 276.646 115.798 271.518C115.055 266.368 113.372 257.353 121.098 257.053C127.442 256.805 132.046 262.404 137.846 264.186C140.251 264.895 142.79 265.022 145.253 264.558C147.717 264.093 150.035 263.049 152.016 261.513C160.611 254.619 157.52 242.388 170.99 235.164C174.446 236.881 178.413 237.269 182.138 236.255H182.285C182.112 230.527 183.313 224.841 185.786 219.671C188.259 214.501 191.934 209.998 196.503 206.537C197.646 205.642 198.933 204.703 200.268 203.812C196.345 200.181 191.261 198.057 185.92 197.818C182.459 198.023 179.104 199.091 176.161 200.926C173.219 202.76 170.783 205.302 169.077 208.32C165.407 214.818 164.646 228.609 169.324 233.777C157.542 240.045 158.524 249.425 153.237 256.857C148.481 263.495 140.655 263.442 134.211 259.63C129.707 257.023 125.146 253.689 119.646 254.628C118.091 254.878 116.642 255.573 115.474 256.628C114.305 257.683 113.466 259.053 113.059 260.574C112.541 259.966 111.88 259.495 111.137 259.203C110.393 258.911 109.589 258.807 108.795 258.9C108.001 258.993 107.243 259.28 106.587 259.735C105.931 260.191 105.397 260.801 105.033 261.513C104.295 262.688 103.912 264.051 103.93 265.439C103.948 266.827 104.365 268.18 105.133 269.336C106.137 270.604 107.45 271.593 108.946 272.209C110.793 273.095 112.406 274.402 113.655 276.026C114.524 276.895 115.081 288.339 122.224 294.498C124.321 296.19 126.737 297.445 129.328 298.187C131.918 298.929 134.632 299.144 137.307 298.819ZM108.985 268.758C107.207 267.611 105.868 264.151 108.046 262.517C110.424 260.734 111.711 263.06 112.502 265.537C112.552 267.327 112.697 269.113 112.937 270.888C111.646 270.093 110.111 269.493 108.985 268.758Z" fill="#191919"/>
<path d="M201.963 236.066C207.015 236.501 212.22 237.305 217.42 237.7C217.509 229.475 220.353 221.518 225.498 215.098C221.709 214.758 217.987 213.88 214.446 212.49C210.737 215.239 207.69 218.783 205.53 222.863C203.37 226.943 202.151 231.454 201.963 236.066Z" fill="#191919"/>
<path d="M168.42 261.672C173.476 269.996 187.446 268.805 195.572 267.566C200.49 266.883 205.261 265.394 209.694 263.159C212.764 261.524 219.798 257.66 219.603 253.648C219.597 253.421 219.54 253.198 219.437 252.996C219.334 252.794 219.186 252.617 219.006 252.48C218.825 252.342 218.616 252.247 218.393 252.201C218.171 252.155 217.941 252.159 217.72 252.214C215.885 252.462 214.894 254.144 213.555 255.335C205.89 262.289 193.12 264.897 182.837 264.297C178.209 263.935 173.706 262.619 169.611 260.433C168.868 260.09 167.876 260.881 168.42 261.672Z" fill="#EF233C"/>
<path d="M66.9882 298.31C64.3896 297.103 61.5222 296.591 58.6664 296.823C58.9142 294.05 59.5055 291.377 59.9055 288.6C60.0533 287.513 58.5186 286.522 57.9229 287.761C56.5587 290.635 55.7671 293.747 55.5924 296.923C52.7726 296.932 49.9931 297.593 47.4707 298.853C47.2948 298.963 47.1593 299.127 47.084 299.321C47.0088 299.514 46.998 299.727 47.0531 299.927C47.1083 300.127 47.2265 300.304 47.3902 300.431C47.5539 300.559 47.7545 300.63 47.962 300.635C50.4637 300.617 52.9621 300.453 55.4446 300.144C55.1153 303.34 55.6279 306.566 56.9316 309.502C57.0696 309.727 57.2763 309.902 57.5212 310C57.7661 310.098 58.0362 310.116 58.2916 310.049C58.547 309.982 58.7741 309.835 58.9394 309.629C59.1048 309.424 59.1996 309.17 59.2099 308.907C59.2306 305.958 59.0315 303.011 58.6142 300.092C61.3242 300.455 64.0615 300.571 66.7925 300.44C67.6838 300.24 67.736 298.749 66.9882 298.31ZM18.2879 161.907C15.5414 161.08 12.5908 161.256 9.96179 162.402C8.43296 159.017 5.86536 156.207 2.6313 154.378C2.4064 154.256 2.1452 154.217 1.89443 154.27C1.64365 154.322 1.41967 154.462 1.26271 154.664C1.10575 154.867 1.02604 155.118 1.03781 155.374C1.04958 155.63 1.15205 155.873 1.32693 156.06C3.37064 158.363 5.19455 160.851 6.77481 163.493C4.35159 164.283 2.13432 165.601 0.283491 167.353C0.132436 167.505 0.0356552 167.703 0.00810156 167.916C-0.019452 168.128 0.0237105 168.344 0.130969 168.53C0.238227 168.716 0.40363 168.861 0.601671 168.944C0.799713 169.026 1.01942 169.042 1.22695 168.987C3.5574 168.248 5.73569 167.105 7.96613 166.214C8.49778 167.688 8.86237 169.218 9.05309 170.774C9.07572 172.239 9.32658 173.692 9.7966 175.081C9.91286 175.273 10.0765 175.431 10.2719 175.541C10.4672 175.651 10.6876 175.709 10.9118 175.709C11.136 175.709 11.3564 175.651 11.5517 175.541C11.747 175.431 11.9108 175.273 12.027 175.081C13.0522 171.812 12.7492 168.271 11.1836 165.223C13.6387 164.958 16.0331 164.29 18.2705 163.245C18.7314 162.898 18.8314 162.107 18.2879 161.907ZM174.45 111.339C176.546 108.283 177.621 104.642 177.519 100.938C177.512 100.687 177.417 100.446 177.25 100.258C177.083 100.07 176.855 99.9478 176.607 99.9119C176.358 99.876 176.104 99.9291 175.891 100.062C175.678 100.195 175.518 100.399 175.441 100.638C174.517 103.581 173.324 106.433 171.876 109.157C169.961 107.48 167.689 106.261 165.232 105.593C164.363 105.393 163.493 106.532 164.293 107.227C166.076 108.861 168.206 110.1 170.189 111.574C166.837 115.629 164.867 115.668 163.549 117.715C163.432 117.912 163.371 118.137 163.37 118.366C163.37 118.595 163.431 118.82 163.548 119.017C163.664 119.215 163.831 119.377 164.032 119.487C164.233 119.598 164.46 119.652 164.689 119.645C166.349 119.256 167.915 118.538 169.293 117.533C170.671 116.529 171.835 115.26 172.715 113.799C174.195 115.779 176.006 117.489 178.067 118.854C178.502 119.05 179.254 118.802 179.158 118.211C178.495 115.416 176.817 112.967 174.45 111.339ZM167.067 17.1321C159.71 7.54361 148.093 -0.993006 135.458 0.0936291C135.282 0.0976635 135.11 0.152755 134.964 0.252224C134.818 0.351693 134.705 0.491283 134.637 0.654091C134.568 0.816899 134.549 0.995955 134.581 1.16957C134.612 1.34318 134.694 1.5039 134.815 1.6323C140.224 7.64567 143.239 15.4341 143.289 23.5215C141.959 22.5591 140.447 21.8784 138.844 21.5211C137.242 21.1638 135.584 21.1375 133.971 21.4438C133.132 21.5916 133.228 22.6783 133.775 23.0781C135.775 25.1718 137.22 27.7313 137.979 30.5245C138.738 33.3177 138.788 36.2562 138.123 39.0734C137.284 44.424 135.349 49.127 136.789 54.5775C137.904 59.0488 140.613 62.9597 144.407 65.5765C148.201 68.1932 152.82 69.3361 157.397 68.7907C175.532 66.5392 183.567 38.6344 167.067 17.1321ZM159.289 54.5123C158.34 54.9579 157.295 55.1582 156.249 55.0949C155.203 55.0315 154.19 54.7065 153.302 54.1497C152.414 53.5928 151.681 52.822 151.169 51.9079C150.657 50.9939 150.382 49.9659 150.371 48.9183C149.801 47.0721 149.919 45.0821 150.702 43.3157C151.485 41.5493 152.881 40.1258 154.632 39.3081C156.609 38.8229 158.698 39.1128 160.468 40.1181C162.238 41.1234 163.557 42.768 164.152 44.7144C164.748 46.6608 164.576 48.7613 163.672 50.5849C162.767 52.4085 161.199 53.8169 159.289 54.521V54.5123ZM123.68 148.285C113.336 131.39 96.1318 115.299 75.3752 114.408C75.2192 114.41 75.0666 114.453 74.9318 114.532C74.797 114.61 74.6846 114.722 74.6052 114.856C74.5259 114.99 74.4823 115.142 74.4785 115.298C74.4748 115.454 74.511 115.608 74.5838 115.746C82.8767 127.958 86.2067 142.869 83.897 157.447C81.9194 155.239 79.4755 153.498 76.7421 152.35C74.0087 151.202 71.0542 150.676 68.0925 150.81C67.9169 150.816 67.7466 150.872 67.602 150.972C67.4574 151.071 67.3445 151.211 67.2767 151.373C67.209 151.535 67.1891 151.713 67.2197 151.886C67.2502 152.059 67.3299 152.219 67.449 152.349L67.5969 152.496C67.6054 152.618 67.6395 152.736 67.6968 152.844C70.4759 156.799 72.2869 161.351 72.984 166.134C73.681 170.917 73.2446 175.796 71.7099 180.379C69.2795 189.446 64.2751 197.331 65.2186 207.076C65.9114 215.21 69.6596 222.781 75.7095 228.264C81.7593 233.748 89.6619 236.738 97.8275 236.632C129.01 236.154 148.836 189.39 123.68 148.285ZM99.3318 217.581C92.097 219.842 85.2839 216.795 84.2404 204.359C83.4796 195.262 90.1361 187.208 98.6666 189.581C101.48 190.482 103.985 192.153 105.897 194.403C107.81 196.654 109.054 199.395 109.488 202.316C109.844 205.646 109.023 208.995 107.168 211.783C105.313 214.571 102.541 216.622 99.3318 217.581ZM275.224 105.045C273.05 89.0021 265.559 71.2682 250.402 63.5922C250.244 63.5088 250.065 63.4727 249.887 63.4883C249.709 63.5039 249.539 63.5704 249.398 63.6801C249.256 63.7897 249.15 63.9376 249.09 64.1063C249.031 64.275 249.021 64.4572 249.063 64.6311C251.084 76.5305 248.536 88.7539 241.928 98.8557C241.144 96.5329 239.859 94.4107 238.164 92.639C236.469 90.8672 234.406 89.4892 232.119 88.6022C232 88.5674 231.874 88.5586 231.751 88.5766C231.627 88.5946 231.509 88.6389 231.404 88.7065C231.3 88.7741 231.211 88.8634 231.144 88.9684C231.076 89.0734 231.033 89.1916 231.015 89.315C230.872 90.2582 235.237 100.66 223.55 113.656C218.245 119.55 212.35 123.909 210.119 131.833C208.255 138.232 208.829 145.094 211.731 151.095C214.632 157.095 219.654 161.808 225.828 164.323C249.589 174.06 280.702 145.264 275.224 105.045ZM246.785 145.429C242.359 159.851 218.524 153.196 227.363 138.448C228.357 135.745 230.326 133.509 232.882 132.18C235.439 130.851 238.4 130.524 241.185 131.264C243.637 132.588 245.543 134.735 246.567 137.326C247.591 139.917 247.668 142.786 246.785 145.429Z" fill="#EF233C"/>
</svg>
